<svg width="40" height="40" viewBox="0 0 40 40" fill="none" xmlns="http://www.w3.org/2000/svg">
<rect width="40" height="40" rx="20" fill="#82CDF8"/>
<path d="M18.6668 16.0007H21.3335C22.6668 16.0007 22.6668 15.334 22.6668 14.6673C22.6668 13.334 22.0002 13.334 21.3335 13.334H18.6668C18.0002 13.334 17.3335 13.334 17.3335 14.6673C17.3335 16.0007 18.0002 16.0007 18.6668 16.0007Z" stroke="white" stroke-width="1.2" stroke-miterlimit="10" stroke-linecap="round" stroke-linejoin="round"/>
<path d="M22.6667 14.6797C24.8867 14.7997 26 15.6197 26 18.6664V22.6664C26 25.333 25.3333 26.6664 22 26.6664H18C14.6667 26.6664 14 25.333 14 22.6664V18.6664C14 15.6264 15.1133 14.7997 17.3333 14.6797" stroke="white" stroke-width="1.2" stroke-miterlimit="10" stroke-linecap="round" stroke-linejoin="round"/>
</svg>
