<svg width="304" height="318" viewBox="0 0 304 318" fill="none" xmlns="http://www.w3.org/2000/svg">
<path d="M24.48 45L30.24 31H31.84L37.56 45H35.08L30.6 33.66H31.44L26.92 45H24.48ZM27.32 42.3V40.3H34.74V42.3H27.32ZM39.563 45V30.6H41.763V45H39.563ZM44.5114 45V30.6H46.7114V45H44.5114ZM52.4573 45L58.2173 31H59.8173L65.5373 45H63.0573L58.5773 33.66H59.4173L54.8973 45H52.4573ZM55.2973 42.3V40.3H62.7173V42.3H55.2973ZM71.3939 45.2C70.4472 45.2 69.5872 44.98 68.8139 44.54C68.0539 44.1 67.4539 43.5 67.0139 42.74C66.5739 41.98 66.3539 41.1333 66.3539 40.2C66.3539 39.2533 66.5739 38.4067 67.0139 37.66C67.4539 36.9 68.0539 36.3 68.8139 35.86C69.5872 35.42 70.4472 35.2 71.3939 35.2C72.1406 35.2 72.8339 35.3467 73.4739 35.64C74.1272 35.92 74.6806 36.3267 75.1339 36.86L73.6939 38.32C73.4139 37.9867 73.0739 37.74 72.6739 37.58C72.2872 37.4067 71.8606 37.32 71.3939 37.32C70.8472 37.32 70.3606 37.4467 69.9339 37.7C69.5206 37.94 69.1939 38.2733 68.9539 38.7C68.7272 39.1267 68.6139 39.6267 68.6139 40.2C68.6139 40.76 68.7272 41.26 68.9539 41.7C69.1939 42.1267 69.5206 42.4667 69.9339 42.72C70.3606 42.96 70.8472 43.08 71.3939 43.08C71.8606 43.08 72.2872 43 72.6739 42.84C73.0739 42.6667 73.4139 42.4133 73.6939 42.08L75.1339 43.54C74.6806 44.0733 74.1272 44.4867 73.4739 44.78C72.8339 45.06 72.1406 45.2 71.3939 45.2ZM78.3237 45V31.4H80.5237V45H78.3237ZM76.0237 37.4V35.4H82.8237V37.4H76.0237ZM84.7423 45V35.4H86.9423V45H84.7423ZM85.8423 33.64C85.469 33.64 85.1557 33.5133 84.9023 33.26C84.6623 33.0067 84.5423 32.6933 84.5423 32.32C84.5423 31.9467 84.6623 31.6333 84.9023 31.38C85.1557 31.1267 85.469 31 85.8423 31C86.229 31 86.5423 31.1267 86.7823 31.38C87.0223 31.6333 87.1423 31.9467 87.1423 32.32C87.1423 32.6933 87.0223 33.0067 86.7823 33.26C86.5423 33.5133 86.229 33.64 85.8423 33.64ZM92.9498 45L88.5698 35.4H91.0098L94.3498 43.22H92.9098L96.2698 35.4H98.6098L94.2298 45H92.9498ZM104.353 45.2C103.393 45.2 102.526 44.9867 101.753 44.56C100.993 44.12 100.386 43.52 99.9327 42.76C99.4927 42 99.2727 41.1467 99.2727 40.2C99.2727 39.2533 99.4927 38.4067 99.9327 37.66C100.373 36.9 100.966 36.3 101.713 35.86C102.473 35.42 103.313 35.2 104.233 35.2C105.126 35.2 105.913 35.4067 106.593 35.82C107.286 36.2333 107.826 36.8 108.213 37.52C108.613 38.24 108.813 39.06 108.813 39.98C108.813 40.14 108.799 40.3067 108.773 40.48C108.759 40.64 108.733 40.82 108.693 41.02H100.813V39.22H107.553L106.733 39.94C106.706 39.3533 106.593 38.86 106.393 38.46C106.193 38.06 105.906 37.7533 105.533 37.54C105.173 37.3267 104.726 37.22 104.193 37.22C103.633 37.22 103.146 37.34 102.733 37.58C102.319 37.82 101.999 38.16 101.773 38.6C101.546 39.0267 101.433 39.54 101.433 40.14C101.433 40.74 101.553 41.2667 101.793 41.72C102.033 42.1733 102.373 42.5267 102.813 42.78C103.253 43.02 103.759 43.14 104.333 43.14C104.826 43.14 105.279 43.0533 105.693 42.88C106.119 42.7067 106.479 42.4533 106.773 42.12L108.173 43.54C107.706 44.0867 107.139 44.5 106.473 44.78C105.806 45.06 105.099 45.2 104.353 45.2ZM119.38 45.2C118.273 45.2 117.333 45 116.56 44.6C115.787 44.2 115.093 43.6133 114.48 42.84L116.04 41.28C116.427 41.84 116.887 42.28 117.42 42.6C117.953 42.9067 118.633 43.06 119.46 43.06C120.233 43.06 120.847 42.9 121.3 42.58C121.767 42.26 122 41.82 122 41.26C122 40.7933 121.88 40.4133 121.64 40.12C121.4 39.8267 121.08 39.5867 120.68 39.4C120.293 39.2 119.86 39.0267 119.38 38.88C118.913 38.72 118.44 38.5467 117.96 38.36C117.493 38.16 117.06 37.9133 116.66 37.62C116.273 37.3267 115.96 36.9467 115.72 36.48C115.48 36.0133 115.36 35.42 115.36 34.7C115.36 33.8733 115.56 33.1733 115.96 32.6C116.373 32.0133 116.927 31.5667 117.62 31.26C118.313 30.9533 119.087 30.8 119.94 30.8C120.86 30.8 121.68 30.98 122.4 31.34C123.133 31.7 123.727 32.16 124.18 32.72L122.62 34.28C122.22 33.8267 121.8 33.4933 121.36 33.28C120.933 33.0533 120.44 32.94 119.88 32.94C119.187 32.94 118.64 33.08 118.24 33.36C117.853 33.64 117.66 34.0333 117.66 34.54C117.66 34.9667 117.78 35.3133 118.02 35.58C118.26 35.8333 118.573 36.0533 118.96 36.24C119.36 36.4133 119.793 36.58 120.26 36.74C120.74 36.9 121.213 37.08 121.68 37.28C122.16 37.48 122.593 37.74 122.98 38.06C123.38 38.3667 123.7 38.7667 123.94 39.26C124.18 39.7533 124.3 40.3733 124.3 41.12C124.3 42.3733 123.853 43.3667 122.96 44.1C122.08 44.8333 120.887 45.2 119.38 45.2ZM130.533 45.2C129.72 45.2 128.993 45.02 128.353 44.66C127.727 44.3 127.233 43.8067 126.873 43.18C126.527 42.54 126.353 41.8067 126.353 40.98V35.4H128.553V40.88C128.553 41.3467 128.627 41.7467 128.773 42.08C128.933 42.4 129.16 42.6467 129.453 42.82C129.76 42.9933 130.12 43.08 130.533 43.08C131.173 43.08 131.66 42.8933 131.993 42.52C132.34 42.1333 132.513 41.5867 132.513 40.88V35.4H134.713V40.98C134.713 41.82 134.533 42.56 134.173 43.2C133.827 43.8267 133.34 44.32 132.713 44.68C132.087 45.0267 131.36 45.2 130.533 45.2ZM142.365 45.2C141.632 45.2 140.979 45.0467 140.405 44.74C139.832 44.42 139.379 43.9867 139.045 43.44C138.725 42.8933 138.565 42.2733 138.565 41.58V38.82C138.565 38.1267 138.732 37.5067 139.065 36.96C139.399 36.4133 139.852 35.9867 140.425 35.68C140.999 35.36 141.645 35.2 142.365 35.2C143.232 35.2 144.012 35.4267 144.705 35.88C145.412 36.32 145.965 36.92 146.365 37.68C146.779 38.4267 146.985 39.2733 146.985 40.22C146.985 41.1533 146.779 42 146.365 42.76C145.965 43.5067 145.412 44.1 144.705 44.54C144.012 44.98 143.232 45.2 142.365 45.2ZM142.005 43.12C142.539 43.12 143.005 43 143.405 42.76C143.819 42.5067 144.139 42.16 144.365 41.72C144.605 41.28 144.725 40.7733 144.725 40.2C144.725 39.6267 144.605 39.12 144.365 38.68C144.139 38.24 143.819 37.9 143.405 37.66C143.005 37.4067 142.539 37.28 142.005 37.28C141.472 37.28 140.999 37.4067 140.585 37.66C140.172 37.9 139.852 38.24 139.625 38.68C139.399 39.12 139.285 39.6267 139.285 40.2C139.285 40.7733 139.399 41.28 139.625 41.72C139.852 42.16 140.172 42.5067 140.585 42.76C140.999 43 141.472 43.12 142.005 43.12ZM137.225 45V30.6H139.425V37.76L139.045 40.08L139.425 42.42V45H137.225ZM152.267 45.2C151.734 45.2 151.22 45.1333 150.727 45C150.234 44.8533 149.78 44.6533 149.367 44.4C148.954 44.1333 148.594 43.8133 148.287 43.44L149.687 42.04C150.02 42.4267 150.4 42.72 150.827 42.92C151.267 43.1067 151.76 43.2 152.307 43.2C152.8 43.2 153.174 43.1267 153.427 42.98C153.68 42.8333 153.807 42.62 153.807 42.34C153.807 42.0467 153.687 41.82 153.447 41.66C153.207 41.5 152.894 41.3667 152.507 41.26C152.134 41.14 151.734 41.02 151.307 40.9C150.894 40.78 150.494 40.62 150.107 40.42C149.734 40.2067 149.427 39.92 149.187 39.56C148.947 39.2 148.827 38.7333 148.827 38.16C148.827 37.5467 148.967 37.02 149.247 36.58C149.54 36.14 149.947 35.8 150.467 35.56C151 35.32 151.634 35.2 152.367 35.2C153.14 35.2 153.82 35.34 154.407 35.62C155.007 35.8867 155.507 36.2933 155.907 36.84L154.507 38.24C154.227 37.8933 153.907 37.6333 153.547 37.46C153.187 37.2867 152.774 37.2 152.307 37.2C151.867 37.2 151.527 37.2667 151.287 37.4C151.047 37.5333 150.927 37.7267 150.927 37.98C150.927 38.2467 151.047 38.4533 151.287 38.6C151.527 38.7467 151.834 38.8733 152.207 38.98C152.594 39.0867 152.994 39.2067 153.407 39.34C153.834 39.46 154.234 39.6333 154.607 39.86C154.994 40.0733 155.307 40.3667 155.547 40.74C155.787 41.1 155.907 41.5733 155.907 42.16C155.907 43.0933 155.58 43.8333 154.927 44.38C154.274 44.9267 153.387 45.2 152.267 45.2ZM162.441 45.2C161.494 45.2 160.634 44.98 159.861 44.54C159.101 44.1 158.501 43.5 158.061 42.74C157.621 41.98 157.401 41.1333 157.401 40.2C157.401 39.2533 157.621 38.4067 158.061 37.66C158.501 36.9 159.101 36.3 159.861 35.86C160.634 35.42 161.494 35.2 162.441 35.2C163.187 35.2 163.881 35.3467 164.521 35.64C165.174 35.92 165.727 36.3267 166.181 36.86L164.741 38.32C164.461 37.9867 164.121 37.74 163.721 37.58C163.334 37.4067 162.907 37.32 162.441 37.32C161.894 37.32 161.407 37.4467 160.981 37.7C160.567 37.94 160.241 38.2733 160.001 38.7C159.774 39.1267 159.661 39.6267 159.661 40.2C159.661 40.76 159.774 41.26 160.001 41.7C160.241 42.1267 160.567 42.4667 160.981 42.72C161.407 42.96 161.894 43.08 162.441 43.08C162.907 43.08 163.334 43 163.721 42.84C164.121 42.6667 164.461 42.4133 164.741 42.08L166.181 43.54C165.727 44.0733 165.174 44.4867 164.521 44.78C163.881 45.06 163.187 45.2 162.441 45.2ZM168.067 45V35.4H170.267V45H168.067ZM170.267 39.66L169.507 39.28C169.507 38.0667 169.774 37.0867 170.307 36.34C170.854 35.58 171.674 35.2 172.767 35.2C173.247 35.2 173.68 35.2867 174.067 35.46C174.454 35.6333 174.814 35.9133 175.147 36.3L173.707 37.78C173.534 37.5933 173.34 37.46 173.127 37.38C172.914 37.3 172.667 37.26 172.387 37.26C171.774 37.26 171.267 37.4533 170.867 37.84C170.467 38.2267 170.267 38.8333 170.267 39.66ZM176.531 45V35.4H178.731V45H176.531ZM177.631 33.64C177.258 33.64 176.945 33.5133 176.691 33.26C176.451 33.0067 176.331 32.6933 176.331 32.32C176.331 31.9467 176.451 31.6333 176.691 31.38C176.945 31.1267 177.258 31 177.631 31C178.018 31 178.331 31.1267 178.571 31.38C178.811 31.6333 178.931 31.9467 178.931 32.32C178.931 32.6933 178.811 33.0067 178.571 33.26C178.331 33.5133 178.018 33.64 177.631 33.64ZM186.639 45.2C185.906 45.2 185.252 45.0467 184.679 44.74C184.106 44.42 183.652 43.9867 183.319 43.44C182.999 42.8933 182.839 42.2733 182.839 41.58V38.82C182.839 38.1267 183.006 37.5067 183.339 36.96C183.672 36.4133 184.126 35.9867 184.699 35.68C185.272 35.36 185.919 35.2 186.639 35.2C187.506 35.2 188.286 35.4267 188.979 35.88C189.686 36.32 190.239 36.92 190.639 37.68C191.052 38.4267 191.259 39.2733 191.259 40.22C191.259 41.1533 191.052 42 190.639 42.76C190.239 43.5067 189.686 44.1 188.979 44.54C188.286 44.98 187.506 45.2 186.639 45.2ZM186.279 43.12C186.812 43.12 187.279 43 187.679 42.76C188.092 42.5067 188.412 42.16 188.639 41.72C188.879 41.28 188.999 40.7733 188.999 40.2C188.999 39.6267 188.879 39.12 188.639 38.68C188.412 38.24 188.092 37.9 187.679 37.66C187.279 37.4067 186.812 37.28 186.279 37.28C185.746 37.28 185.272 37.4067 184.859 37.66C184.446 37.9 184.126 38.24 183.899 38.68C183.672 39.12 183.559 39.6267 183.559 40.2C183.559 40.7733 183.672 41.28 183.899 41.72C184.126 42.16 184.446 42.5067 184.859 42.76C185.272 43 185.746 43.12 186.279 43.12ZM181.499 49V35.4H183.699V37.98L183.319 40.32L183.699 42.64V49H181.499ZM194.587 45V31.4H196.787V45H194.587ZM192.287 37.4V35.4H199.087V37.4H192.287ZM201.006 45V35.4H203.206V45H201.006ZM202.106 33.64C201.732 33.64 201.419 33.5133 201.166 33.26C200.926 33.0067 200.806 32.6933 200.806 32.32C200.806 31.9467 200.926 31.6333 201.166 31.38C201.419 31.1267 201.732 31 202.106 31C202.492 31 202.806 31.1267 203.046 31.38C203.286 31.6333 203.406 31.9467 203.406 32.32C203.406 32.6933 203.286 33.0067 203.046 33.26C202.806 33.5133 202.492 33.64 202.106 33.64ZM210.373 45.2C209.44 45.2 208.593 44.98 207.833 44.54C207.073 44.0867 206.466 43.48 206.013 42.72C205.573 41.96 205.353 41.1133 205.353 40.18C205.353 39.2467 205.573 38.4067 206.013 37.66C206.466 36.9133 207.073 36.32 207.833 35.88C208.593 35.4267 209.44 35.2 210.373 35.2C211.32 35.2 212.173 35.42 212.933 35.86C213.693 36.3 214.293 36.9 214.733 37.66C215.186 38.4067 215.413 39.2467 215.413 40.18C215.413 41.1133 215.186 41.96 214.733 42.72C214.293 43.48 213.693 44.0867 212.933 44.54C212.173 44.98 211.32 45.2 210.373 45.2ZM210.373 43.08C210.92 43.08 211.4 42.96 211.813 42.72C212.24 42.4667 212.566 42.12 212.793 41.68C213.033 41.24 213.153 40.74 213.153 40.18C213.153 39.62 213.033 39.1267 212.793 38.7C212.553 38.2733 212.226 37.94 211.813 37.7C211.4 37.4467 210.92 37.32 210.373 37.32C209.84 37.32 209.36 37.4467 208.933 37.7C208.52 37.94 208.193 38.2733 207.953 38.7C207.726 39.1267 207.613 39.62 207.613 40.18C207.613 40.74 207.726 41.24 207.953 41.68C208.193 42.12 208.52 42.4667 208.933 42.72C209.36 42.96 209.84 43.08 210.373 43.08ZM224.123 45V39.46C224.123 38.82 223.916 38.2933 223.503 37.88C223.103 37.4667 222.583 37.26 221.943 37.26C221.516 37.26 221.136 37.3533 220.803 37.54C220.469 37.7267 220.209 37.9867 220.023 38.32C219.836 38.6533 219.743 39.0333 219.743 39.46L218.883 38.98C218.883 38.2467 219.043 37.6 219.363 37.04C219.683 36.4667 220.123 36.02 220.683 35.7C221.256 35.3667 221.896 35.2 222.603 35.2C223.323 35.2 223.963 35.3867 224.523 35.76C225.083 36.12 225.523 36.5933 225.843 37.18C226.163 37.7533 226.323 38.3533 226.323 38.98V45H224.123ZM217.543 45V35.4H219.743V45H217.543Z" fill="#1A1824"/>
<path d="M245.26 196.02C246.925 182.828 245.772 169.433 241.878 156.719C237.984 144.006 231.437 132.263 222.669 122.267C213.901 112.271 203.113 104.248 191.016 98.7294C178.919 93.2105 165.788 90.3209 152.492 90.2513C139.196 90.1817 126.036 92.9337 113.882 98.3256C101.728 103.718 90.8556 111.627 81.9838 121.531C73.112 131.434 66.4423 143.108 62.4151 155.78C58.8934 166.861 57.4626 178.486 58.1799 190.063C58.3507 192.819 60.8454 194.786 63.5886 194.468L63.9859 194.423C66.1805 194.169 67.7439 192.184 67.5943 189.98C66.8757 179.396 68.1535 168.759 71.3736 158.627C74.9981 147.222 81.0008 136.716 88.9854 127.802C96.97 118.889 106.755 111.771 117.694 106.918C128.632 102.065 140.476 99.5885 152.443 99.6512C164.41 99.7138 176.227 102.314 187.114 107.281C198.001 112.248 207.711 119.469 215.602 128.465C223.493 137.462 229.385 148.03 232.89 159.472C236.395 170.914 237.433 182.97 235.934 194.843L245.26 196.02Z" fill="#7B49E5"/>
<path d="M245.26 196.02C246.939 182.716 245.752 169.207 241.78 156.4C237.807 143.593 231.14 131.784 222.226 121.766C213.313 111.748 202.36 103.753 190.101 98.3181C177.843 92.883 164.564 90.1333 151.155 90.2538L151.24 99.6534C163.308 99.545 175.259 102.02 186.291 106.911C197.324 111.803 207.182 118.998 215.204 128.014C223.226 137.031 229.226 147.659 232.802 159.185C236.377 170.711 237.445 182.869 235.934 194.843L245.26 196.02Z" fill="white"/>
<path d="M245.26 196.02C246.896 183.057 245.812 169.897 242.077 157.377C238.342 144.858 232.038 133.254 223.568 123.307C215.097 113.36 204.646 105.288 192.882 99.6056C181.117 93.9235 168.298 90.7563 155.24 90.3059L154.916 99.7003C166.668 100.106 178.206 102.956 188.794 108.07C199.382 113.184 208.788 120.449 216.411 129.401C224.034 138.354 229.708 148.797 233.069 160.064C236.431 171.332 237.406 183.177 235.934 194.843L245.26 196.02Z" fill="#FF8D85"/>
<path d="M245.26 196.02C248.132 173.266 242.586 150.247 229.666 131.298L221.9 136.593C233.527 153.647 238.519 174.364 235.934 194.843L245.26 196.02Z" fill="white"/>
<path d="M245.26 196.02C247.95 174.708 243.259 153.118 231.969 134.843L223.972 139.784C234.133 156.231 238.355 175.662 235.934 194.843L245.26 196.02Z" fill="#158FAD"/>
<path d="M245.26 196.02C246.08 189.525 246.219 182.962 245.675 176.438L236.307 177.219C236.797 183.091 236.672 188.997 235.934 194.843L245.26 196.02Z" fill="white"/>
<path d="M240.597 195.431C243.172 195.756 245.536 193.932 245.732 191.343C246.004 187.741 246.069 184.124 245.925 180.512L236.533 180.886C236.656 183.98 236.609 187.078 236.393 190.165C236.211 192.755 238.022 195.106 240.597 195.431Z" fill="#7ECC49"/>
<path d="M138.72 165V150.94H141.4V165H138.72ZM135.96 153.3V150.94H141.2V153.3H135.96ZM149.484 165.2C148.377 165.2 147.377 164.9 146.484 164.3C145.59 163.7 144.877 162.853 144.344 161.76C143.824 160.667 143.564 159.393 143.564 157.94C143.564 156.487 143.824 155.22 144.344 154.14C144.864 153.06 145.564 152.22 146.444 151.62C147.337 151.02 148.33 150.72 149.424 150.72C150.544 150.72 151.544 151.02 152.424 151.62C153.317 152.22 154.024 153.067 154.544 154.16C155.064 155.24 155.324 156.513 155.324 157.98C155.324 159.433 155.064 160.707 154.544 161.8C154.024 162.88 153.324 163.72 152.444 164.32C151.564 164.907 150.577 165.2 149.484 165.2ZM149.444 162.74C150.084 162.74 150.637 162.56 151.104 162.2C151.57 161.84 151.93 161.307 152.184 160.6C152.45 159.893 152.584 159.013 152.584 157.96C152.584 156.907 152.45 156.027 152.184 155.32C151.93 154.613 151.564 154.087 151.084 153.74C150.617 153.38 150.064 153.2 149.424 153.2C148.797 153.2 148.25 153.38 147.784 153.74C147.317 154.087 146.95 154.613 146.684 155.32C146.43 156.013 146.304 156.887 146.304 157.94C146.304 159.007 146.43 159.893 146.684 160.6C146.95 161.307 147.317 161.84 147.784 162.2C148.25 162.56 148.804 162.74 149.444 162.74ZM162.687 165.2C161.58 165.2 160.58 164.9 159.687 164.3C158.794 163.7 158.08 162.853 157.547 161.76C157.027 160.667 156.767 159.393 156.767 157.94C156.767 156.487 157.027 155.22 157.547 154.14C158.067 153.06 158.767 152.22 159.647 151.62C160.54 151.02 161.534 150.72 162.627 150.72C163.747 150.72 164.747 151.02 165.627 151.62C166.52 152.22 167.227 153.067 167.747 154.16C168.267 155.24 168.527 156.513 168.527 157.98C168.527 159.433 168.267 160.707 167.747 161.8C167.227 162.88 166.527 163.72 165.647 164.32C164.767 164.907 163.78 165.2 162.687 165.2ZM162.647 162.74C163.287 162.74 163.84 162.56 164.307 162.2C164.774 161.84 165.134 161.307 165.387 160.6C165.654 159.893 165.787 159.013 165.787 157.96C165.787 156.907 165.654 156.027 165.387 155.32C165.134 154.613 164.767 154.087 164.287 153.74C163.82 153.38 163.267 153.2 162.627 153.2C162 153.2 161.454 153.38 160.987 153.74C160.52 154.087 160.154 154.613 159.887 155.32C159.634 156.013 159.507 156.887 159.507 157.94C159.507 159.007 159.634 159.893 159.887 160.6C160.154 161.307 160.52 161.84 160.987 162.2C161.454 162.56 162.007 162.74 162.647 162.74Z" fill="#1A1824"/>
<path d="M100.192 186V177.912H101.32V186H100.192ZM97.36 178.704V177.672H104.14V178.704H97.36ZM106.326 186.12C105.766 186.12 105.262 185.988 104.814 185.724C104.366 185.46 104.01 185.104 103.746 184.656C103.482 184.2 103.35 183.692 103.35 183.132C103.35 182.58 103.482 182.084 103.746 181.644C104.01 181.196 104.366 180.84 104.814 180.576C105.262 180.312 105.766 180.18 106.326 180.18C106.878 180.18 107.378 180.312 107.826 180.576C108.282 180.832 108.642 181.184 108.906 181.632C109.17 182.08 109.302 182.58 109.302 183.132C109.302 183.692 109.17 184.2 108.906 184.656C108.642 185.104 108.282 185.46 107.826 185.724C107.378 185.988 106.878 186.12 106.326 186.12ZM106.326 185.076C106.686 185.076 107.006 184.992 107.286 184.824C107.566 184.656 107.786 184.428 107.946 184.14C108.106 183.844 108.186 183.508 108.186 183.132C108.186 182.764 108.102 182.436 107.934 182.148C107.774 181.86 107.554 181.636 107.274 181.476C107.002 181.308 106.686 181.224 106.326 181.224C105.966 181.224 105.646 181.308 105.366 181.476C105.086 181.636 104.866 181.86 104.706 182.148C104.546 182.436 104.466 182.764 104.466 183.132C104.466 183.508 104.546 183.844 104.706 184.14C104.866 184.428 105.086 184.656 105.366 184.824C105.646 184.992 105.966 185.076 106.326 185.076ZM111.219 186V177.912H112.299V186H111.219ZM109.815 181.284V180.3H113.703V181.284H109.815ZM117.009 186.12C116.489 186.12 116.017 185.992 115.593 185.736C115.169 185.472 114.833 185.116 114.585 184.668C114.345 184.22 114.225 183.716 114.225 183.156C114.225 182.596 114.345 182.092 114.585 181.644C114.833 181.196 115.165 180.84 115.581 180.576C116.005 180.312 116.481 180.18 117.009 180.18C117.441 180.18 117.825 180.272 118.161 180.456C118.505 180.632 118.781 180.88 118.989 181.2C119.197 181.512 119.313 181.876 119.337 182.292V184.008C119.313 184.416 119.197 184.78 118.989 185.1C118.789 185.42 118.517 185.672 118.173 185.856C117.837 186.032 117.449 186.12 117.009 186.12ZM117.189 185.1C117.725 185.1 118.157 184.92 118.485 184.56C118.813 184.192 118.977 183.724 118.977 183.156C118.977 182.764 118.901 182.424 118.749 182.136C118.605 181.84 118.397 181.612 118.125 181.452C117.853 181.284 117.537 181.2 117.177 181.2C116.817 181.2 116.497 181.284 116.217 181.452C115.945 181.62 115.729 181.852 115.569 182.148C115.417 182.436 115.341 182.768 115.341 183.144C115.341 183.528 115.417 183.868 115.569 184.164C115.729 184.452 115.949 184.68 116.229 184.848C116.509 185.016 116.829 185.1 117.189 185.1ZM118.905 186V184.464L119.109 183.072L118.905 181.692V180.3H119.997V186H118.905ZM121.569 186V177.432H122.649V186H121.569ZM125.966 186L129.374 177.672H130.19L133.586 186H132.362L129.566 178.956H129.986L127.166 186H125.966ZM127.586 184.116V183.132H131.966V184.116H127.586ZM134.741 186V177.432H135.821V186H134.741ZM137.401 186V177.432H138.481V186H137.401ZM145.066 186.12C144.41 186.12 143.85 186 143.386 185.76C142.922 185.52 142.51 185.172 142.15 184.716L142.918 183.948C143.182 184.316 143.486 184.596 143.83 184.788C144.174 184.972 144.598 185.064 145.102 185.064C145.598 185.064 145.994 184.956 146.29 184.74C146.594 184.524 146.746 184.228 146.746 183.852C146.746 183.54 146.674 183.288 146.53 183.096C146.386 182.904 146.19 182.748 145.942 182.628C145.702 182.5 145.438 182.388 145.15 182.292C144.862 182.188 144.574 182.08 144.286 181.968C143.998 181.848 143.734 181.704 143.494 181.536C143.254 181.36 143.058 181.132 142.906 180.852C142.762 180.572 142.69 180.22 142.69 179.796C142.69 179.324 142.802 178.924 143.026 178.596C143.258 178.26 143.57 178.004 143.962 177.828C144.362 177.644 144.81 177.552 145.306 177.552C145.85 177.552 146.338 177.66 146.77 177.876C147.202 178.084 147.554 178.36 147.826 178.704L147.058 179.472C146.81 179.184 146.542 178.968 146.254 178.824C145.974 178.68 145.65 178.608 145.282 178.608C144.834 178.608 144.478 178.708 144.214 178.908C143.95 179.1 143.818 179.372 143.818 179.724C143.818 180.004 143.89 180.232 144.034 180.408C144.186 180.576 144.382 180.72 144.622 180.84C144.862 180.96 145.126 181.072 145.414 181.176C145.71 181.272 146.002 181.38 146.29 181.5C146.578 181.62 146.842 181.772 147.082 181.956C147.322 182.14 147.514 182.38 147.658 182.676C147.81 182.964 147.886 183.328 147.886 183.768C147.886 184.504 147.63 185.08 147.118 185.496C146.614 185.912 145.93 186.12 145.066 186.12ZM151.518 186.12C151.046 186.12 150.622 186.016 150.246 185.808C149.878 185.592 149.59 185.296 149.382 184.92C149.174 184.544 149.07 184.108 149.07 183.612V180.3H150.15V183.564C150.15 183.876 150.202 184.148 150.306 184.38C150.418 184.604 150.578 184.776 150.786 184.896C150.994 185.016 151.238 185.076 151.518 185.076C151.942 185.076 152.274 184.944 152.514 184.68C152.754 184.408 152.874 184.036 152.874 183.564V180.3H153.954V183.612C153.954 184.108 153.85 184.544 153.642 184.92C153.434 185.296 153.146 185.592 152.778 185.808C152.418 186.016 151.998 186.12 151.518 186.12ZM158.401 186.12C157.969 186.12 157.577 186.032 157.225 185.856C156.881 185.672 156.605 185.42 156.397 185.1C156.189 184.78 156.073 184.416 156.049 184.008V182.292C156.073 181.876 156.189 181.512 156.397 181.2C156.613 180.88 156.893 180.632 157.237 180.456C157.589 180.272 157.977 180.18 158.401 180.18C158.921 180.18 159.389 180.312 159.805 180.576C160.229 180.84 160.561 181.196 160.801 181.644C161.041 182.092 161.161 182.596 161.161 183.156C161.161 183.716 161.041 184.22 160.801 184.668C160.561 185.116 160.229 185.472 159.805 185.736C159.389 185.992 158.921 186.12 158.401 186.12ZM158.221 185.1C158.581 185.1 158.897 185.016 159.169 184.848C159.441 184.68 159.657 184.452 159.817 184.164C159.977 183.868 160.057 183.528 160.057 183.144C160.057 182.768 159.977 182.432 159.817 182.136C159.657 181.84 159.441 181.612 159.169 181.452C158.897 181.284 158.585 181.2 158.233 181.2C157.873 181.2 157.557 181.284 157.285 181.452C157.013 181.612 156.801 181.84 156.649 182.136C156.497 182.432 156.421 182.772 156.421 183.156C156.421 183.532 156.493 183.868 156.637 184.164C156.789 184.452 157.001 184.68 157.273 184.848C157.553 185.016 157.869 185.1 158.221 185.1ZM155.401 186V177.432H156.481V181.692L156.277 183.072L156.481 184.464V186H155.401ZM164.198 186.12C163.878 186.12 163.574 186.08 163.286 186C163.006 185.912 162.746 185.792 162.506 185.64C162.266 185.48 162.058 185.292 161.882 185.076L162.578 184.38C162.786 184.636 163.026 184.828 163.298 184.956C163.57 185.076 163.874 185.136 164.21 185.136C164.546 185.136 164.806 185.08 164.99 184.968C165.174 184.848 165.266 184.684 165.266 184.476C165.266 184.268 165.19 184.108 165.038 183.996C164.894 183.876 164.706 183.78 164.474 183.708C164.242 183.628 163.994 183.552 163.73 183.48C163.474 183.4 163.23 183.3 162.998 183.18C162.766 183.06 162.574 182.896 162.422 182.688C162.278 182.48 162.206 182.204 162.206 181.86C162.206 181.516 162.29 181.22 162.458 180.972C162.626 180.716 162.858 180.52 163.154 180.384C163.458 180.248 163.822 180.18 164.246 180.18C164.694 180.18 165.09 180.26 165.434 180.42C165.786 180.572 166.074 180.804 166.298 181.116L165.602 181.812C165.442 181.604 165.242 181.444 165.002 181.332C164.77 181.22 164.506 181.164 164.21 181.164C163.898 181.164 163.658 181.22 163.49 181.332C163.33 181.436 163.25 181.584 163.25 181.776C163.25 181.968 163.322 182.116 163.466 182.22C163.61 182.324 163.798 182.412 164.03 182.484C164.27 182.556 164.518 182.632 164.774 182.712C165.03 182.784 165.274 182.884 165.506 183.012C165.738 183.14 165.926 183.312 166.07 183.528C166.222 183.744 166.298 184.028 166.298 184.38C166.298 184.916 166.106 185.34 165.722 185.652C165.346 185.964 164.838 186.12 164.198 186.12ZM170.111 186.12C169.551 186.12 169.043 185.988 168.587 185.724C168.139 185.46 167.783 185.104 167.519 184.656C167.263 184.2 167.135 183.696 167.135 183.144C167.135 182.584 167.263 182.08 167.519 181.632C167.783 181.184 168.139 180.832 168.587 180.576C169.043 180.312 169.551 180.18 170.111 180.18C170.551 180.18 170.959 180.264 171.335 180.432C171.711 180.592 172.035 180.828 172.307 181.14L171.587 181.86C171.411 181.652 171.195 181.496 170.939 181.392C170.691 181.28 170.415 181.224 170.111 181.224C169.751 181.224 169.431 181.308 169.151 181.476C168.871 181.636 168.651 181.86 168.491 182.148C168.331 182.436 168.251 182.768 168.251 183.144C168.251 183.52 168.331 183.852 168.491 184.14C168.651 184.428 168.871 184.656 169.151 184.824C169.431 184.992 169.751 185.076 170.111 185.076C170.415 185.076 170.691 185.024 170.939 184.92C171.195 184.808 171.415 184.648 171.599 184.44L172.307 185.16C172.043 185.464 171.719 185.7 171.335 185.868C170.959 186.036 170.551 186.12 170.111 186.12ZM173.378 186V180.3H174.458V186H173.378ZM174.458 182.748L174.05 182.568C174.05 181.84 174.218 181.26 174.554 180.828C174.89 180.396 175.374 180.18 176.006 180.18C176.294 180.18 176.554 180.232 176.786 180.336C177.018 180.432 177.234 180.596 177.434 180.828L176.726 181.56C176.606 181.432 176.474 181.34 176.33 181.284C176.186 181.228 176.018 181.2 175.826 181.2C175.426 181.2 175.098 181.328 174.842 181.584C174.586 181.84 174.458 182.228 174.458 182.748ZM178.206 186V180.3H179.286V186H178.206ZM178.746 179.16C178.546 179.16 178.382 179.096 178.254 178.968C178.126 178.832 178.062 178.664 178.062 178.464C178.062 178.272 178.126 178.112 178.254 177.984C178.382 177.848 178.546 177.78 178.746 177.78C178.946 177.78 179.11 177.848 179.238 177.984C179.366 178.112 179.43 178.272 179.43 178.464C179.43 178.664 179.366 178.832 179.238 178.968C179.11 179.096 178.946 179.16 178.746 179.16ZM183.878 186.12C183.446 186.12 183.054 186.032 182.702 185.856C182.358 185.672 182.082 185.42 181.874 185.1C181.666 184.78 181.55 184.416 181.526 184.008V182.292C181.55 181.876 181.666 181.512 181.874 181.2C182.09 180.88 182.37 180.632 182.714 180.456C183.066 180.272 183.454 180.18 183.878 180.18C184.398 180.18 184.866 180.312 185.282 180.576C185.706 180.84 186.038 181.196 186.278 181.644C186.518 182.092 186.638 182.596 186.638 183.156C186.638 183.716 186.518 184.22 186.278 184.668C186.038 185.116 185.706 185.472 185.282 185.736C184.866 185.992 184.398 186.12 183.878 186.12ZM183.698 185.1C184.058 185.1 184.374 185.016 184.646 184.848C184.918 184.68 185.134 184.452 185.294 184.164C185.454 183.868 185.534 183.528 185.534 183.144C185.534 182.768 185.454 182.432 185.294 182.136C185.134 181.84 184.918 181.612 184.646 181.452C184.374 181.284 184.062 181.2 183.71 181.2C183.35 181.2 183.034 181.284 182.762 181.452C182.49 181.612 182.278 181.84 182.126 182.136C181.974 182.432 181.898 182.772 181.898 183.156C181.898 183.532 181.97 183.868 182.114 184.164C182.266 184.452 182.478 184.68 182.75 184.848C183.03 185.016 183.346 185.1 183.698 185.1ZM180.878 188.388V180.3H181.958V181.8L181.754 183.18L181.958 184.572V188.388H180.878ZM188.563 186V177.912H189.643V186H188.563ZM187.159 181.284V180.3H191.047V181.284H187.159ZM192.117 186V180.3H193.197V186H192.117ZM192.657 179.16C192.457 179.16 192.293 179.096 192.165 178.968C192.037 178.832 191.973 178.664 191.973 178.464C191.973 178.272 192.037 178.112 192.165 177.984C192.293 177.848 192.457 177.78 192.657 177.78C192.857 177.78 193.021 177.848 193.149 177.984C193.277 178.112 193.341 178.272 193.341 178.464C193.341 178.664 193.277 178.832 193.149 178.968C193.021 179.096 192.857 179.16 192.657 179.16ZM197.392 186.12C196.832 186.12 196.328 185.988 195.88 185.724C195.432 185.46 195.076 185.104 194.812 184.656C194.548 184.2 194.416 183.692 194.416 183.132C194.416 182.58 194.548 182.084 194.812 181.644C195.076 181.196 195.432 180.84 195.88 180.576C196.328 180.312 196.832 180.18 197.392 180.18C197.944 180.18 198.444 180.312 198.892 180.576C199.348 180.832 199.708 181.184 199.972 181.632C200.236 182.08 200.368 182.58 200.368 183.132C200.368 183.692 200.236 184.2 199.972 184.656C199.708 185.104 199.348 185.46 198.892 185.724C198.444 185.988 197.944 186.12 197.392 186.12ZM197.392 185.076C197.752 185.076 198.072 184.992 198.352 184.824C198.632 184.656 198.852 184.428 199.012 184.14C199.172 183.844 199.252 183.508 199.252 183.132C199.252 182.764 199.168 182.436 199 182.148C198.84 181.86 198.62 181.636 198.34 181.476C198.068 181.308 197.752 181.224 197.392 181.224C197.032 181.224 196.712 181.308 196.432 181.476C196.152 181.636 195.932 181.86 195.772 182.148C195.612 182.436 195.532 182.764 195.532 183.132C195.532 183.508 195.612 183.844 195.772 184.14C195.932 184.428 196.152 184.656 196.432 184.824C196.712 184.992 197.032 185.076 197.392 185.076ZM205.617 186V182.676C205.617 182.244 205.481 181.888 205.209 181.608C204.937 181.328 204.585 181.188 204.153 181.188C203.865 181.188 203.609 181.252 203.385 181.38C203.161 181.508 202.985 181.684 202.857 181.908C202.729 182.132 202.665 182.388 202.665 182.676L202.221 182.424C202.221 181.992 202.317 181.608 202.509 181.272C202.701 180.936 202.969 180.672 203.313 180.48C203.657 180.28 204.045 180.18 204.477 180.18C204.909 180.18 205.289 180.288 205.617 180.504C205.953 180.72 206.217 181.004 206.409 181.356C206.601 181.7 206.697 182.068 206.697 182.46V186H205.617ZM201.585 186V180.3H202.665V186H201.585Z" fill="#9EA3AE"/>
<path d="M27 222H277" stroke="#E1E1E6" stroke-linejoin="bevel"/>
<path d="M48.6641 252.12C48.0801 252.12 47.5481 252.02 47.0681 251.82C46.5881 251.612 46.1881 251.316 45.8681 250.932L46.9481 249.864C47.1081 250.104 47.3361 250.296 47.6321 250.44C47.9361 250.584 48.2681 250.656 48.6281 250.656C48.9561 250.656 49.2401 250.596 49.4801 250.476C49.7281 250.356 49.9201 250.188 50.0561 249.972C50.2001 249.748 50.2721 249.488 50.2721 249.192C50.2721 248.88 50.2001 248.616 50.0561 248.4C49.9201 248.184 49.7361 248.02 49.5041 247.908C49.2721 247.796 49.0121 247.74 48.7241 247.74C48.4201 247.74 48.1441 247.78 47.8961 247.86C47.6561 247.932 47.4241 248.052 47.2001 248.22L47.2961 247.188C47.4481 247.028 47.6081 246.9 47.7761 246.804C47.9441 246.7 48.1321 246.624 48.3401 246.576C48.5561 246.52 48.8081 246.492 49.0961 246.492C49.7121 246.492 50.2241 246.62 50.6321 246.876C51.0481 247.124 51.3641 247.46 51.5801 247.884C51.7961 248.3 51.9041 248.76 51.9041 249.264C51.9041 249.816 51.7681 250.308 51.4961 250.74C51.2241 251.172 50.8441 251.512 50.3561 251.76C49.8761 252 49.3121 252.12 48.6641 252.12ZM47.2001 248.22L46.4201 247.452L46.8041 243.564H48.2801L47.8481 247.512L47.2001 248.22ZM47.0561 244.98L46.8041 243.564H51.4361V244.98H47.0561ZM53.4205 252L56.3845 244.512H57.9925L55.1125 252H53.4205ZM52.2565 244.98V243.564H57.9925V244.512L57.3805 244.98H52.2565ZM60.4572 246.912C60.1452 246.912 59.8532 246.836 59.5812 246.684C59.3172 246.524 59.1092 246.312 58.9572 246.048C58.8052 245.784 58.7292 245.492 58.7292 245.172C58.7292 244.844 58.8052 244.552 58.9572 244.296C59.1092 244.04 59.3172 243.836 59.5812 243.684C59.8452 243.524 60.1372 243.444 60.4572 243.444C60.7852 243.444 61.0812 243.524 61.3452 243.684C61.6172 243.836 61.8292 244.04 61.9812 244.296C62.1332 244.552 62.2092 244.844 62.2092 245.172C62.2092 245.492 62.1292 245.784 61.9692 246.048C61.8172 246.312 61.6092 246.524 61.3452 246.684C61.0892 246.836 60.7932 246.912 60.4572 246.912ZM60.4572 245.772C60.6412 245.772 60.7852 245.716 60.8892 245.604C60.9932 245.492 61.0452 245.348 61.0452 245.172C61.0452 244.996 60.9892 244.852 60.8772 244.74C60.7732 244.628 60.6332 244.572 60.4572 244.572C60.2892 244.572 60.1532 244.628 60.0492 244.74C59.9452 244.852 59.8932 244.996 59.8932 245.172C59.8932 245.348 59.9452 245.492 60.0492 245.604C60.1532 245.716 60.2892 245.772 60.4572 245.772ZM64.1532 252.12C63.8332 252.12 63.5412 252.044 63.2772 251.892C63.0132 251.732 62.8012 251.524 62.6412 251.268C62.4892 251.004 62.4132 250.708 62.4132 250.38C62.4132 250.052 62.4892 249.76 62.6412 249.504C62.8012 249.248 63.0092 249.044 63.2652 248.892C63.5292 248.732 63.8252 248.652 64.1532 248.652C64.4812 248.652 64.7772 248.732 65.0412 248.892C65.3052 249.044 65.5132 249.248 65.6652 249.504C65.8252 249.76 65.9052 250.052 65.9052 250.38C65.9052 250.708 65.8252 251.004 65.6652 251.268C65.5132 251.524 65.3052 251.732 65.0412 251.892C64.7852 252.044 64.4892 252.12 64.1532 252.12ZM64.1532 250.98C64.3292 250.98 64.4732 250.924 64.5852 250.812C64.6972 250.7 64.7532 250.556 64.7532 250.38C64.7532 250.212 64.6932 250.072 64.5732 249.96C64.4612 249.848 64.3212 249.792 64.1532 249.792C63.9852 249.792 63.8452 249.848 63.7332 249.96C63.6292 250.072 63.5772 250.212 63.5772 250.38C63.5772 250.556 63.6292 250.7 63.7332 250.812C63.8452 250.924 63.9852 250.98 64.1532 250.98ZM58.9572 252L64.1892 243.564H65.6772L60.4452 252H58.9572Z" fill="#7B49E5"/>
<path d="M78.03 249.22V248.072H80.676C81.04 248.072 81.362 247.997 81.642 247.848C81.9313 247.699 82.1553 247.489 82.314 247.218C82.482 246.947 82.566 246.625 82.566 246.252C82.566 245.879 82.482 245.557 82.314 245.286C82.1553 245.015 81.9313 244.805 81.642 244.656C81.362 244.507 81.04 244.432 80.676 244.432H78.03V243.284H80.76C81.3573 243.284 81.8893 243.405 82.356 243.648C82.832 243.891 83.2053 244.236 83.476 244.684C83.756 245.123 83.896 245.645 83.896 246.252C83.896 246.849 83.756 247.372 83.476 247.82C83.2053 248.259 82.832 248.604 82.356 248.856C81.8893 249.099 81.3573 249.22 80.76 249.22H78.03ZM77.148 253V243.284H78.464V253H77.148ZM88.3214 253.14C87.6588 253.14 87.0614 252.991 86.5294 252.692C85.9974 252.384 85.5774 251.969 85.2694 251.446C84.9614 250.923 84.8074 250.331 84.8074 249.668C84.8074 249.015 84.9568 248.427 85.2554 247.904C85.5634 247.381 85.9741 246.971 86.4874 246.672C87.0101 246.364 87.5934 246.21 88.2374 246.21C88.8534 246.21 89.3948 246.35 89.8614 246.63C90.3374 246.91 90.7061 247.297 90.9674 247.792C91.2381 248.287 91.3734 248.847 91.3734 249.472C91.3734 249.565 91.3688 249.668 91.3594 249.78C91.3501 249.883 91.3314 250.004 91.3034 250.144H85.6894V249.094H90.6314L90.1694 249.5C90.1694 249.052 90.0901 248.674 89.9314 248.366C89.7728 248.049 89.5488 247.806 89.2594 247.638C88.9701 247.461 88.6201 247.372 88.2094 247.372C87.7801 247.372 87.4021 247.465 87.0754 247.652C86.7488 247.839 86.4968 248.1 86.3194 248.436C86.1421 248.772 86.0534 249.169 86.0534 249.626C86.0534 250.093 86.1468 250.503 86.3334 250.858C86.5201 251.203 86.7861 251.474 87.1314 251.67C87.4768 251.857 87.8734 251.95 88.3214 251.95C88.6948 251.95 89.0354 251.885 89.3434 251.754C89.6608 251.623 89.9314 251.427 90.1554 251.166L90.9674 251.992C90.6501 252.365 90.2581 252.65 89.7914 252.846C89.3341 253.042 88.8441 253.14 88.3214 253.14ZM92.9573 253V246.35H94.2173V253H92.9573ZM94.2173 249.206L93.7413 248.996C93.7413 248.147 93.9373 247.47 94.3293 246.966C94.7213 246.462 95.2859 246.21 96.0233 246.21C96.3593 246.21 96.6626 246.271 96.9333 246.392C97.2039 246.504 97.4559 246.695 97.6893 246.966L96.8633 247.82C96.7233 247.671 96.5693 247.563 96.4013 247.498C96.2333 247.433 96.0373 247.4 95.8133 247.4C95.3466 247.4 94.9639 247.549 94.6653 247.848C94.3666 248.147 94.2173 248.599 94.2173 249.206ZM100.75 253.14C100.377 253.14 100.022 253.093 99.686 253C99.3594 252.897 99.056 252.757 98.776 252.58C98.496 252.393 98.2534 252.174 98.048 251.922L98.86 251.11C99.1027 251.409 99.3827 251.633 99.7 251.782C100.017 251.922 100.372 251.992 100.764 251.992C101.156 251.992 101.459 251.927 101.674 251.796C101.889 251.656 101.996 251.465 101.996 251.222C101.996 250.979 101.907 250.793 101.73 250.662C101.562 250.522 101.343 250.41 101.072 250.326C100.801 250.233 100.512 250.144 100.204 250.06C99.9054 249.967 99.6207 249.85 99.35 249.71C99.0794 249.57 98.8554 249.379 98.678 249.136C98.51 248.893 98.426 248.571 98.426 248.17C98.426 247.769 98.524 247.423 98.72 247.134C98.916 246.835 99.1867 246.607 99.532 246.448C99.8867 246.289 100.311 246.21 100.806 246.21C101.329 246.21 101.791 246.303 102.192 246.49C102.603 246.667 102.939 246.938 103.2 247.302L102.388 248.114C102.201 247.871 101.968 247.685 101.688 247.554C101.417 247.423 101.109 247.358 100.764 247.358C100.4 247.358 100.12 247.423 99.924 247.554C99.7374 247.675 99.644 247.848 99.644 248.072C99.644 248.296 99.728 248.469 99.896 248.59C100.064 248.711 100.283 248.814 100.554 248.898C100.834 248.982 101.123 249.071 101.422 249.164C101.721 249.248 102.005 249.365 102.276 249.514C102.547 249.663 102.766 249.864 102.934 250.116C103.111 250.368 103.2 250.699 103.2 251.11C103.2 251.735 102.976 252.23 102.528 252.594C102.089 252.958 101.497 253.14 100.75 253.14ZM107.859 253.14C107.205 253.14 106.617 252.986 106.095 252.678C105.572 252.37 105.157 251.955 104.849 251.432C104.541 250.9 104.387 250.307 104.387 249.654C104.387 249.01 104.541 248.431 104.849 247.918C105.157 247.395 105.572 246.98 106.095 246.672C106.617 246.364 107.205 246.21 107.859 246.21C108.503 246.21 109.086 246.364 109.609 246.672C110.141 246.971 110.561 247.381 110.869 247.904C111.177 248.427 111.331 249.01 111.331 249.654C111.331 250.307 111.177 250.9 110.869 251.432C110.561 251.955 110.141 252.37 109.609 252.678C109.086 252.986 108.503 253.14 107.859 253.14ZM107.859 251.922C108.279 251.922 108.652 251.824 108.979 251.628C109.305 251.432 109.562 251.166 109.749 250.83C109.935 250.485 110.029 250.093 110.029 249.654C110.029 249.225 109.931 248.842 109.735 248.506C109.548 248.17 109.291 247.909 108.965 247.722C108.647 247.526 108.279 247.428 107.859 247.428C107.439 247.428 107.065 247.526 106.739 247.722C106.412 247.909 106.155 248.17 105.969 248.506C105.782 248.842 105.689 249.225 105.689 249.654C105.689 250.093 105.782 250.485 105.969 250.83C106.155 251.166 106.412 251.432 106.739 251.628C107.065 251.824 107.439 251.922 107.859 251.922ZM117.664 253V249.122C117.664 248.618 117.506 248.203 117.188 247.876C116.871 247.549 116.46 247.386 115.956 247.386C115.62 247.386 115.322 247.461 115.06 247.61C114.799 247.759 114.594 247.965 114.444 248.226C114.295 248.487 114.22 248.786 114.22 249.122L113.702 248.828C113.702 248.324 113.814 247.876 114.038 247.484C114.262 247.092 114.575 246.784 114.976 246.56C115.378 246.327 115.83 246.21 116.334 246.21C116.838 246.21 117.282 246.336 117.664 246.588C118.056 246.84 118.364 247.171 118.588 247.582C118.812 247.983 118.924 248.413 118.924 248.87V253H117.664ZM112.96 253V246.35H114.22V253H112.96ZM123.668 253.14C123.062 253.14 122.511 252.991 122.016 252.692C121.522 252.384 121.13 251.969 120.84 251.446C120.56 250.923 120.42 250.335 120.42 249.682C120.42 249.029 120.56 248.441 120.84 247.918C121.13 247.395 121.517 246.98 122.002 246.672C122.497 246.364 123.052 246.21 123.668 246.21C124.172 246.21 124.62 246.317 125.012 246.532C125.414 246.737 125.736 247.027 125.978 247.4C126.221 247.764 126.356 248.189 126.384 248.674V250.676C126.356 251.152 126.221 251.577 125.978 251.95C125.745 252.323 125.428 252.617 125.026 252.832C124.634 253.037 124.182 253.14 123.668 253.14ZM123.878 251.95C124.504 251.95 125.008 251.74 125.39 251.32C125.773 250.891 125.964 250.345 125.964 249.682C125.964 249.225 125.876 248.828 125.698 248.492C125.53 248.147 125.288 247.881 124.97 247.694C124.653 247.498 124.284 247.4 123.864 247.4C123.444 247.4 123.071 247.498 122.744 247.694C122.427 247.89 122.175 248.161 121.988 248.506C121.811 248.842 121.722 249.229 121.722 249.668C121.722 250.116 121.811 250.513 121.988 250.858C122.175 251.194 122.432 251.46 122.758 251.656C123.085 251.852 123.458 251.95 123.878 251.95ZM125.88 253V251.208L126.118 249.584L125.88 247.974V246.35H127.154V253H125.88ZM129.199 253V243.004H130.459V253H129.199Z" fill="#7B49E5"/>
<path d="M168.293 252V243.564H169.901V252H168.293ZM166.637 244.98V243.564H169.781V244.98H166.637ZM172.244 252L174.812 248.424L175.4 248.244C175.304 248.428 175.192 248.592 175.064 248.736C174.944 248.872 174.788 248.976 174.596 249.048C174.404 249.12 174.152 249.156 173.84 249.156C173.344 249.156 172.888 249.04 172.472 248.808C172.064 248.568 171.736 248.24 171.488 247.824C171.24 247.408 171.116 246.932 171.116 246.396C171.116 245.852 171.252 245.356 171.524 244.908C171.796 244.452 172.164 244.092 172.628 243.828C173.092 243.564 173.608 243.432 174.176 243.432C174.752 243.432 175.268 243.564 175.724 243.828C176.188 244.092 176.552 244.444 176.816 244.884C177.088 245.324 177.224 245.816 177.224 246.36C177.224 247.104 176.964 247.856 176.444 248.616L174.104 252H172.244ZM174.176 247.908C174.456 247.908 174.704 247.844 174.92 247.716C175.136 247.588 175.304 247.412 175.424 247.188C175.552 246.956 175.616 246.7 175.616 246.42C175.616 246.124 175.552 245.864 175.424 245.64C175.304 245.416 175.136 245.24 174.92 245.112C174.704 244.976 174.456 244.908 174.176 244.908C173.896 244.908 173.644 244.976 173.42 245.112C173.204 245.24 173.032 245.416 172.904 245.64C172.784 245.864 172.724 246.124 172.724 246.42C172.724 246.708 172.784 246.964 172.904 247.188C173.032 247.412 173.208 247.588 173.432 247.716C173.656 247.844 173.904 247.908 174.176 247.908ZM179.76 246.912C179.448 246.912 179.156 246.836 178.884 246.684C178.62 246.524 178.412 246.312 178.26 246.048C178.108 245.784 178.032 245.492 178.032 245.172C178.032 244.844 178.108 244.552 178.26 244.296C178.412 244.04 178.62 243.836 178.884 243.684C179.148 243.524 179.44 243.444 179.76 243.444C180.088 243.444 180.384 243.524 180.648 243.684C180.92 243.836 181.132 244.04 181.284 244.296C181.436 244.552 181.512 244.844 181.512 245.172C181.512 245.492 181.432 245.784 181.272 246.048C181.12 246.312 180.912 246.524 180.648 246.684C180.392 246.836 180.096 246.912 179.76 246.912ZM179.76 245.772C179.944 245.772 180.088 245.716 180.192 245.604C180.296 245.492 180.348 245.348 180.348 245.172C180.348 244.996 180.292 244.852 180.18 244.74C180.076 244.628 179.936 244.572 179.76 244.572C179.592 244.572 179.456 244.628 179.352 244.74C179.248 244.852 179.196 244.996 179.196 245.172C179.196 245.348 179.248 245.492 179.352 245.604C179.456 245.716 179.592 245.772 179.76 245.772ZM183.456 252.12C183.136 252.12 182.844 252.044 182.58 251.892C182.316 251.732 182.104 251.524 181.944 251.268C181.792 251.004 181.716 250.708 181.716 250.38C181.716 250.052 181.792 249.76 181.944 249.504C182.104 249.248 182.312 249.044 182.568 248.892C182.832 248.732 183.128 248.652 183.456 248.652C183.784 248.652 184.08 248.732 184.344 248.892C184.608 249.044 184.816 249.248 184.968 249.504C185.128 249.76 185.208 250.052 185.208 250.38C185.208 250.708 185.128 251.004 184.968 251.268C184.816 251.524 184.608 251.732 184.344 251.892C184.088 252.044 183.792 252.12 183.456 252.12ZM183.456 250.98C183.632 250.98 183.776 250.924 183.888 250.812C184 250.7 184.056 250.556 184.056 250.38C184.056 250.212 183.996 250.072 183.876 249.96C183.764 249.848 183.624 249.792 183.456 249.792C183.288 249.792 183.148 249.848 183.036 249.96C182.932 250.072 182.88 250.212 182.88 250.38C182.88 250.556 182.932 250.7 183.036 250.812C183.148 250.924 183.288 250.98 183.456 250.98ZM178.26 252L183.492 243.564H184.98L179.748 252H178.26Z" fill="#FF8D85"/>
<path d="M198.03 253V251.852H200.97C201.53 251.852 201.969 251.689 202.286 251.362C202.603 251.026 202.762 250.625 202.762 250.158C202.762 249.841 202.692 249.556 202.552 249.304C202.412 249.043 202.207 248.837 201.936 248.688C201.675 248.539 201.367 248.464 201.012 248.464H198.03V247.316H200.816C201.283 247.316 201.651 247.195 201.922 246.952C202.202 246.7 202.342 246.341 202.342 245.874C202.342 245.407 202.197 245.053 201.908 244.81C201.619 244.558 201.236 244.432 200.76 244.432H198.03V243.284H200.788C201.423 243.284 201.95 243.401 202.37 243.634C202.799 243.858 203.121 244.157 203.336 244.53C203.56 244.903 203.672 245.314 203.672 245.762C203.672 246.285 203.527 246.742 203.238 247.134C202.958 247.526 202.543 247.834 201.992 248.058L202.104 247.638C202.729 247.862 203.215 248.203 203.56 248.66C203.915 249.108 204.092 249.64 204.092 250.256C204.092 250.769 203.966 251.231 203.714 251.642C203.462 252.053 203.098 252.384 202.622 252.636C202.155 252.879 201.581 253 200.9 253H198.03ZM197.148 253V243.284H198.464V253H197.148ZM208.545 253.14C207.994 253.14 207.499 253.019 207.061 252.776C206.631 252.524 206.295 252.179 206.053 251.74C205.81 251.301 205.689 250.793 205.689 250.214V246.35H206.949V250.158C206.949 250.522 207.009 250.839 207.131 251.11C207.261 251.371 207.448 251.572 207.691 251.712C207.933 251.852 208.218 251.922 208.545 251.922C209.039 251.922 209.427 251.768 209.707 251.46C209.987 251.143 210.127 250.709 210.127 250.158V246.35H211.387V250.214C211.387 250.793 211.265 251.301 211.023 251.74C210.78 252.179 210.444 252.524 210.015 252.776C209.595 253.019 209.105 253.14 208.545 253.14ZM215.399 253.14C215.026 253.14 214.671 253.093 214.335 253C214.009 252.897 213.705 252.757 213.425 252.58C213.145 252.393 212.903 252.174 212.697 251.922L213.509 251.11C213.752 251.409 214.032 251.633 214.349 251.782C214.667 251.922 215.021 251.992 215.413 251.992C215.805 251.992 216.109 251.927 216.323 251.796C216.538 251.656 216.645 251.465 216.645 251.222C216.645 250.979 216.557 250.793 216.379 250.662C216.211 250.522 215.992 250.41 215.721 250.326C215.451 250.233 215.161 250.144 214.853 250.06C214.555 249.967 214.27 249.85 213.999 249.71C213.729 249.57 213.505 249.379 213.327 249.136C213.159 248.893 213.075 248.571 213.075 248.17C213.075 247.769 213.173 247.423 213.369 247.134C213.565 246.835 213.836 246.607 214.181 246.448C214.536 246.289 214.961 246.21 215.455 246.21C215.978 246.21 216.44 246.303 216.841 246.49C217.252 246.667 217.588 246.938 217.849 247.302L217.037 248.114C216.851 247.871 216.617 247.685 216.337 247.554C216.067 247.423 215.759 247.358 215.413 247.358C215.049 247.358 214.769 247.423 214.573 247.554C214.387 247.675 214.293 247.848 214.293 248.072C214.293 248.296 214.377 248.469 214.545 248.59C214.713 248.711 214.933 248.814 215.203 248.898C215.483 248.982 215.773 249.071 216.071 249.164C216.37 249.248 216.655 249.365 216.925 249.514C217.196 249.663 217.415 249.864 217.583 250.116C217.761 250.368 217.849 250.699 217.849 251.11C217.849 251.735 217.625 252.23 217.177 252.594C216.739 252.958 216.146 253.14 215.399 253.14ZM221.584 253.14C221.211 253.14 220.856 253.093 220.52 253C220.193 252.897 219.89 252.757 219.61 252.58C219.33 252.393 219.087 252.174 218.882 251.922L219.694 251.11C219.937 251.409 220.217 251.633 220.534 251.782C220.851 251.922 221.206 251.992 221.598 251.992C221.99 251.992 222.293 251.927 222.508 251.796C222.723 251.656 222.83 251.465 222.83 251.222C222.83 250.979 222.741 250.793 222.564 250.662C222.396 250.522 222.177 250.41 221.906 250.326C221.635 250.233 221.346 250.144 221.038 250.06C220.739 249.967 220.455 249.85 220.184 249.71C219.913 249.57 219.689 249.379 219.512 249.136C219.344 248.893 219.26 248.571 219.26 248.17C219.26 247.769 219.358 247.423 219.554 247.134C219.75 246.835 220.021 246.607 220.366 246.448C220.721 246.289 221.145 246.21 221.64 246.21C222.163 246.21 222.625 246.303 223.026 246.49C223.437 246.667 223.773 246.938 224.034 247.302L223.222 248.114C223.035 247.871 222.802 247.685 222.522 247.554C222.251 247.423 221.943 247.358 221.598 247.358C221.234 247.358 220.954 247.423 220.758 247.554C220.571 247.675 220.478 247.848 220.478 248.072C220.478 248.296 220.562 248.469 220.73 248.59C220.898 248.711 221.117 248.814 221.388 248.898C221.668 248.982 221.957 249.071 222.256 249.164C222.555 249.248 222.839 249.365 223.11 249.514C223.381 249.663 223.6 249.864 223.768 250.116C223.945 250.368 224.034 250.699 224.034 251.11C224.034 251.735 223.81 252.23 223.362 252.594C222.923 252.958 222.331 253.14 221.584 253.14ZM225.669 253V246.35H226.929V253H225.669ZM226.299 245.02C226.065 245.02 225.874 244.945 225.725 244.796C225.575 244.637 225.501 244.441 225.501 244.208C225.501 243.984 225.575 243.797 225.725 243.648C225.874 243.489 226.065 243.41 226.299 243.41C226.532 243.41 226.723 243.489 226.873 243.648C227.022 243.797 227.097 243.984 227.097 244.208C227.097 244.441 227.022 244.637 226.873 244.796C226.723 244.945 226.532 245.02 226.299 245.02ZM233.699 253V249.122C233.699 248.618 233.541 248.203 233.223 247.876C232.906 247.549 232.495 247.386 231.991 247.386C231.655 247.386 231.357 247.461 231.095 247.61C230.834 247.759 230.629 247.965 230.479 248.226C230.33 248.487 230.255 248.786 230.255 249.122L229.737 248.828C229.737 248.324 229.849 247.876 230.073 247.484C230.297 247.092 230.61 246.784 231.011 246.56C231.413 246.327 231.865 246.21 232.369 246.21C232.873 246.21 233.317 246.336 233.699 246.588C234.091 246.84 234.399 247.171 234.623 247.582C234.847 247.983 234.959 248.413 234.959 248.87V253H233.699ZM228.995 253V246.35H230.255V253H228.995ZM239.955 253.14C239.293 253.14 238.695 252.991 238.163 252.692C237.631 252.384 237.211 251.969 236.903 251.446C236.595 250.923 236.441 250.331 236.441 249.668C236.441 249.015 236.591 248.427 236.889 247.904C237.197 247.381 237.608 246.971 238.121 246.672C238.644 246.364 239.227 246.21 239.871 246.21C240.487 246.21 241.029 246.35 241.495 246.63C241.971 246.91 242.34 247.297 242.601 247.792C242.872 248.287 243.007 248.847 243.007 249.472C243.007 249.565 243.003 249.668 242.993 249.78C242.984 249.883 242.965 250.004 242.937 250.144H237.323V249.094H242.265L241.803 249.5C241.803 249.052 241.724 248.674 241.565 248.366C241.407 248.049 241.183 247.806 240.893 247.638C240.604 247.461 240.254 247.372 239.843 247.372C239.414 247.372 239.036 247.465 238.709 247.652C238.383 247.839 238.131 248.1 237.953 248.436C237.776 248.772 237.687 249.169 237.687 249.626C237.687 250.093 237.781 250.503 237.967 250.858C238.154 251.203 238.42 251.474 238.765 251.67C239.111 251.857 239.507 251.95 239.955 251.95C240.329 251.95 240.669 251.885 240.977 251.754C241.295 251.623 241.565 251.427 241.789 251.166L242.601 251.992C242.284 252.365 241.892 252.65 241.425 252.846C240.968 253.042 240.478 253.14 239.955 253.14ZM246.705 253.14C246.332 253.14 245.977 253.093 245.641 253C245.315 252.897 245.011 252.757 244.731 252.58C244.451 252.393 244.209 252.174 244.003 251.922L244.815 251.11C245.058 251.409 245.338 251.633 245.655 251.782C245.973 251.922 246.327 251.992 246.719 251.992C247.111 251.992 247.415 251.927 247.629 251.796C247.844 251.656 247.951 251.465 247.951 251.222C247.951 250.979 247.863 250.793 247.685 250.662C247.517 250.522 247.298 250.41 247.027 250.326C246.757 250.233 246.467 250.144 246.159 250.06C245.861 249.967 245.576 249.85 245.305 249.71C245.035 249.57 244.811 249.379 244.633 249.136C244.465 248.893 244.381 248.571 244.381 248.17C244.381 247.769 244.479 247.423 244.675 247.134C244.871 246.835 245.142 246.607 245.487 246.448C245.842 246.289 246.267 246.21 246.761 246.21C247.284 246.21 247.746 246.303 248.147 246.49C248.558 246.667 248.894 246.938 249.155 247.302L248.343 248.114C248.157 247.871 247.923 247.685 247.643 247.554C247.373 247.423 247.065 247.358 246.719 247.358C246.355 247.358 246.075 247.423 245.879 247.554C245.693 247.675 245.599 247.848 245.599 248.072C245.599 248.296 245.683 248.469 245.851 248.59C246.019 248.711 246.239 248.814 246.509 248.898C246.789 248.982 247.079 249.071 247.377 249.164C247.676 249.248 247.961 249.365 248.231 249.514C248.502 249.663 248.721 249.864 248.889 250.116C249.067 250.368 249.155 250.699 249.155 251.11C249.155 251.735 248.931 252.23 248.483 252.594C248.045 252.958 247.452 253.14 246.705 253.14Z" fill="#F88284"/>
<path d="M48.2933 288V279.564H49.9013V288H48.2933ZM46.6373 280.98V279.564H49.7813V280.98H46.6373ZM54.1756 288.12C53.5996 288.12 53.0796 287.992 52.6156 287.736C52.1596 287.472 51.7956 287.12 51.5236 286.68C51.2596 286.232 51.1276 285.736 51.1276 285.192C51.1276 284.448 51.3836 283.7 51.8956 282.948L54.2356 279.564H56.1076L53.5516 283.14L52.9516 283.308C53.0396 283.124 53.1436 282.964 53.2636 282.828C53.3916 282.692 53.5556 282.588 53.7556 282.516C53.9556 282.444 54.2076 282.408 54.5116 282.408C55.0156 282.408 55.4716 282.528 55.8796 282.768C56.2876 283 56.6156 283.324 56.8636 283.74C57.1116 284.148 57.2356 284.62 57.2356 285.156C57.2356 285.708 57.0996 286.208 56.8276 286.656C56.5556 287.104 56.1876 287.46 55.7236 287.724C55.2596 287.988 54.7436 288.12 54.1756 288.12ZM54.1756 286.656C54.4556 286.656 54.7036 286.592 54.9196 286.464C55.1356 286.328 55.3076 286.148 55.4356 285.924C55.5636 285.692 55.6276 285.432 55.6276 285.144C55.6276 284.856 55.5636 284.6 55.4356 284.376C55.3076 284.144 55.1356 283.964 54.9196 283.836C54.7036 283.708 54.4556 283.644 54.1756 283.644C53.8956 283.644 53.6436 283.712 53.4196 283.848C53.2036 283.976 53.0316 284.152 52.9036 284.376C52.7836 284.6 52.7236 284.856 52.7236 285.144C52.7236 285.432 52.7836 285.692 52.9036 285.924C53.0316 286.148 53.2036 286.328 53.4196 286.464C53.6436 286.592 53.8956 286.656 54.1756 286.656ZM59.7599 282.912C59.4479 282.912 59.1559 282.836 58.8839 282.684C58.6199 282.524 58.4119 282.312 58.2599 282.048C58.1079 281.784 58.0319 281.492 58.0319 281.172C58.0319 280.844 58.1079 280.552 58.2599 280.296C58.4119 280.04 58.6199 279.836 58.8839 279.684C59.1479 279.524 59.4399 279.444 59.7599 279.444C60.0879 279.444 60.3839 279.524 60.6479 279.684C60.9199 279.836 61.1319 280.04 61.2839 280.296C61.4359 280.552 61.5119 280.844 61.5119 281.172C61.5119 281.492 61.4319 281.784 61.2719 282.048C61.1199 282.312 60.9119 282.524 60.6479 282.684C60.3919 282.836 60.0959 282.912 59.7599 282.912ZM59.7599 281.772C59.9439 281.772 60.0879 281.716 60.1919 281.604C60.2959 281.492 60.3479 281.348 60.3479 281.172C60.3479 280.996 60.2919 280.852 60.1799 280.74C60.0759 280.628 59.9359 280.572 59.7599 280.572C59.5919 280.572 59.4559 280.628 59.3519 280.74C59.2479 280.852 59.1959 280.996 59.1959 281.172C59.1959 281.348 59.2479 281.492 59.3519 281.604C59.4559 281.716 59.5919 281.772 59.7599 281.772ZM63.4559 288.12C63.1359 288.12 62.8439 288.044 62.5799 287.892C62.3159 287.732 62.1039 287.524 61.9439 287.268C61.7919 287.004 61.7159 286.708 61.7159 286.38C61.7159 286.052 61.7919 285.76 61.9439 285.504C62.1039 285.248 62.3119 285.044 62.5679 284.892C62.8319 284.732 63.1279 284.652 63.4559 284.652C63.7839 284.652 64.0799 284.732 64.3439 284.892C64.6079 285.044 64.8159 285.248 64.9679 285.504C65.1279 285.76 65.2079 286.052 65.2079 286.38C65.2079 286.708 65.1279 287.004 64.9679 287.268C64.8159 287.524 64.6079 287.732 64.3439 287.892C64.0879 288.044 63.7919 288.12 63.4559 288.12ZM63.4559 286.98C63.6319 286.98 63.7759 286.924 63.8879 286.812C63.9999 286.7 64.0559 286.556 64.0559 286.38C64.0559 286.212 63.9959 286.072 63.8759 285.96C63.7639 285.848 63.6239 285.792 63.4559 285.792C63.2879 285.792 63.1479 285.848 63.0359 285.96C62.9319 286.072 62.8799 286.212 62.8799 286.38C62.8799 286.556 62.9319 286.7 63.0359 286.812C63.1479 286.924 63.2879 286.98 63.4559 286.98ZM58.2599 288L63.4919 279.564H64.9799L59.7479 288H58.2599Z" fill="#158FAD"/>
<path d="M77.148 289V279.284H78.464V289H77.148ZM78.044 284.73V283.526H83.112V284.73H78.044ZM78.044 280.488V279.284H83.35V280.488H78.044ZM85.0777 289V282.35H86.3377V289H85.0777ZM85.7077 281.02C85.4744 281.02 85.283 280.945 85.1337 280.796C84.9844 280.637 84.9097 280.441 84.9097 280.208C84.9097 279.984 84.9844 279.797 85.1337 279.648C85.283 279.489 85.4744 279.41 85.7077 279.41C85.941 279.41 86.1324 279.489 86.2817 279.648C86.431 279.797 86.5057 279.984 86.5057 280.208C86.5057 280.441 86.431 280.637 86.2817 280.796C86.1324 280.945 85.941 281.02 85.7077 281.02ZM89.4265 289V279.564H90.6865V289H89.4265ZM87.7885 283.498V282.35H92.3245V283.498H87.7885ZM98.4728 289V285.122C98.4728 284.618 98.3142 284.203 97.9968 283.876C97.6795 283.549 97.2688 283.386 96.7648 283.386C96.4288 283.386 96.1302 283.461 95.8688 283.61C95.6075 283.759 95.4022 283.965 95.2528 284.226C95.1035 284.487 95.0288 284.786 95.0288 285.122L94.5108 284.828C94.5108 284.324 94.6228 283.876 94.8468 283.484C95.0708 283.092 95.3835 282.784 95.7848 282.56C96.1862 282.327 96.6388 282.21 97.1428 282.21C97.6468 282.21 98.0902 282.336 98.4728 282.588C98.8648 282.84 99.1728 283.171 99.3968 283.582C99.6208 283.983 99.7328 284.413 99.7328 284.87V289H98.4728ZM93.7688 289V282.35H95.0288V289H93.7688ZM104.729 289.14C104.066 289.14 103.469 288.991 102.937 288.692C102.405 288.384 101.985 287.969 101.677 287.446C101.369 286.923 101.215 286.331 101.215 285.668C101.215 285.015 101.364 284.427 101.663 283.904C101.971 283.381 102.381 282.971 102.895 282.672C103.417 282.364 104.001 282.21 104.645 282.21C105.261 282.21 105.802 282.35 106.269 282.63C106.745 282.91 107.113 283.297 107.375 283.792C107.645 284.287 107.781 284.847 107.781 285.472C107.781 285.565 107.776 285.668 107.767 285.78C107.757 285.883 107.739 286.004 107.711 286.144H102.097V285.094H107.039L106.577 285.5C106.577 285.052 106.497 284.674 106.339 284.366C106.18 284.049 105.956 283.806 105.667 283.638C105.377 283.461 105.027 283.372 104.617 283.372C104.187 283.372 103.809 283.465 103.483 283.652C103.156 283.839 102.904 284.1 102.727 284.436C102.549 284.772 102.461 285.169 102.461 285.626C102.461 286.093 102.554 286.503 102.741 286.858C102.927 287.203 103.193 287.474 103.539 287.67C103.884 287.857 104.281 287.95 104.729 287.95C105.102 287.95 105.443 287.885 105.751 287.754C106.068 287.623 106.339 287.427 106.563 287.166L107.375 287.992C107.057 288.365 106.665 288.65 106.199 288.846C105.741 289.042 105.251 289.14 104.729 289.14ZM111.479 289.14C111.105 289.14 110.751 289.093 110.415 289C110.088 288.897 109.785 288.757 109.505 288.58C109.225 288.393 108.982 288.174 108.777 287.922L109.589 287.11C109.831 287.409 110.111 287.633 110.429 287.782C110.746 287.922 111.101 287.992 111.493 287.992C111.885 287.992 112.188 287.927 112.403 287.796C112.617 287.656 112.725 287.465 112.725 287.222C112.725 286.979 112.636 286.793 112.459 286.662C112.291 286.522 112.071 286.41 111.801 286.326C111.53 286.233 111.241 286.144 110.933 286.06C110.634 285.967 110.349 285.85 110.079 285.71C109.808 285.57 109.584 285.379 109.407 285.136C109.239 284.893 109.155 284.571 109.155 284.17C109.155 283.769 109.253 283.423 109.449 283.134C109.645 282.835 109.915 282.607 110.261 282.448C110.615 282.289 111.04 282.21 111.535 282.21C112.057 282.21 112.519 282.303 112.921 282.49C113.331 282.667 113.667 282.938 113.929 283.302L113.117 284.114C112.93 283.871 112.697 283.685 112.417 283.554C112.146 283.423 111.838 283.358 111.493 283.358C111.129 283.358 110.849 283.423 110.653 283.554C110.466 283.675 110.373 283.848 110.373 284.072C110.373 284.296 110.457 284.469 110.625 284.59C110.793 284.711 111.012 284.814 111.283 284.898C111.563 284.982 111.852 285.071 112.151 285.164C112.449 285.248 112.734 285.365 113.005 285.514C113.275 285.663 113.495 285.864 113.663 286.116C113.84 286.368 113.929 286.699 113.929 287.11C113.929 287.735 113.705 288.23 113.257 288.594C112.818 288.958 112.225 289.14 111.479 289.14ZM117.663 289.14C117.29 289.14 116.935 289.093 116.599 289C116.273 288.897 115.969 288.757 115.689 288.58C115.409 288.393 115.167 288.174 114.961 287.922L115.773 287.11C116.016 287.409 116.296 287.633 116.613 287.782C116.931 287.922 117.285 287.992 117.677 287.992C118.069 287.992 118.373 287.927 118.587 287.796C118.802 287.656 118.909 287.465 118.909 287.222C118.909 286.979 118.821 286.793 118.643 286.662C118.475 286.522 118.256 286.41 117.985 286.326C117.715 286.233 117.425 286.144 117.117 286.06C116.819 285.967 116.534 285.85 116.263 285.71C115.993 285.57 115.769 285.379 115.591 285.136C115.423 284.893 115.339 284.571 115.339 284.17C115.339 283.769 115.437 283.423 115.633 283.134C115.829 282.835 116.1 282.607 116.445 282.448C116.8 282.289 117.225 282.21 117.719 282.21C118.242 282.21 118.704 282.303 119.105 282.49C119.516 282.667 119.852 282.938 120.113 283.302L119.301 284.114C119.115 283.871 118.881 283.685 118.601 283.554C118.331 283.423 118.023 283.358 117.677 283.358C117.313 283.358 117.033 283.423 116.837 283.554C116.651 283.675 116.557 283.848 116.557 284.072C116.557 284.296 116.641 284.469 116.809 284.59C116.977 284.711 117.197 284.814 117.467 284.898C117.747 284.982 118.037 285.071 118.335 285.164C118.634 285.248 118.919 285.365 119.189 285.514C119.46 285.663 119.679 285.864 119.847 286.116C120.025 286.368 120.113 286.699 120.113 287.11C120.113 287.735 119.889 288.23 119.441 288.594C119.003 288.958 118.41 289.14 117.663 289.14Z" fill="#158FAD"/>
<path d="M171.982 288.12C171.382 288.12 170.862 288.016 170.422 287.808C169.99 287.6 169.65 287.308 169.402 286.932C169.162 286.556 169.042 286.132 169.042 285.66C169.042 285.268 169.118 284.912 169.27 284.592C169.422 284.272 169.638 284.004 169.918 283.788C170.206 283.564 170.542 283.408 170.926 283.32L170.89 283.716C170.57 283.636 170.298 283.496 170.074 283.296C169.85 283.096 169.682 282.86 169.57 282.588C169.458 282.308 169.402 282.02 169.402 281.724C169.402 281.268 169.51 280.868 169.726 280.524C169.95 280.18 170.254 279.912 170.638 279.72C171.03 279.528 171.478 279.432 171.982 279.432C172.486 279.432 172.93 279.528 173.314 279.72C173.698 279.912 173.998 280.18 174.214 280.524C174.438 280.868 174.55 281.268 174.55 281.724C174.55 282.02 174.494 282.308 174.382 282.588C174.27 282.86 174.102 283.096 173.878 283.296C173.662 283.496 173.39 283.636 173.062 283.716L173.026 283.32C173.418 283.408 173.754 283.564 174.034 283.788C174.314 284.004 174.53 284.272 174.682 284.592C174.834 284.912 174.91 285.268 174.91 285.66C174.91 286.132 174.79 286.556 174.55 286.932C174.31 287.308 173.97 287.6 173.53 287.808C173.09 288.016 172.574 288.12 171.982 288.12ZM171.982 286.692C172.246 286.692 172.482 286.64 172.69 286.536C172.898 286.424 173.058 286.272 173.17 286.08C173.29 285.888 173.35 285.672 173.35 285.432C173.35 285.184 173.29 284.968 173.17 284.784C173.058 284.592 172.898 284.444 172.69 284.34C172.482 284.228 172.246 284.172 171.982 284.172C171.71 284.172 171.47 284.228 171.262 284.34C171.062 284.444 170.902 284.592 170.782 284.784C170.662 284.968 170.602 285.184 170.602 285.432C170.602 285.672 170.662 285.888 170.782 286.08C170.902 286.272 171.062 286.424 171.262 286.536C171.47 286.64 171.71 286.692 171.982 286.692ZM171.982 282.936C172.294 282.936 172.55 282.836 172.75 282.636C172.95 282.436 173.05 282.18 173.05 281.868C173.05 281.548 172.95 281.288 172.75 281.088C172.55 280.888 172.294 280.788 171.982 280.788C171.67 280.788 171.41 280.888 171.202 281.088C171.002 281.288 170.902 281.544 170.902 281.856C170.902 282.176 171.002 282.436 171.202 282.636C171.41 282.836 171.67 282.936 171.982 282.936ZM177.475 282.912C177.163 282.912 176.871 282.836 176.599 282.684C176.335 282.524 176.127 282.312 175.975 282.048C175.823 281.784 175.747 281.492 175.747 281.172C175.747 280.844 175.823 280.552 175.975 280.296C176.127 280.04 176.335 279.836 176.599 279.684C176.863 279.524 177.155 279.444 177.475 279.444C177.803 279.444 178.099 279.524 178.363 279.684C178.635 279.836 178.847 280.04 178.999 280.296C179.151 280.552 179.227 280.844 179.227 281.172C179.227 281.492 179.147 281.784 178.987 282.048C178.835 282.312 178.627 282.524 178.363 282.684C178.107 282.836 177.811 282.912 177.475 282.912ZM177.475 281.772C177.659 281.772 177.803 281.716 177.907 281.604C178.011 281.492 178.063 281.348 178.063 281.172C178.063 280.996 178.007 280.852 177.895 280.74C177.791 280.628 177.651 280.572 177.475 280.572C177.307 280.572 177.171 280.628 177.067 280.74C176.963 280.852 176.911 280.996 176.911 281.172C176.911 281.348 176.963 281.492 177.067 281.604C177.171 281.716 177.307 281.772 177.475 281.772ZM181.171 288.12C180.851 288.12 180.559 288.044 180.295 287.892C180.031 287.732 179.819 287.524 179.659 287.268C179.507 287.004 179.431 286.708 179.431 286.38C179.431 286.052 179.507 285.76 179.659 285.504C179.819 285.248 180.027 285.044 180.283 284.892C180.547 284.732 180.843 284.652 181.171 284.652C181.499 284.652 181.795 284.732 182.059 284.892C182.323 285.044 182.531 285.248 182.683 285.504C182.843 285.76 182.923 286.052 182.923 286.38C182.923 286.708 182.843 287.004 182.683 287.268C182.531 287.524 182.323 287.732 182.059 287.892C181.803 288.044 181.507 288.12 181.171 288.12ZM181.171 286.98C181.347 286.98 181.491 286.924 181.603 286.812C181.715 286.7 181.771 286.556 181.771 286.38C181.771 286.212 181.711 286.072 181.591 285.96C181.479 285.848 181.339 285.792 181.171 285.792C181.003 285.792 180.863 285.848 180.751 285.96C180.647 286.072 180.595 286.212 180.595 286.38C180.595 286.556 180.647 286.7 180.751 286.812C180.863 286.924 181.003 286.98 181.171 286.98ZM175.975 288L181.207 279.564H182.695L177.463 288H175.975Z" fill="#7ECC49"/>
<path d="M197.148 289V279.284H198.072L202.188 286.046H201.558L205.674 279.284H206.598V289H205.282V281.594L205.59 281.678L202.342 287.012H201.418L198.17 281.678L198.464 281.594V289H197.148ZM211.566 289.14C211.015 289.14 210.521 289.019 210.082 288.776C209.653 288.524 209.317 288.179 209.074 287.74C208.831 287.301 208.71 286.793 208.71 286.214V282.35H209.97V286.158C209.97 286.522 210.031 286.839 210.152 287.11C210.283 287.371 210.469 287.572 210.712 287.712C210.955 287.852 211.239 287.922 211.566 287.922C212.061 287.922 212.448 287.768 212.728 287.46C213.008 287.143 213.148 286.709 213.148 286.158V282.35H214.408V286.214C214.408 286.793 214.287 287.301 214.044 287.74C213.801 288.179 213.465 288.524 213.036 288.776C212.616 289.019 212.126 289.14 211.566 289.14ZM216.307 289V279.004H217.567V289H216.307ZM220.642 289V279.564H221.902V289H220.642ZM219.004 283.498V282.35H223.54V283.498H219.004ZM224.999 289V282.35H226.259V289H224.999ZM225.629 281.02C225.395 281.02 225.204 280.945 225.055 280.796C224.905 280.637 224.831 280.441 224.831 280.208C224.831 279.984 224.905 279.797 225.055 279.648C225.204 279.489 225.395 279.41 225.629 279.41C225.862 279.41 226.053 279.489 226.203 279.648C226.352 279.797 226.427 279.984 226.427 280.208C226.427 280.441 226.352 280.637 226.203 280.796C226.053 280.945 225.862 281.02 225.629 281.02ZM231.826 289.14C231.322 289.14 230.864 289.037 230.454 288.832C230.052 288.617 229.73 288.323 229.488 287.95C229.245 287.577 229.11 287.152 229.082 286.676V284.674C229.11 284.189 229.245 283.764 229.488 283.4C229.74 283.027 230.066 282.737 230.468 282.532C230.878 282.317 231.331 282.21 231.826 282.21C232.432 282.21 232.978 282.364 233.464 282.672C233.958 282.98 234.346 283.395 234.626 283.918C234.906 284.441 235.046 285.029 235.046 285.682C235.046 286.335 234.906 286.923 234.626 287.446C234.346 287.969 233.958 288.384 233.464 288.692C232.978 288.991 232.432 289.14 231.826 289.14ZM231.616 287.95C232.036 287.95 232.404 287.852 232.722 287.656C233.039 287.46 233.291 287.194 233.478 286.858C233.664 286.513 233.758 286.116 233.758 285.668C233.758 285.229 233.664 284.837 233.478 284.492C233.291 284.147 233.039 283.881 232.722 283.694C232.404 283.498 232.04 283.4 231.63 283.4C231.21 283.4 230.841 283.498 230.524 283.694C230.206 283.881 229.959 284.147 229.782 284.492C229.604 284.837 229.516 285.234 229.516 285.682C229.516 286.121 229.6 286.513 229.768 286.858C229.945 287.194 230.192 287.46 230.51 287.656C230.836 287.852 231.205 287.95 231.616 287.95ZM228.326 291.786V282.35H229.586V284.1L229.348 285.71L229.586 287.334V291.786H228.326ZM236.684 289V279.004H237.944V289H236.684ZM243.078 289.14C242.415 289.14 241.818 288.991 241.286 288.692C240.754 288.384 240.334 287.969 240.026 287.446C239.718 286.923 239.564 286.331 239.564 285.668C239.564 285.015 239.713 284.427 240.012 283.904C240.32 283.381 240.73 282.971 241.244 282.672C241.766 282.364 242.35 282.21 242.994 282.21C243.61 282.21 244.151 282.35 244.618 282.63C245.094 282.91 245.462 283.297 245.724 283.792C245.994 284.287 246.13 284.847 246.13 285.472C246.13 285.565 246.125 285.668 246.116 285.78C246.106 285.883 246.088 286.004 246.06 286.144H240.446V285.094H245.388L244.926 285.5C244.926 285.052 244.846 284.674 244.688 284.366C244.529 284.049 244.305 283.806 244.016 283.638C243.726 283.461 243.376 283.372 242.966 283.372C242.536 283.372 242.158 283.465 241.832 283.652C241.505 283.839 241.253 284.1 241.076 284.436C240.898 284.772 240.81 285.169 240.81 285.626C240.81 286.093 240.903 286.503 241.09 286.858C241.276 287.203 241.542 287.474 241.888 287.67C242.233 287.857 242.63 287.95 243.078 287.95C243.451 287.95 243.792 287.885 244.1 287.754C244.417 287.623 244.688 287.427 244.912 287.166L245.724 287.992C245.406 288.365 245.014 288.65 244.548 288.846C244.09 289.042 243.6 289.14 243.078 289.14Z" fill="#7ECC49"/>
<rect x="0.5" y="0.5" width="303" height="317" rx="3.5" stroke="#E1E1E6"/>
</svg>
