<svg width="16" height="16" viewBox="0 0 16 16" fill="none" xmlns="http://www.w3.org/2000/svg">
<path d="M13.3332 5.50016V12.0002C13.3332 14.0002 12.1398 14.6668 10.6665 14.6668H5.33317C3.85984 14.6668 2.6665 14.0002 2.6665 12.0002V5.50016C2.6665 3.3335 3.85984 2.8335 5.33317 2.8335C5.33317 3.24683 5.49982 3.62016 5.77315 3.89349C6.04649 4.16683 6.41984 4.3335 6.83317 4.3335H9.1665C9.99317 4.3335 10.6665 3.66016 10.6665 2.8335C12.1398 2.8335 13.3332 3.3335 13.3332 5.50016Z" stroke="#42C677" stroke-width="1.2" stroke-linecap="round" stroke-linejoin="round"/>
<path d="M10.6668 2.8335C10.6668 3.66016 9.9935 4.3335 9.16683 4.3335H6.8335C6.42016 4.3335 6.04681 4.16683 5.77348 3.89349C5.50014 3.62016 5.3335 3.24683 5.3335 2.8335C5.3335 2.00683 6.00683 1.3335 6.8335 1.3335H9.16683C9.58016 1.3335 9.95351 1.50017 10.2268 1.7735C10.5002 2.04683 10.6668 2.42016 10.6668 2.8335Z" stroke="#42C677" stroke-width="1.2" stroke-linecap="round" stroke-linejoin="round"/>
<path d="M5.3335 8.6665H8.00016" stroke="#42C677" stroke-width="1.2" stroke-linecap="round" stroke-linejoin="round"/>
<path d="M5.3335 11.3335H10.6668" stroke="#42C677" stroke-width="1.2" stroke-linecap="round" stroke-linejoin="round"/>
</svg>
