<svg width="32" height="32" viewBox="0 0 32 32" fill="none" xmlns="http://www.w3.org/2000/svg">
<rect x="0.5" y="0.5" width="31" height="31" rx="3.5" fill="white"/>
<path d="M22.6468 20.2207C22.6468 20.4607 22.5935 20.7073 22.4802 20.9473C22.3668 21.1873 22.2202 21.414 22.0268 21.6273C21.7002 21.9873 21.3402 22.2473 20.9335 22.414C20.5335 22.5807 20.1002 22.6673 19.6335 22.6673C18.9535 22.6673 18.2268 22.5073 17.4602 22.1807C16.6935 21.854 15.9268 21.414 15.1668 20.8607C14.4002 20.3007 13.6735 19.6807 12.9802 18.994C12.2935 18.3007 11.6735 17.574 11.1202 16.814C10.5735 16.054 10.1335 15.294 9.8135 14.5407C9.4935 13.7807 9.3335 13.054 9.3335 12.3607C9.3335 11.9073 9.4135 11.474 9.5735 11.074C9.7335 10.6673 9.98683 10.294 10.3402 9.96065C10.7668 9.54065 11.2335 9.33398 11.7268 9.33398C11.9135 9.33398 12.1002 9.37398 12.2668 9.45398C12.4402 9.53398 12.5935 9.65398 12.7135 9.82732L14.2602 12.0073C14.3802 12.174 14.4668 12.3273 14.5268 12.474C14.5868 12.614 14.6202 12.754 14.6202 12.8807C14.6202 13.0407 14.5735 13.2007 14.4802 13.354C14.3935 13.5073 14.2668 13.6673 14.1068 13.8273L13.6002 14.354C13.5268 14.4273 13.4935 14.514 13.4935 14.6207C13.4935 14.674 13.5002 14.7207 13.5135 14.774C13.5335 14.8273 13.5535 14.8673 13.5668 14.9073C13.6868 15.1273 13.8935 15.414 14.1868 15.7607C14.4868 16.1073 14.8068 16.4607 15.1535 16.814C15.5135 17.1673 15.8602 17.494 16.2135 17.794C16.5602 18.0873 16.8468 18.2873 17.0735 18.4073C17.1068 18.4207 17.1468 18.4407 17.1935 18.4607C17.2468 18.4807 17.3002 18.4873 17.3602 18.4873C17.4735 18.4873 17.5602 18.4473 17.6335 18.374L18.1402 17.874C18.3068 17.7073 18.4668 17.5807 18.6202 17.5007C18.7735 17.4073 18.9268 17.3607 19.0935 17.3607C19.2202 17.3607 19.3535 17.3873 19.5002 17.4473C19.6468 17.5073 19.8002 17.594 19.9668 17.7073L22.1735 19.274C22.3468 19.394 22.4668 19.534 22.5402 19.7007C22.6068 19.8673 22.6468 20.034 22.6468 20.2207Z" stroke="#2B817B" stroke-width="1.5" stroke-miterlimit="10"/>
<rect x="0.5" y="0.5" width="31" height="31" rx="3.5" stroke="#80B3B0"/>
</svg>
