<svg width="65" height="64" viewBox="0 0 65 64" fill="none" xmlns="http://www.w3.org/2000/svg">
<rect x="0.5" width="64" height="64" rx="32" fill="#FEF9E8"/>
<path d="M45.5133 37.227L36.98 21.867C35.8333 19.8003 34.2466 18.667 32.5 18.667C30.7533 18.667 29.1666 19.8003 28.02 21.867L19.4866 37.227C18.4066 39.187 18.2866 41.067 19.1533 42.547C20.02 44.027 21.7266 44.8403 23.9666 44.8403H41.0333C43.2733 44.8403 44.98 44.027 45.8466 42.547C46.7133 41.067 46.5933 39.1737 45.5133 37.227ZM31.5 28.0003C31.5 27.4537 31.9533 27.0003 32.5 27.0003C33.0466 27.0003 33.5 27.4537 33.5 28.0003V34.667C33.5 35.2137 33.0466 35.667 32.5 35.667C31.9533 35.667 31.5 35.2137 31.5 34.667V28.0003ZM33.4466 39.6137C33.38 39.667 33.3133 39.7203 33.2466 39.7737C33.1666 39.827 33.0866 39.867 33.0066 39.8937C32.9266 39.9337 32.8466 39.9603 32.7533 39.9737C32.6733 39.987 32.58 40.0003 32.5 40.0003C32.42 40.0003 32.3266 39.987 32.2333 39.9737C32.1533 39.9603 32.0733 39.9337 31.9933 39.8937C31.9133 39.867 31.8333 39.827 31.7533 39.7737C31.6866 39.7203 31.62 39.667 31.5533 39.6137C31.3133 39.3603 31.1666 39.0137 31.1666 38.667C31.1666 38.3203 31.3133 37.9737 31.5533 37.7203C31.62 37.667 31.6866 37.6137 31.7533 37.5603C31.8333 37.507 31.9133 37.467 31.9933 37.4403C32.0733 37.4003 32.1533 37.3737 32.2333 37.3603C32.4066 37.3203 32.5933 37.3203 32.7533 37.3603C32.8466 37.3737 32.9266 37.4003 33.0066 37.4403C33.0866 37.467 33.1666 37.507 33.2466 37.5603C33.3133 37.6137 33.38 37.667 33.4466 37.7203C33.6866 37.9737 33.8333 38.3203 33.8333 38.667C33.8333 39.0137 33.6866 39.3603 33.4466 39.6137Z" fill="#DFA90D"/>
</svg>
