<svg width="16" height="16" viewBox="0 0 16 16" fill="none" xmlns="http://www.w3.org/2000/svg">
<path d="M2.00684 7.48047V10.4738C2.00684 13.4671 3.20684 14.6671 6.20017 14.6671H9.7935C12.7868 14.6671 13.9868 13.4671 13.9868 10.4738V7.48047" stroke="#9EA3AE" stroke-width="1.2" stroke-linecap="round" stroke-linejoin="round"/>
<path d="M7.99999 8.00065C9.21999 8.00065 10.12 7.00732 9.99999 5.78732L9.55999 1.33398H6.44666L5.99999 5.78732C5.87999 7.00732 6.77999 8.00065 7.99999 8.00065Z" stroke="#9EA3AE" stroke-width="1.2" stroke-linecap="round" stroke-linejoin="round"/>
<path d="M12.2065 8.00065C13.5532 8.00065 14.5399 6.90732 14.4065 5.56732L14.2199 3.73398C13.9799 2.00065 13.3132 1.33398 11.5665 1.33398H9.5332L9.99987 6.00732C10.1132 7.10732 11.1065 8.00065 12.2065 8.00065Z" stroke="#9EA3AE" stroke-width="1.2" stroke-linecap="round" stroke-linejoin="round"/>
<path d="M3.75992 8.00065C4.85992 8.00065 5.85325 7.10732 5.95992 6.00732L6.10659 4.53398L6.42659 1.33398H4.39326C2.64659 1.33398 1.97992 2.00065 1.73992 3.73398L1.55992 5.56732C1.42659 6.90732 2.41326 8.00065 3.75992 8.00065Z" stroke="#9EA3AE" stroke-width="1.2" stroke-linecap="round" stroke-linejoin="round"/>
<path d="M8.00016 11.334C6.88683 11.334 6.3335 11.8873 6.3335 13.0007V14.6673H9.66683V13.0007C9.66683 11.8873 9.1135 11.334 8.00016 11.334Z" stroke="#9EA3AE" stroke-width="1.2" stroke-linecap="round" stroke-linejoin="round"/>
</svg>
