<svg width="16" height="16" viewBox="0 0 16 16" fill="none" xmlns="http://www.w3.org/2000/svg">
<path d="M12.6468 14.6673H3.31348C1.31348 14.6673 1.31348 13.7673 1.31348 12.6673V12.0007C1.31348 11.634 1.61348 11.334 1.98014 11.334H13.9801C14.3468 11.334 14.6468 11.634 14.6468 12.0007V12.6673C14.6468 13.7673 14.6468 14.6673 12.6468 14.6673Z" stroke="#9EA3AE" stroke-width="1.5" stroke-linecap="round" stroke-linejoin="round"/>
<path d="M13.8135 8.66732V11.334H2.18018V8.66732C2.18018 6.10732 3.98684 3.96732 6.39351 3.45398C6.75351 3.37398 7.12684 3.33398 7.51351 3.33398H8.48018C8.86684 3.33398 9.24684 3.37398 9.60684 3.45398C12.0135 3.97398 13.8135 6.10732 13.8135 8.66732Z" stroke="#9EA3AE" stroke-width="1.5" stroke-linecap="round" stroke-linejoin="round"/>
<path d="M9.66683 3.00065C9.66683 3.16065 9.64683 3.30732 9.60683 3.45398C9.24683 3.37398 8.86683 3.33398 8.48016 3.33398H7.5135C7.12683 3.33398 6.7535 3.37398 6.3935 3.45398C6.3535 3.30732 6.3335 3.16065 6.3335 3.00065C6.3335 2.08065 7.08016 1.33398 8.00016 1.33398C8.92016 1.33398 9.66683 2.08065 9.66683 3.00065Z" stroke="#9EA3AE" stroke-width="1.5" stroke-linecap="round" stroke-linejoin="round"/>
<path d="M10 7.33398H6" stroke="#9EA3AE" stroke-width="1.5" stroke-linecap="round" stroke-linejoin="round"/>
</svg>
