<svg xmlns="http://www.w3.org/2000/svg" width="24" height="24" viewBox="0 0 24 24" fill="none">
<path d="M10.5 19.9002V4.10024C10.5 2.60024 9.86 2.00024 8.27 2.00024H4.23C2.64 2.00024 2 2.60024 2 4.10024V19.9002C2 21.4002 2.64 22.0002 4.23 22.0002H8.27C9.86 22.0002 10.5 21.4002 10.5 19.9002Z" stroke="#9ea3ae" stroke-width="1.5" stroke-linecap="round" stroke-linejoin="round" fill="#ffffff"/>
<path d="M22 10.9002V4.10024C22 2.60024 21.36 2.00024 19.77 2.00024H15.73C14.14 2.00024 13.5 2.60024 13.5 4.10024V10.9002C13.5 12.4002 14.14 13.0002 15.73 13.0002H19.77C21.36 13.0002 22 12.4002 22 10.9002Z" stroke="#9ea3ae" stroke-width="1.5" stroke-linecap="round" stroke-linejoin="round" fill="#ffffff"/>
<path d="M22 19.9002V18.1002C22 16.6002 21.36 16.0002 19.77 16.0002H15.73C14.14 16.0002 13.5 16.6002 13.5 18.1002V19.9002C13.5 21.4002 14.14 22.0002 15.73 22.0002H19.77C21.36 22.0002 22 21.4002 22 19.9002Z" stroke="#9ea3ae" stroke-width="1.5" stroke-linecap="round" stroke-linejoin="round" fill="#ffffff"/>
</svg>