<svg width="16" height="16" viewBox="0 0 16 16" fill="none" xmlns="http://www.w3.org/2000/svg">
<path d="M8 9.33398H8.66667C9.4 9.33398 10 8.73398 10 8.00065V1.33398H4C3 1.33398 2.12667 1.88731 1.67334 2.70064" stroke="#9EA3AE" stroke-width="1.5" stroke-linecap="round" stroke-linejoin="round"/>
<path d="M1.3335 11.334C1.3335 12.4407 2.22683 13.334 3.3335 13.334H4.00016C4.00016 12.6007 4.60016 12.0007 5.3335 12.0007C6.06683 12.0007 6.66683 12.6007 6.66683 13.334H9.3335C9.3335 12.6007 9.9335 12.0007 10.6668 12.0007C11.4002 12.0007 12.0002 12.6007 12.0002 13.334H12.6668C13.7735 13.334 14.6668 12.4407 14.6668 11.334V9.33398H12.6668C12.3002 9.33398 12.0002 9.03398 12.0002 8.66732V6.66732C12.0002 6.30065 12.3002 6.00065 12.6668 6.00065H13.5268L12.3868 4.00732C12.1468 3.59399 11.7068 3.33398 11.2268 3.33398H10.0002V8.00065C10.0002 8.73398 9.40016 9.33398 8.66683 9.33398H8.00016" stroke="#9EA3AE" stroke-width="1.5" stroke-linecap="round" stroke-linejoin="round"/>
<path d="M5.33333 14.6667C6.06971 14.6667 6.66667 14.0697 6.66667 13.3333C6.66667 12.597 6.06971 12 5.33333 12C4.59695 12 4 12.597 4 13.3333C4 14.0697 4.59695 14.6667 5.33333 14.6667Z" stroke="#9EA3AE" stroke-width="1.5" stroke-linecap="round" stroke-linejoin="round"/>
<path d="M10.6668 14.6667C11.4032 14.6667 12.0002 14.0697 12.0002 13.3333C12.0002 12.597 11.4032 12 10.6668 12C9.93045 12 9.3335 12.597 9.3335 13.3333C9.3335 14.0697 9.93045 14.6667 10.6668 14.6667Z" stroke="#9EA3AE" stroke-width="1.5" stroke-linecap="round" stroke-linejoin="round"/>
<path d="M14.6667 8V9.33333H12.6667C12.3 9.33333 12 9.03333 12 8.66667V6.66667C12 6.3 12.3 6 12.6667 6H13.5267L14.6667 8Z" stroke="#9EA3AE" stroke-width="1.5" stroke-linecap="round" stroke-linejoin="round"/>
<path d="M1.3335 5.33398H5.3335" stroke="#9EA3AE" stroke-width="1.5" stroke-linecap="round" stroke-linejoin="round"/>
<path d="M1.3335 7.33398H4.00016" stroke="#9EA3AE" stroke-width="1.5" stroke-linecap="round" stroke-linejoin="round"/>
<path d="M1.3335 9.33398H2.66683" stroke="#9EA3AE" stroke-width="1.5" stroke-linecap="round" stroke-linejoin="round"/>
</svg>
