<svg width="40" height="40" viewBox="0 0 40 40" fill="none" xmlns="http://www.w3.org/2000/svg">
<rect width="40" height="40" rx="20" fill="#A182F8"/>
<path d="M22.0002 13.334V20.0007C22.0002 20.734 21.4002 21.334 20.6668 21.334H13.3335V17.0806C13.8202 17.6606 14.5668 18.0207 15.3935 18.0007C16.0668 17.9873 16.6735 17.7273 17.1268 17.294C17.3335 17.1207 17.5068 16.9006 17.6402 16.6606C17.8802 16.254 18.0135 15.774 18.0002 15.274C17.9802 14.494 17.6335 13.8073 17.0935 13.334H22.0002Z" stroke="white" stroke-width="1.2" stroke-linecap="round" stroke-linejoin="round"/>
<path d="M26.6668 21.334V23.334C26.6668 24.4407 25.7735 25.334 24.6668 25.334H24.0002C24.0002 24.6007 23.4002 24.0007 22.6668 24.0007C21.9335 24.0007 21.3335 24.6007 21.3335 25.334H18.6668C18.6668 24.6007 18.0668 24.0007 17.3335 24.0007C16.6002 24.0007 16.0002 24.6007 16.0002 25.334H15.3335C14.2268 25.334 13.3335 24.4407 13.3335 23.334V21.334H20.6668C21.4002 21.334 22.0002 20.734 22.0002 20.0007V15.334H23.2268C23.7068 15.334 24.1468 15.594 24.3868 16.0073L25.5268 18.0007H24.6668C24.3002 18.0007 24.0002 18.3007 24.0002 18.6673V20.6673C24.0002 21.034 24.3002 21.334 24.6668 21.334H26.6668Z" stroke="white" stroke-width="1.2" stroke-linecap="round" stroke-linejoin="round"/>
<path d="M17.3333 26.6667C18.0697 26.6667 18.6667 26.0697 18.6667 25.3333C18.6667 24.597 18.0697 24 17.3333 24C16.597 24 16 24.597 16 25.3333C16 26.0697 16.597 26.6667 17.3333 26.6667Z" stroke="white" stroke-width="1.2" stroke-linecap="round" stroke-linejoin="round"/>
<path d="M22.6668 26.6667C23.4032 26.6667 24.0002 26.0697 24.0002 25.3333C24.0002 24.597 23.4032 24 22.6668 24C21.9304 24 21.3335 24.597 21.3335 25.3333C21.3335 26.0697 21.9304 26.6667 22.6668 26.6667Z" stroke="white" stroke-width="1.2" stroke-linecap="round" stroke-linejoin="round"/>
<path d="M26.6667 20V21.3333H24.6667C24.3 21.3333 24 21.0333 24 20.6667V18.6667C24 18.3 24.3 18 24.6667 18H25.5267L26.6667 20Z" stroke="white" stroke-width="1.2" stroke-linecap="round" stroke-linejoin="round"/>
<path d="M17.9998 15.3327C17.9998 16.1327 17.6465 16.846 17.0932 17.3327C16.6198 17.746 16.0065 17.9993 15.3332 17.9993C13.8598 17.9993 12.6665 16.806 12.6665 15.3327C12.6665 14.4927 13.0532 13.7394 13.6665 13.2527C14.1265 12.886 14.7065 12.666 15.3332 12.666C16.8065 12.666 17.9998 13.8593 17.9998 15.3327Z" stroke="white" stroke-width="1.2" stroke-miterlimit="10" stroke-linecap="round" stroke-linejoin="round"/>
<path d="M15.4998 14.5V15.5L14.6665 16" stroke="white" stroke-width="1.2" stroke-miterlimit="10" stroke-linecap="round" stroke-linejoin="round"/>
</svg>
