<svg width="200" height="32" viewBox="0 0 200 32" fill="none" xmlns="http://www.w3.org/2000/svg">
<path d="M44.8376 23.6006C45.9636 22.505 46.5266 20.9529 46.5266 18.9444C46.5266 16.9358 45.9636 15.399 44.8376 14.3338C43.7116 13.2382 42.4182 12.6904 40.9574 12.6904C39.4967 12.6904 38.2033 13.2382 37.0773 14.3338C35.9513 15.4294 35.3883 16.9815 35.3883 18.99C35.3883 20.9986 35.9513 22.5506 37.0773 23.6462C38.2033 24.7114 39.4967 25.2439 40.9574 25.2439C42.4182 25.2439 43.7116 24.6961 44.8376 23.6006ZM30.8233 28.3481C28.5713 25.9135 27.4453 22.7941 27.4453 18.99C27.4453 15.1859 28.5713 12.0666 30.8233 9.63195C33.0754 7.1669 35.8143 5.93438 39.0402 5.93438C42.2965 5.93438 44.792 7.13647 46.5266 9.54066V6.20827H54.3326V31.6805H46.5266V27.9829C44.6398 30.661 42.1139 32 38.9489 32C35.7839 32 33.0754 30.7827 30.8233 28.3481Z" fill="#69BFB9"/>
<path d="M70.6404 25.0613H73.425V31.6805H69.4535C66.5928 31.6805 64.3713 31.0566 62.7887 29.8088C61.2367 28.5307 60.4607 26.3547 60.4607 23.281V12.6904H58.0869V6.20827H60.4607V0H68.2666V6.20827H73.3793V12.6904H68.2666V23.281C68.2666 24.4679 69.0579 25.0613 70.6404 25.0613Z" fill="#69BFB9"/>
<path d="M79.0416 28.4394C76.6983 26.0656 75.5266 22.9006 75.5266 18.9444C75.5266 14.9881 76.6983 11.8383 79.0416 9.49501C81.4154 7.12126 84.4738 5.93438 88.2171 5.93438C91.3212 5.93438 93.9536 6.71041 96.1144 8.26248C98.2751 9.78412 99.7054 11.9753 100.405 14.8359H91.9603C91.2299 13.3143 90.0278 12.5535 88.354 12.5535C86.7107 12.5535 85.4781 13.1469 84.6564 14.3338C83.8652 15.4903 83.4696 17.0271 83.4696 18.9444C83.4696 20.8616 83.8652 22.4137 84.6564 23.6006C85.4781 24.757 86.665 25.3352 88.2171 25.3352C89.1909 25.3352 89.9517 25.1679 90.4995 24.8331C91.0473 24.4983 91.5342 23.9049 91.9603 23.0528H100.405C99.7054 25.7917 98.2599 27.9677 96.0687 29.5806C93.8775 31.1935 91.2603 32 88.2171 32C84.4738 32 81.4154 30.8131 79.0416 28.4394Z" fill="#69BFB9"/>
<path d="M118.693 23.6919C119.728 22.5963 120.245 21.0138 120.245 18.9444C120.245 16.8749 119.712 15.3077 118.647 14.2425C117.582 13.1469 116.319 12.5991 114.858 12.5991C113.398 12.5991 112.135 13.1469 111.069 14.2425C110.035 15.3077 109.517 16.8749 109.517 18.9444C109.517 21.0138 110.05 22.5963 111.115 23.6919C112.211 24.7874 113.489 25.3352 114.95 25.3352C116.41 25.3352 117.658 24.7874 118.693 23.6919ZM105.409 28.3937C102.853 25.9895 101.574 22.8245 101.574 18.8987C101.574 14.9729 102.853 11.8383 105.409 9.49501C107.965 7.12126 111.13 5.93438 114.904 5.93438C118.678 5.93438 121.827 7.12126 124.353 9.49501C126.91 11.8383 128.188 14.9729 128.188 18.8987C128.188 22.8245 126.925 25.9895 124.399 28.3937C121.873 30.7979 118.723 32 114.95 32C111.176 32 107.996 30.7979 105.409 28.3937Z" fill="#69BFB9"/>
<path d="M147.375 23.6006C148.501 22.505 149.064 20.9529 149.064 18.9444C149.064 16.9358 148.501 15.399 147.375 14.3338C146.249 13.2382 144.956 12.6904 143.495 12.6904C142.034 12.6904 140.741 13.2382 139.615 14.3338C138.489 15.4294 137.926 16.9815 137.926 18.99C137.926 20.9986 138.489 22.5506 139.615 23.6462C140.741 24.7114 142.034 25.2439 143.495 25.2439C144.956 25.2439 146.249 24.6961 147.375 23.6006ZM133.361 28.3481C131.109 25.9135 129.983 22.7941 129.983 18.99C129.983 15.1859 131.109 12.0666 133.361 9.63195C135.613 7.1669 138.352 5.93438 141.578 5.93438C144.834 5.93438 147.329 7.13647 149.064 9.54066V6.20827H156.87V31.6805H149.064V27.9829C147.177 30.661 144.651 32 141.486 32C138.321 32 135.613 30.7827 133.361 28.3481Z" fill="#69BFB9"/>
<path d="M160.624 13.8773C160.624 11.6253 161.583 9.73847 163.5 8.21683C165.417 6.6952 168.004 5.93438 171.261 5.93438C174.547 5.93438 177.195 6.67998 179.204 8.17118C181.212 9.66239 182.277 11.7014 182.399 14.2882H174.41C174.319 13.4056 174.015 12.8122 173.497 12.5078C172.98 12.1731 172.204 12.0057 171.169 12.0057C169.13 12.0057 168.111 12.6296 168.111 13.8773C168.111 15.0033 169.359 15.7794 171.854 16.2054C174.38 16.6315 176.678 17.2858 178.747 18.1683C179.812 18.5944 180.695 19.3096 181.395 20.3138C182.125 21.2877 182.49 22.4898 182.49 23.9201C182.49 26.2939 181.471 28.2416 179.432 29.7632C177.393 31.2544 174.821 32 171.717 32C168.613 32 166.026 31.3 163.957 29.9001C161.887 28.4698 160.761 26.3699 160.579 23.6006H168.567C168.78 25.1526 169.876 25.9287 171.854 25.9287C172.767 25.9287 173.513 25.7156 174.091 25.2896C174.699 24.8635 175.004 24.3157 175.004 23.6462C175.004 22.9767 174.502 22.4441 173.497 22.0485C172.524 21.6529 171.337 21.3181 169.937 21.0442C168.537 20.7703 167.122 20.4356 165.691 20.0399C164.291 19.6139 163.089 18.8987 162.085 17.8944C161.111 16.8597 160.624 15.5207 160.624 13.8773Z" fill="#69BFB9"/>
<path d="M197.129 25.0613H199.914V31.6805H195.942C193.082 31.6805 190.86 31.0566 189.278 29.8088C187.726 28.5307 186.95 26.3547 186.95 23.281V12.6904H184.576V6.20827H186.95V0H194.756V6.20827H199.868V12.6904H194.756V23.281C194.756 24.4679 195.547 25.0613 197.129 25.0613Z" fill="#69BFB9"/>
<path fill-rule="evenodd" clip-rule="evenodd" d="M12.9924 31.9595C18.844 31.9595 23.792 28.0911 25.4187 22.7722L18.7739 20.3289C18.1701 22.9827 15.796 24.9635 12.9593 24.9635C9.66591 24.9635 6.99609 22.2937 6.99609 19.0003L6.99619 18.9668H18.9224H25.9849C25.9847 11.7914 20.1679 5.97461 12.9924 5.97461C5.81699 5.97461 0.000130395 11.7914 0 18.9668V18.967C0 26.1426 5.81691 31.9595 12.9924 31.9595ZM11.6619 14.8759C11.6619 15.5268 11.1342 16.0544 10.4833 16.0544C9.83236 16.0544 9.30469 15.5268 9.30469 14.8759C9.30469 14.2249 9.83236 13.6973 10.4833 13.6973C11.1342 13.6973 11.6619 14.2249 11.6619 14.8759ZM15.6044 16.0544C16.2553 16.0544 16.783 15.5268 16.783 14.8759C16.783 14.2249 16.2553 13.6973 15.6044 13.6973C14.9535 13.6973 14.4258 14.2249 14.4258 14.8759C14.4258 15.5268 14.9535 16.0544 15.6044 16.0544Z" fill="#223B7B"/>
</svg>
