<svg width="40" height="40" viewBox="0 0 40 40" fill="none" xmlns="http://www.w3.org/2000/svg">
<rect width="40" height="40" rx="20" fill="#EE82F8"/>
<path d="M17.3334 26.6667H22.6667C25.3467 26.6667 25.8267 25.5933 25.9667 24.2867L26.4667 18.9533C26.6467 17.3267 26.18 16 23.3334 16H16.6667C13.82 16 13.3534 17.3267 13.5334 18.9533L14.0334 24.2867C14.1734 25.5933 14.6534 26.6667 17.3334 26.6667Z" stroke="white" stroke-width="1.2" stroke-miterlimit="10" stroke-linecap="round" stroke-linejoin="round"/>
<path d="M17.3335 15.9997V15.4663C17.3335 14.2863 17.3335 13.333 19.4668 13.333H20.5335C22.6668 13.333 22.6668 14.2863 22.6668 15.4663V15.9997" stroke="white" stroke-width="1.2" stroke-miterlimit="10" stroke-linecap="round" stroke-linejoin="round"/>
<path d="M21.3332 20.6667V21.3333C21.3332 21.34 21.3332 21.34 21.3332 21.3467C21.3332 22.0733 21.3265 22.6667 19.9998 22.6667C18.6798 22.6667 18.6665 22.08 18.6665 21.3533V20.6667C18.6665 20 18.6665 20 19.3332 20H20.6665C21.3332 20 21.3332 20 21.3332 20.6667Z" stroke="white" stroke-width="1.2" stroke-miterlimit="10" stroke-linecap="round" stroke-linejoin="round"/>
<path d="M26.4335 19.333C24.8935 20.453 23.1335 21.1197 21.3335 21.3463" stroke="white" stroke-width="1.5" stroke-miterlimit="10" stroke-linecap="round" stroke-linejoin="round"/>
<path d="M13.7466 19.5137C15.2466 20.5403 16.9399 21.1603 18.6666 21.3537" stroke="white" stroke-width="1.5" stroke-miterlimit="10" stroke-linecap="round" stroke-linejoin="round"/>
</svg>
