<svg width="40" height="40" viewBox="0 0 40 40" fill="none" xmlns="http://www.w3.org/2000/svg">
<rect width="40" height="40" rx="20" fill="#A182F8"/>
<path d="M22.3931 20.173C24.282 20.173 25.8132 18.6418 25.8132 16.753C25.8132 14.8642 24.282 13.333 22.3931 13.333C20.5043 13.333 18.9731 14.8642 18.9731 16.753C18.9731 18.6418 20.5043 20.173 22.3931 20.173Z" stroke="white" stroke-width="1.2" stroke-miterlimit="10"/>
<path d="M16.2398 24.9602C17.3739 24.9602 18.2932 24.0409 18.2932 22.9069C18.2932 21.7728 17.3739 20.8535 16.2398 20.8535C15.1058 20.8535 14.1865 21.7728 14.1865 22.9069C14.1865 24.0409 15.1058 24.9602 16.2398 24.9602Z" stroke="white" stroke-width="1.2" stroke-miterlimit="10"/>
<path d="M23.0802 26.6663C24.0228 26.6663 24.7869 25.9022 24.7869 24.9596C24.7869 24.017 24.0228 23.2529 23.0802 23.2529C22.1376 23.2529 21.3735 24.017 21.3735 24.9596C21.3735 25.9022 22.1376 26.6663 23.0802 26.6663Z" stroke="white" stroke-width="1.2" stroke-miterlimit="10"/>
</svg>
