<svg width="40" height="40" viewBox="0 0 40 40" fill="none" xmlns="http://www.w3.org/2000/svg">
<rect width="40" height="40" rx="20" fill="#829CF8"/>
<path d="M23.4531 24C25.0531 24 25.4531 23.1 25.4531 22V18C25.4531 16.9 25.0531 16 23.4531 16C21.8531 16 21.4531 16.9 21.4531 18V22C21.4531 23.1 21.8531 24 23.4531 24Z" stroke="white" stroke-width="1.2" stroke-linecap="round" stroke-linejoin="round"/>
<path d="M16.5469 24C14.9469 24 14.5469 23.1 14.5469 22V18C14.5469 16.9 14.9469 16 16.5469 16C18.1469 16 18.5469 16.9 18.5469 18V22C18.5469 23.1 18.1469 24 16.5469 24Z" stroke="white" stroke-width="1.2" stroke-linecap="round" stroke-linejoin="round"/>
<path d="M18.5469 20H21.4535" stroke="white" stroke-width="1.2" stroke-linecap="round" stroke-linejoin="round"/>
<path d="M27 21.6663V18.333" stroke="white" stroke-width="1.5" stroke-linecap="round" stroke-linejoin="round"/>
<path d="M13 21.6663V18.333" stroke="white" stroke-width="1.5" stroke-linecap="round" stroke-linejoin="round"/>
</svg>
