<svg width="16" height="16" viewBox="0 0 16 16" fill="none" xmlns="http://www.w3.org/2000/svg">
<path d="M8 1.33301V5.99967L9.33333 4.66634" stroke="#9EA3AE" stroke-width="1.5" stroke-linecap="round" stroke-linejoin="round"/>
<path d="M7.99984 6.00033L6.6665 4.66699" stroke="#9EA3AE" stroke-width="1.5" stroke-linecap="round" stroke-linejoin="round"/>
<path d="M1.31982 8.66699H4.25982C4.51316 8.66699 4.73982 8.80699 4.85316 9.03366L5.63316 10.5937C5.85982 11.047 6.31982 11.3337 6.82649 11.3337H9.17983C9.68649 11.3337 10.1465 11.047 10.3732 10.5937L11.1532 9.03366C11.2665 8.80699 11.4998 8.66699 11.7465 8.66699H14.6532" stroke="#9EA3AE" stroke-width="1.5" stroke-linecap="round" stroke-linejoin="round"/>
<path d="M4.66683 2.75293C2.30683 3.0996 1.3335 4.48626 1.3335 7.33293V9.9996C1.3335 13.3329 2.66683 14.6663 6.00016 14.6663H10.0002C13.3335 14.6663 14.6668 13.3329 14.6668 9.9996V7.33293C14.6668 4.48626 13.6935 3.0996 11.3335 2.75293" stroke="#9EA3AE" stroke-width="1.5" stroke-linecap="round" stroke-linejoin="round"/>
</svg>
