<svg width="16" height="16" viewBox="0 0 16 16" fill="none" xmlns="http://www.w3.org/2000/svg">
<path d="M5.66683 12.6667H5.3335C2.66683 12.6667 1.3335 12 1.3335 8.66668V5.33334C1.3335 2.66668 2.66683 1.33334 5.3335 1.33334H10.6668C13.3335 1.33334 14.6668 2.66668 14.6668 5.33334V8.66668C14.6668 11.3333 13.3335 12.6667 10.6668 12.6667H10.3335C10.1268 12.6667 9.92683 12.7667 9.80016 12.9333L8.80016 14.2667C8.36016 14.8533 7.64016 14.8533 7.20016 14.2667L6.20016 12.9333C6.0935 12.7867 5.84683 12.6667 5.66683 12.6667Z" stroke="#1A1824" stroke-width="1.5" stroke-miterlimit="10" stroke-linecap="round" stroke-linejoin="round"/>
<path d="M10.6641 7.33333H10.6701" stroke="#1A1824" stroke-width="1.5" stroke-linecap="round" stroke-linejoin="round"/>
<path d="M7.99715 7.33333H8.00314" stroke="#1A1824" stroke-width="1.5" stroke-linecap="round" stroke-linejoin="round"/>
<path d="M5.32967 7.33333H5.33566" stroke="#1A1824" stroke-width="1.5" stroke-linecap="round" stroke-linejoin="round"/>
</svg>
