<svg width="16" height="16" viewBox="0 0 16 16" fill="none" xmlns="http://www.w3.org/2000/svg">
<path fill-rule="evenodd" clip-rule="evenodd" d="M1.3335 7.99984C1.3335 7.64622 1.47397 7.30708 1.72402 7.05703C1.97407 6.80698 2.31321 6.6665 2.66683 6.6665C3.02045 6.6665 3.35959 6.80698 3.60964 7.05703C3.85969 7.30708 4.00016 7.64622 4.00016 7.99984C4.00016 8.35346 3.85969 8.6926 3.60964 8.94265C3.35959 9.19269 3.02045 9.33317 2.66683 9.33317C2.31321 9.33317 1.97407 9.19269 1.72402 8.94265C1.47397 8.6926 1.3335 8.35346 1.3335 7.99984Z" fill="#2B817B"/>
<path fill-rule="evenodd" clip-rule="evenodd" d="M6.6665 7.99984C6.6665 7.64622 6.80698 7.30708 7.05703 7.05703C7.30708 6.80698 7.64621 6.6665 7.99984 6.6665C8.35346 6.6665 8.6926 6.80698 8.94265 7.05703C9.19269 7.30708 9.33317 7.64622 9.33317 7.99984C9.33317 8.35346 9.19269 8.6926 8.94265 8.94265C8.6926 9.19269 8.35346 9.33317 7.99984 9.33317C7.64621 9.33317 7.30708 9.19269 7.05703 8.94265C6.80698 8.6926 6.6665 8.35346 6.6665 7.99984Z" fill="#2B817B"/>
<path fill-rule="evenodd" clip-rule="evenodd" d="M12 7.99984C12 7.64622 12.1405 7.30708 12.3905 7.05703C12.6406 6.80698 12.9797 6.6665 13.3333 6.6665C13.687 6.6665 14.0261 6.80698 14.2761 7.05703C14.5262 7.30708 14.6667 7.64622 14.6667 7.99984C14.6667 8.35346 14.5262 8.6926 14.2761 8.94265C14.0261 9.19269 13.687 9.33317 13.3333 9.33317C12.9797 9.33317 12.6406 9.19269 12.3905 8.94265C12.1405 8.6926 12 8.35346 12 7.99984Z" fill="#2B817B"/>
</svg>
