<svg width="32" height="32" viewBox="0 0 32 32" fill="none" xmlns="http://www.w3.org/2000/svg">
<rect x="0.5" y="0.5" width="31" height="31" rx="3.5" fill="white"/>
<path d="M13.6667 20.6663H13.3334C10.6667 20.6663 9.33337 19.9997 9.33337 16.6663V13.333C9.33337 10.6663 10.6667 9.33301 13.3334 9.33301H18.6667C21.3334 9.33301 22.6667 10.6663 22.6667 13.333V16.6663C22.6667 19.333 21.3334 20.6663 18.6667 20.6663H18.3334C18.1267 20.6663 17.9267 20.7663 17.8 20.933L16.8 22.2663C16.36 22.853 15.64 22.853 15.2 22.2663L14.2 20.933C14.0934 20.7863 13.8467 20.6663 13.6667 20.6663Z" stroke="#2B817B" stroke-width="1.5" stroke-miterlimit="10" stroke-linecap="round" stroke-linejoin="round"/>
<path d="M18.6643 15.3333H18.6703" stroke="#2B817B" stroke-width="1.5" stroke-linecap="round" stroke-linejoin="round"/>
<path d="M15.997 15.3333H16.003" stroke="#292D32" stroke-width="1.5" stroke-linecap="round" stroke-linejoin="round"/>
<path d="M13.3297 15.3333H13.3357" stroke="#292D32" stroke-width="1.5" stroke-linecap="round" stroke-linejoin="round"/>
<rect x="0.5" y="0.5" width="31" height="31" rx="3.5" stroke="#80B3B0"/>
</svg>
