<svg width="566" height="288" viewBox="0 0 566 288" fill="none" xmlns="http://www.w3.org/2000/svg">
<rect x="0.5" y="0.5" width="565" height="287" rx="5.5" fill="white"/>
<path d="M25.52 45V31H27.12L27.82 33.64V45H25.52ZM35.22 45L26.84 34.06L27.12 31L35.5 41.94L35.22 45ZM35.22 45L34.52 42.54V31H36.82V45H35.22ZM44.3159 45.2C43.3559 45.2 42.4893 44.9867 41.7159 44.56C40.9559 44.12 40.3493 43.52 39.8959 42.76C39.4559 42 39.2359 41.1467 39.2359 40.2C39.2359 39.2533 39.4559 38.4067 39.8959 37.66C40.3359 36.9 40.9293 36.3 41.6759 35.86C42.4359 35.42 43.2759 35.2 44.1959 35.2C45.0893 35.2 45.8759 35.4067 46.5559 35.82C47.2493 36.2333 47.7893 36.8 48.1759 37.52C48.5759 38.24 48.7759 39.06 48.7759 39.98C48.7759 40.14 48.7626 40.3067 48.7359 40.48C48.7226 40.64 48.6959 40.82 48.6559 41.02H40.7759V39.22H47.5159L46.6959 39.94C46.6693 39.3533 46.5559 38.86 46.3559 38.46C46.1559 38.06 45.8693 37.7533 45.4959 37.54C45.1359 37.3267 44.6893 37.22 44.1559 37.22C43.5959 37.22 43.1093 37.34 42.6959 37.58C42.2826 37.82 41.9626 38.16 41.7359 38.6C41.5093 39.0267 41.3959 39.54 41.3959 40.14C41.3959 40.74 41.5159 41.2667 41.7559 41.72C41.9959 42.1733 42.3359 42.5267 42.7759 42.78C43.2159 43.02 43.7226 43.14 44.2959 43.14C44.7893 43.14 45.2426 43.0533 45.6559 42.88C46.0826 42.7067 46.4426 42.4533 46.7359 42.12L48.1359 43.54C47.6693 44.0867 47.1026 44.5 46.4359 44.78C45.7693 45.06 45.0626 45.2 44.3159 45.2ZM53.5223 45L49.6623 35.4H51.9423L54.5423 42.38L53.8623 42.4L56.4023 35.4H57.6823L60.2223 42.4L59.5423 42.38L62.1423 35.4H64.4223L60.5623 45H59.2823L56.6823 38.36H57.4023L54.8023 45H53.5223ZM74.6044 45.2C73.4977 45.2 72.5577 45 71.7844 44.6C71.011 44.2 70.3177 43.6133 69.7044 42.84L71.2644 41.28C71.651 41.84 72.111 42.28 72.6444 42.6C73.1777 42.9067 73.8577 43.06 74.6844 43.06C75.4577 43.06 76.071 42.9 76.5244 42.58C76.991 42.26 77.2244 41.82 77.2244 41.26C77.2244 40.7933 77.1044 40.4133 76.8644 40.12C76.6244 39.8267 76.3044 39.5867 75.9044 39.4C75.5177 39.2 75.0844 39.0267 74.6044 38.88C74.1377 38.72 73.6644 38.5467 73.1844 38.36C72.7177 38.16 72.2844 37.9133 71.8844 37.62C71.4977 37.3267 71.1844 36.9467 70.9444 36.48C70.7044 36.0133 70.5844 35.42 70.5844 34.7C70.5844 33.8733 70.7844 33.1733 71.1844 32.6C71.5977 32.0133 72.151 31.5667 72.8444 31.26C73.5377 30.9533 74.311 30.8 75.1644 30.8C76.0844 30.8 76.9044 30.98 77.6244 31.34C78.3577 31.7 78.951 32.16 79.4044 32.72L77.8444 34.28C77.4444 33.8267 77.0244 33.4933 76.5844 33.28C76.1577 33.0533 75.6644 32.94 75.1044 32.94C74.411 32.94 73.8644 33.08 73.4644 33.36C73.0777 33.64 72.8844 34.0333 72.8844 34.54C72.8844 34.9667 73.0044 35.3133 73.2444 35.58C73.4844 35.8333 73.7977 36.0533 74.1844 36.24C74.5844 36.4133 75.0177 36.58 75.4844 36.74C75.9644 36.9 76.4377 37.08 76.9044 37.28C77.3844 37.48 77.8177 37.74 78.2044 38.06C78.6044 38.3667 78.9244 38.7667 79.1644 39.26C79.4044 39.7533 79.5244 40.3733 79.5244 41.12C79.5244 42.3733 79.0777 43.3667 78.1844 44.1C77.3044 44.8333 76.111 45.2 74.6044 45.2ZM85.7577 45.2C84.9443 45.2 84.2177 45.02 83.5777 44.66C82.951 44.3 82.4577 43.8067 82.0977 43.18C81.751 42.54 81.5777 41.8067 81.5777 40.98V35.4H83.7777V40.88C83.7777 41.3467 83.851 41.7467 83.9977 42.08C84.1577 42.4 84.3843 42.6467 84.6777 42.82C84.9843 42.9933 85.3443 43.08 85.7577 43.08C86.3977 43.08 86.8843 42.8933 87.2177 42.52C87.5643 42.1333 87.7377 41.5867 87.7377 40.88V35.4H89.9377V40.98C89.9377 41.82 89.7577 42.56 89.3977 43.2C89.051 43.8267 88.5643 44.32 87.9377 44.68C87.311 45.0267 86.5843 45.2 85.7577 45.2ZM97.5897 45.2C96.8564 45.2 96.203 45.0467 95.6297 44.74C95.0564 44.42 94.603 43.9867 94.2697 43.44C93.9497 42.8933 93.7897 42.2733 93.7897 41.58V38.82C93.7897 38.1267 93.9564 37.5067 94.2897 36.96C94.623 36.4133 95.0764 35.9867 95.6497 35.68C96.223 35.36 96.8697 35.2 97.5897 35.2C98.4564 35.2 99.2364 35.4267 99.9297 35.88C100.636 36.32 101.19 36.92 101.59 37.68C102.003 38.4267 102.21 39.2733 102.21 40.22C102.21 41.1533 102.003 42 101.59 42.76C101.19 43.5067 100.636 44.1 99.9297 44.54C99.2364 44.98 98.4564 45.2 97.5897 45.2ZM97.2297 43.12C97.763 43.12 98.2297 43 98.6297 42.76C99.043 42.5067 99.363 42.16 99.5897 41.72C99.8297 41.28 99.9497 40.7733 99.9497 40.2C99.9497 39.6267 99.8297 39.12 99.5897 38.68C99.363 38.24 99.043 37.9 98.6297 37.66C98.2297 37.4067 97.763 37.28 97.2297 37.28C96.6964 37.28 96.223 37.4067 95.8097 37.66C95.3964 37.9 95.0764 38.24 94.8497 38.68C94.623 39.12 94.5097 39.6267 94.5097 40.2C94.5097 40.7733 94.623 41.28 94.8497 41.72C95.0764 42.16 95.3964 42.5067 95.8097 42.76C96.223 43 96.6964 43.12 97.2297 43.12ZM92.4497 45V30.6H94.6497V37.76L94.2697 40.08L94.6497 42.42V45H92.4497ZM107.491 45.2C106.958 45.2 106.445 45.1333 105.951 45C105.458 44.8533 105.005 44.6533 104.591 44.4C104.178 44.1333 103.818 43.8133 103.511 43.44L104.911 42.04C105.245 42.4267 105.625 42.72 106.051 42.92C106.491 43.1067 106.985 43.2 107.531 43.2C108.025 43.2 108.398 43.1267 108.651 42.98C108.905 42.8333 109.031 42.62 109.031 42.34C109.031 42.0467 108.911 41.82 108.671 41.66C108.431 41.5 108.118 41.3667 107.731 41.26C107.358 41.14 106.958 41.02 106.531 40.9C106.118 40.78 105.718 40.62 105.331 40.42C104.958 40.2067 104.651 39.92 104.411 39.56C104.171 39.2 104.051 38.7333 104.051 38.16C104.051 37.5467 104.191 37.02 104.471 36.58C104.765 36.14 105.171 35.8 105.691 35.56C106.225 35.32 106.858 35.2 107.591 35.2C108.365 35.2 109.045 35.34 109.631 35.62C110.231 35.8867 110.731 36.2933 111.131 36.84L109.731 38.24C109.451 37.8933 109.131 37.6333 108.771 37.46C108.411 37.2867 107.998 37.2 107.531 37.2C107.091 37.2 106.751 37.2667 106.511 37.4C106.271 37.5333 106.151 37.7267 106.151 37.98C106.151 38.2467 106.271 38.4533 106.511 38.6C106.751 38.7467 107.058 38.8733 107.431 38.98C107.818 39.0867 108.218 39.2067 108.631 39.34C109.058 39.46 109.458 39.6333 109.831 39.86C110.218 40.0733 110.531 40.3667 110.771 40.74C111.011 41.1 111.131 41.5733 111.131 42.16C111.131 43.0933 110.805 43.8333 110.151 44.38C109.498 44.9267 108.611 45.2 107.491 45.2ZM117.665 45.2C116.718 45.2 115.858 44.98 115.085 44.54C114.325 44.1 113.725 43.5 113.285 42.74C112.845 41.98 112.625 41.1333 112.625 40.2C112.625 39.2533 112.845 38.4067 113.285 37.66C113.725 36.9 114.325 36.3 115.085 35.86C115.858 35.42 116.718 35.2 117.665 35.2C118.412 35.2 119.105 35.3467 119.745 35.64C120.398 35.92 120.952 36.3267 121.405 36.86L119.965 38.32C119.685 37.9867 119.345 37.74 118.945 37.58C118.558 37.4067 118.132 37.32 117.665 37.32C117.118 37.32 116.632 37.4467 116.205 37.7C115.792 37.94 115.465 38.2733 115.225 38.7C114.998 39.1267 114.885 39.6267 114.885 40.2C114.885 40.76 114.998 41.26 115.225 41.7C115.465 42.1267 115.792 42.4667 116.205 42.72C116.632 42.96 117.118 43.08 117.665 43.08C118.132 43.08 118.558 43 118.945 42.84C119.345 42.6667 119.685 42.4133 119.965 42.08L121.405 43.54C120.952 44.0733 120.398 44.4867 119.745 44.78C119.105 45.06 118.412 45.2 117.665 45.2ZM123.291 45V35.4H125.491V45H123.291ZM125.491 39.66L124.731 39.28C124.731 38.0667 124.998 37.0867 125.531 36.34C126.078 35.58 126.898 35.2 127.991 35.2C128.471 35.2 128.904 35.2867 129.291 35.46C129.678 35.6333 130.038 35.9133 130.371 36.3L128.931 37.78C128.758 37.5933 128.564 37.46 128.351 37.38C128.138 37.3 127.891 37.26 127.611 37.26C126.998 37.26 126.491 37.4533 126.091 37.84C125.691 38.2267 125.491 38.8333 125.491 39.66ZM131.756 45V35.4H133.956V45H131.756ZM132.856 33.64C132.482 33.64 132.169 33.5133 131.916 33.26C131.676 33.0067 131.556 32.6933 131.556 32.32C131.556 31.9467 131.676 31.6333 131.916 31.38C132.169 31.1267 132.482 31 132.856 31C133.242 31 133.556 31.1267 133.796 31.38C134.036 31.6333 134.156 31.9467 134.156 32.32C134.156 32.6933 134.036 33.0067 133.796 33.26C133.556 33.5133 133.242 33.64 132.856 33.64ZM141.863 45.2C141.13 45.2 140.476 45.0467 139.903 44.74C139.33 44.42 138.876 43.9867 138.543 43.44C138.223 42.8933 138.063 42.2733 138.063 41.58V38.82C138.063 38.1267 138.23 37.5067 138.563 36.96C138.896 36.4133 139.35 35.9867 139.923 35.68C140.496 35.36 141.143 35.2 141.863 35.2C142.73 35.2 143.51 35.4267 144.203 35.88C144.91 36.32 145.463 36.92 145.863 37.68C146.276 38.4267 146.483 39.2733 146.483 40.22C146.483 41.1533 146.276 42 145.863 42.76C145.463 43.5067 144.91 44.1 144.203 44.54C143.51 44.98 142.73 45.2 141.863 45.2ZM141.503 43.12C142.036 43.12 142.503 43 142.903 42.76C143.316 42.5067 143.636 42.16 143.863 41.72C144.103 41.28 144.223 40.7733 144.223 40.2C144.223 39.6267 144.103 39.12 143.863 38.68C143.636 38.24 143.316 37.9 142.903 37.66C142.503 37.4067 142.036 37.28 141.503 37.28C140.97 37.28 140.496 37.4067 140.083 37.66C139.67 37.9 139.35 38.24 139.123 38.68C138.896 39.12 138.783 39.6267 138.783 40.2C138.783 40.7733 138.896 41.28 139.123 41.72C139.35 42.16 139.67 42.5067 140.083 42.76C140.496 43 140.97 43.12 141.503 43.12ZM136.723 49V35.4H138.923V37.98L138.543 40.32L138.923 42.64V49H136.723ZM149.811 45V31.4H152.011V45H149.811ZM147.511 37.4V35.4H154.311V37.4H147.511ZM156.23 45V35.4H158.43V45H156.23ZM157.33 33.64C156.957 33.64 156.643 33.5133 156.39 33.26C156.15 33.0067 156.03 32.6933 156.03 32.32C156.03 31.9467 156.15 31.6333 156.39 31.38C156.643 31.1267 156.957 31 157.33 31C157.717 31 158.03 31.1267 158.27 31.38C158.51 31.6333 158.63 31.9467 158.63 32.32C158.63 32.6933 158.51 33.0067 158.27 33.26C158.03 33.5133 157.717 33.64 157.33 33.64ZM165.597 45.2C164.664 45.2 163.817 44.98 163.057 44.54C162.297 44.0867 161.691 43.48 161.237 42.72C160.797 41.96 160.577 41.1133 160.577 40.18C160.577 39.2467 160.797 38.4067 161.237 37.66C161.691 36.9133 162.297 36.32 163.057 35.88C163.817 35.4267 164.664 35.2 165.597 35.2C166.544 35.2 167.397 35.42 168.157 35.86C168.917 36.3 169.517 36.9 169.957 37.66C170.411 38.4067 170.637 39.2467 170.637 40.18C170.637 41.1133 170.411 41.96 169.957 42.72C169.517 43.48 168.917 44.0867 168.157 44.54C167.397 44.98 166.544 45.2 165.597 45.2ZM165.597 43.08C166.144 43.08 166.624 42.96 167.037 42.72C167.464 42.4667 167.791 42.12 168.017 41.68C168.257 41.24 168.377 40.74 168.377 40.18C168.377 39.62 168.257 39.1267 168.017 38.7C167.777 38.2733 167.451 37.94 167.037 37.7C166.624 37.4467 166.144 37.32 165.597 37.32C165.064 37.32 164.584 37.4467 164.157 37.7C163.744 37.94 163.417 38.2733 163.177 38.7C162.951 39.1267 162.837 39.62 162.837 40.18C162.837 40.74 162.951 41.24 163.177 41.68C163.417 42.12 163.744 42.4667 164.157 42.72C164.584 42.96 165.064 43.08 165.597 43.08ZM179.347 45V39.46C179.347 38.82 179.14 38.2933 178.727 37.88C178.327 37.4667 177.807 37.26 177.167 37.26C176.74 37.26 176.36 37.3533 176.027 37.54C175.694 37.7267 175.434 37.9867 175.247 38.32C175.06 38.6533 174.967 39.0333 174.967 39.46L174.107 38.98C174.107 38.2467 174.267 37.6 174.587 37.04C174.907 36.4667 175.347 36.02 175.907 35.7C176.48 35.3667 177.12 35.2 177.827 35.2C178.547 35.2 179.187 35.3867 179.747 35.76C180.307 36.12 180.747 36.5933 181.067 37.18C181.387 37.7533 181.547 38.3533 181.547 38.98V45H179.347ZM172.767 45V35.4H174.967V45H172.767Z" fill="black"/>
<g clip-path="url(#clip0_103_137209)">
<path d="M459.984 42.5V34.172H461.112V42.5H459.984ZM460.752 42.5V41.468H465.216V42.5H460.752ZM468.771 42.62C468.251 42.62 467.779 42.492 467.355 42.236C466.931 41.972 466.595 41.616 466.347 41.168C466.107 40.72 465.987 40.216 465.987 39.656C465.987 39.096 466.107 38.592 466.347 38.144C466.595 37.696 466.927 37.34 467.343 37.076C467.767 36.812 468.243 36.68 468.771 36.68C469.203 36.68 469.587 36.772 469.923 36.956C470.267 37.132 470.543 37.38 470.751 37.7C470.959 38.012 471.075 38.376 471.099 38.792V40.508C471.075 40.916 470.959 41.28 470.751 41.6C470.551 41.92 470.279 42.172 469.935 42.356C469.599 42.532 469.211 42.62 468.771 42.62ZM468.951 41.6C469.487 41.6 469.919 41.42 470.247 41.06C470.575 40.692 470.739 40.224 470.739 39.656C470.739 39.264 470.663 38.924 470.511 38.636C470.367 38.34 470.159 38.112 469.887 37.952C469.615 37.784 469.299 37.7 468.939 37.7C468.579 37.7 468.259 37.784 467.979 37.952C467.707 38.12 467.491 38.352 467.331 38.648C467.179 38.936 467.103 39.268 467.103 39.644C467.103 40.028 467.179 40.368 467.331 40.664C467.491 40.952 467.711 41.18 467.991 41.348C468.271 41.516 468.591 41.6 468.951 41.6ZM470.667 42.5V40.964L470.871 39.572L470.667 38.192V36.8H471.759V42.5H470.667ZM475.323 42.62C475.003 42.62 474.699 42.58 474.411 42.5C474.131 42.412 473.871 42.292 473.631 42.14C473.391 41.98 473.183 41.792 473.007 41.576L473.703 40.88C473.911 41.136 474.151 41.328 474.423 41.456C474.695 41.576 474.999 41.636 475.335 41.636C475.671 41.636 475.931 41.58 476.115 41.468C476.299 41.348 476.391 41.184 476.391 40.976C476.391 40.768 476.315 40.608 476.163 40.496C476.019 40.376 475.831 40.28 475.599 40.208C475.367 40.128 475.119 40.052 474.855 39.98C474.599 39.9 474.355 39.8 474.123 39.68C473.891 39.56 473.699 39.396 473.547 39.188C473.403 38.98 473.331 38.704 473.331 38.36C473.331 38.016 473.415 37.72 473.583 37.472C473.751 37.216 473.983 37.02 474.279 36.884C474.583 36.748 474.947 36.68 475.371 36.68C475.819 36.68 476.215 36.76 476.559 36.92C476.911 37.072 477.199 37.304 477.423 37.616L476.727 38.312C476.567 38.104 476.367 37.944 476.127 37.832C475.895 37.72 475.631 37.664 475.335 37.664C475.023 37.664 474.783 37.72 474.615 37.832C474.455 37.936 474.375 38.084 474.375 38.276C474.375 38.468 474.447 38.616 474.591 38.72C474.735 38.824 474.923 38.912 475.155 38.984C475.395 39.056 475.643 39.132 475.899 39.212C476.155 39.284 476.399 39.384 476.631 39.512C476.863 39.64 477.051 39.812 477.195 40.028C477.347 40.244 477.423 40.528 477.423 40.88C477.423 41.416 477.231 41.84 476.847 42.152C476.471 42.464 475.963 42.62 475.323 42.62ZM479.688 42.5V34.412H480.768V42.5H479.688ZM478.284 37.784V36.8H482.172V37.784H478.284ZM486.975 42.5L490.095 34.832L491.211 34.868L488.163 42.5H486.975ZM485.667 35.18V34.172H491.211V34.868L490.719 35.18H485.667ZM496.183 42.5V41.468H498.499C499.115 41.468 499.655 41.336 500.119 41.072C500.583 40.8 500.943 40.428 501.199 39.956C501.463 39.484 501.595 38.94 501.595 38.324C501.595 37.716 501.463 37.176 501.199 36.704C500.935 36.232 500.571 35.864 500.107 35.6C499.643 35.336 499.107 35.204 498.499 35.204H496.195V34.172H498.523C499.131 34.172 499.691 34.276 500.203 34.484C500.723 34.692 501.171 34.984 501.547 35.36C501.931 35.736 502.227 36.176 502.435 36.68C502.651 37.184 502.759 37.736 502.759 38.336C502.759 38.928 502.651 39.48 502.435 39.992C502.227 40.496 501.935 40.936 501.559 41.312C501.183 41.688 500.735 41.98 500.215 42.188C499.703 42.396 499.147 42.5 498.547 42.5H496.183ZM495.439 42.5V34.172H496.567V42.5H495.439ZM506.734 42.62C506.214 42.62 505.742 42.492 505.318 42.236C504.894 41.972 504.558 41.616 504.31 41.168C504.07 40.72 503.95 40.216 503.95 39.656C503.95 39.096 504.07 38.592 504.31 38.144C504.558 37.696 504.89 37.34 505.306 37.076C505.73 36.812 506.206 36.68 506.734 36.68C507.166 36.68 507.55 36.772 507.886 36.956C508.23 37.132 508.506 37.38 508.714 37.7C508.922 38.012 509.038 38.376 509.062 38.792V40.508C509.038 40.916 508.922 41.28 508.714 41.6C508.514 41.92 508.242 42.172 507.898 42.356C507.562 42.532 507.174 42.62 506.734 42.62ZM506.914 41.6C507.45 41.6 507.882 41.42 508.21 41.06C508.538 40.692 508.702 40.224 508.702 39.656C508.702 39.264 508.626 38.924 508.474 38.636C508.33 38.34 508.122 38.112 507.85 37.952C507.578 37.784 507.262 37.7 506.902 37.7C506.542 37.7 506.222 37.784 505.942 37.952C505.67 38.12 505.454 38.352 505.294 38.648C505.142 38.936 505.066 39.268 505.066 39.644C505.066 40.028 505.142 40.368 505.294 40.664C505.454 40.952 505.674 41.18 505.954 41.348C506.234 41.516 506.554 41.6 506.914 41.6ZM508.63 42.5V40.964L508.834 39.572L508.63 38.192V36.8H509.722V42.5H508.63ZM513.346 42.548L510.874 36.8H512.074L513.91 41.3H513.526L515.458 36.8H516.658L513.994 42.548H513.346ZM511.714 44.888L513.394 41.444L513.994 42.548L512.914 44.888H511.714ZM519.42 42.62C519.1 42.62 518.796 42.58 518.508 42.5C518.228 42.412 517.968 42.292 517.728 42.14C517.488 41.98 517.28 41.792 517.104 41.576L517.8 40.88C518.008 41.136 518.248 41.328 518.52 41.456C518.792 41.576 519.096 41.636 519.432 41.636C519.768 41.636 520.028 41.58 520.212 41.468C520.396 41.348 520.488 41.184 520.488 40.976C520.488 40.768 520.412 40.608 520.26 40.496C520.116 40.376 519.928 40.28 519.696 40.208C519.464 40.128 519.216 40.052 518.952 39.98C518.696 39.9 518.452 39.8 518.22 39.68C517.988 39.56 517.796 39.396 517.644 39.188C517.5 38.98 517.428 38.704 517.428 38.36C517.428 38.016 517.512 37.72 517.68 37.472C517.848 37.216 518.08 37.02 518.376 36.884C518.68 36.748 519.044 36.68 519.468 36.68C519.916 36.68 520.312 36.76 520.656 36.92C521.008 37.072 521.296 37.304 521.52 37.616L520.824 38.312C520.664 38.104 520.464 37.944 520.224 37.832C519.992 37.72 519.728 37.664 519.432 37.664C519.12 37.664 518.88 37.72 518.712 37.832C518.552 37.936 518.472 38.084 518.472 38.276C518.472 38.468 518.544 38.616 518.688 38.72C518.832 38.824 519.02 38.912 519.252 38.984C519.492 39.056 519.74 39.132 519.996 39.212C520.252 39.284 520.496 39.384 520.728 39.512C520.96 39.64 521.148 39.812 521.292 40.028C521.444 40.244 521.52 40.528 521.52 40.88C521.52 41.416 521.328 41.84 520.944 42.152C520.568 42.464 520.06 42.62 519.42 42.62Z" fill="#2B817B"/>
<path d="M459 44H521.94V44.6H459V44Z" fill="#2B817B"/>
<path d="M538.6 35.458L533.167 40.8913C532.525 41.533 531.475 41.533 530.833 40.8913L525.4 35.458" stroke="#2B817B" stroke-width="1.5" stroke-miterlimit="10" stroke-linecap="round" stroke-linejoin="round"/>
</g>
<path d="M66.396 265.316L69.468 262.076C69.78 261.756 70.024 261.48 70.2 261.248C70.376 261.008 70.5 260.788 70.572 260.588C70.652 260.388 70.692 260.18 70.692 259.964C70.692 259.54 70.556 259.208 70.284 258.968C70.012 258.728 69.66 258.608 69.228 258.608C68.804 258.608 68.432 258.712 68.112 258.92C67.792 259.12 67.508 259.432 67.26 259.856L66.468 259.196C66.796 258.652 67.192 258.244 67.656 257.972C68.12 257.692 68.656 257.552 69.264 257.552C69.776 257.552 70.22 257.652 70.596 257.852C70.98 258.052 71.276 258.332 71.484 258.692C71.692 259.052 71.796 259.472 71.796 259.952C71.796 260.296 71.752 260.604 71.664 260.876C71.584 261.148 71.436 261.428 71.22 261.716C71.012 261.996 70.72 262.332 70.344 262.724L67.86 265.28L66.396 265.316ZM66.396 266V265.316L67.356 264.992H71.988V266H66.396ZM74.5682 266V257.672H75.6842V266H74.5682ZM72.8642 258.68V257.672H75.5642V258.68H72.8642ZM83.9724 266V262.676C83.9724 262.244 83.8364 261.888 83.5644 261.608C83.2924 261.328 82.9404 261.188 82.5084 261.188C82.2204 261.188 81.9644 261.252 81.7404 261.38C81.5164 261.508 81.3404 261.684 81.2124 261.908C81.0844 262.132 81.0204 262.388 81.0204 262.676L80.5764 262.424C80.5764 261.992 80.6724 261.608 80.8644 261.272C81.0564 260.936 81.3244 260.672 81.6684 260.48C82.0124 260.28 82.4004 260.18 82.8324 260.18C83.2644 260.18 83.6444 260.288 83.9724 260.504C84.3084 260.72 84.5724 261.004 84.7644 261.356C84.9564 261.7 85.0524 262.068 85.0524 262.46V266H83.9724ZM79.9404 266V260.3H81.0204V266H79.9404ZM89.1187 266.12C88.5587 266.12 88.0547 265.988 87.6067 265.724C87.1587 265.46 86.8027 265.104 86.5387 264.656C86.2747 264.2 86.1427 263.692 86.1427 263.132C86.1427 262.58 86.2747 262.084 86.5387 261.644C86.8027 261.196 87.1587 260.84 87.6067 260.576C88.0547 260.312 88.5587 260.18 89.1187 260.18C89.6707 260.18 90.1707 260.312 90.6187 260.576C91.0747 260.832 91.4347 261.184 91.6987 261.632C91.9627 262.08 92.0947 262.58 92.0947 263.132C92.0947 263.692 91.9627 264.2 91.6987 264.656C91.4347 265.104 91.0747 265.46 90.6187 265.724C90.1707 265.988 89.6707 266.12 89.1187 266.12ZM89.1187 265.076C89.4787 265.076 89.7987 264.992 90.0787 264.824C90.3587 264.656 90.5787 264.428 90.7387 264.14C90.8987 263.844 90.9787 263.508 90.9787 263.132C90.9787 262.764 90.8947 262.436 90.7267 262.148C90.5667 261.86 90.3467 261.636 90.0667 261.476C89.7947 261.308 89.4787 261.224 89.1187 261.224C88.7587 261.224 88.4387 261.308 88.1587 261.476C87.8787 261.636 87.6587 261.86 87.4987 262.148C87.3387 262.436 87.2587 262.764 87.2587 263.132C87.2587 263.508 87.3387 263.844 87.4987 264.14C87.6587 264.428 87.8787 264.656 88.1587 264.824C88.4387 264.992 88.7587 265.076 89.1187 265.076ZM95.0566 266L92.4406 260.3H93.6406L95.7406 265.112H95.0446L97.1566 260.3H98.3086L95.6926 266H95.0566Z" fill="#9EA3AE"/>
<path d="M137.896 265.316L140.968 262.076C141.28 261.756 141.524 261.48 141.7 261.248C141.876 261.008 142 260.788 142.072 260.588C142.152 260.388 142.192 260.18 142.192 259.964C142.192 259.54 142.056 259.208 141.784 258.968C141.512 258.728 141.16 258.608 140.728 258.608C140.304 258.608 139.932 258.712 139.612 258.92C139.292 259.12 139.008 259.432 138.76 259.856L137.968 259.196C138.296 258.652 138.692 258.244 139.156 257.972C139.62 257.692 140.156 257.552 140.764 257.552C141.276 257.552 141.72 257.652 142.096 257.852C142.48 258.052 142.776 258.332 142.984 258.692C143.192 259.052 143.296 259.472 143.296 259.952C143.296 260.296 143.252 260.604 143.164 260.876C143.084 261.148 142.936 261.428 142.72 261.716C142.512 261.996 142.22 262.332 141.844 262.724L139.36 265.28L137.896 265.316ZM137.896 266V265.316L138.856 264.992H143.488V266H137.896ZM144.388 265.316L147.46 262.076C147.772 261.756 148.016 261.48 148.192 261.248C148.368 261.008 148.492 260.788 148.564 260.588C148.644 260.388 148.684 260.18 148.684 259.964C148.684 259.54 148.548 259.208 148.276 258.968C148.004 258.728 147.652 258.608 147.22 258.608C146.796 258.608 146.424 258.712 146.104 258.92C145.784 259.12 145.5 259.432 145.252 259.856L144.46 259.196C144.788 258.652 145.184 258.244 145.648 257.972C146.112 257.692 146.648 257.552 147.256 257.552C147.768 257.552 148.212 257.652 148.588 257.852C148.972 258.052 149.268 258.332 149.476 258.692C149.684 259.052 149.788 259.472 149.788 259.952C149.788 260.296 149.744 260.604 149.656 260.876C149.576 261.148 149.428 261.428 149.212 261.716C149.004 261.996 148.712 262.332 148.336 262.724L145.852 265.28L144.388 265.316ZM144.388 266V265.316L145.348 264.992H149.98V266H144.388ZM157.804 266V262.676C157.804 262.244 157.668 261.888 157.396 261.608C157.124 261.328 156.772 261.188 156.34 261.188C156.052 261.188 155.796 261.252 155.572 261.38C155.348 261.508 155.172 261.684 155.044 261.908C154.916 262.132 154.852 262.388 154.852 262.676L154.408 262.424C154.408 261.992 154.504 261.608 154.696 261.272C154.888 260.936 155.156 260.672 155.5 260.48C155.844 260.28 156.232 260.18 156.664 260.18C157.096 260.18 157.476 260.288 157.804 260.504C158.14 260.72 158.404 261.004 158.596 261.356C158.788 261.7 158.884 262.068 158.884 262.46V266H157.804ZM153.772 266V260.3H154.852V266H153.772ZM162.951 266.12C162.391 266.12 161.887 265.988 161.439 265.724C160.991 265.46 160.635 265.104 160.371 264.656C160.107 264.2 159.975 263.692 159.975 263.132C159.975 262.58 160.107 262.084 160.371 261.644C160.635 261.196 160.991 260.84 161.439 260.576C161.887 260.312 162.391 260.18 162.951 260.18C163.503 260.18 164.003 260.312 164.451 260.576C164.907 260.832 165.267 261.184 165.531 261.632C165.795 262.08 165.927 262.58 165.927 263.132C165.927 263.692 165.795 264.2 165.531 264.656C165.267 265.104 164.907 265.46 164.451 265.724C164.003 265.988 163.503 266.12 162.951 266.12ZM162.951 265.076C163.311 265.076 163.631 264.992 163.911 264.824C164.191 264.656 164.411 264.428 164.571 264.14C164.731 263.844 164.811 263.508 164.811 263.132C164.811 262.764 164.727 262.436 164.559 262.148C164.399 261.86 164.179 261.636 163.899 261.476C163.627 261.308 163.311 261.224 162.951 261.224C162.591 261.224 162.271 261.308 161.991 261.476C161.711 261.636 161.491 261.86 161.331 262.148C161.171 262.436 161.091 262.764 161.091 263.132C161.091 263.508 161.171 263.844 161.331 264.14C161.491 264.428 161.711 264.656 161.991 264.824C162.271 264.992 162.591 265.076 162.951 265.076ZM168.889 266L166.273 260.3H167.473L169.573 265.112H168.877L170.989 260.3H172.141L169.525 266H168.889Z" fill="#9EA3AE"/>
<path d="M211.396 265.316L214.468 262.076C214.78 261.756 215.024 261.48 215.2 261.248C215.376 261.008 215.5 260.788 215.572 260.588C215.652 260.388 215.692 260.18 215.692 259.964C215.692 259.54 215.556 259.208 215.284 258.968C215.012 258.728 214.66 258.608 214.228 258.608C213.804 258.608 213.432 258.712 213.112 258.92C212.792 259.12 212.508 259.432 212.26 259.856L211.468 259.196C211.796 258.652 212.192 258.244 212.656 257.972C213.12 257.692 213.656 257.552 214.264 257.552C214.776 257.552 215.22 257.652 215.596 257.852C215.98 258.052 216.276 258.332 216.484 258.692C216.692 259.052 216.796 259.472 216.796 259.952C216.796 260.296 216.752 260.604 216.664 260.876C216.584 261.148 216.436 261.428 216.22 261.716C216.012 261.996 215.72 262.332 215.344 262.724L212.86 265.28L211.396 265.316ZM211.396 266V265.316L212.356 264.992H216.988V266H211.396ZM220.456 266.12C219.912 266.12 219.416 266.02 218.968 265.82C218.528 265.612 218.156 265.312 217.852 264.92L218.62 264.152C218.804 264.432 219.056 264.656 219.376 264.824C219.696 264.984 220.052 265.064 220.444 265.064C220.812 265.064 221.128 264.996 221.392 264.86C221.664 264.716 221.876 264.516 222.028 264.26C222.188 264.004 222.268 263.708 222.268 263.372C222.268 263.028 222.188 262.732 222.028 262.484C221.876 262.228 221.66 262.032 221.38 261.896C221.1 261.76 220.768 261.692 220.384 261.692C220.24 261.692 220.096 261.704 219.952 261.728C219.808 261.744 219.668 261.772 219.532 261.812L220.012 261.164C220.164 261.092 220.328 261.036 220.504 260.996C220.68 260.956 220.856 260.936 221.032 260.936C221.48 260.936 221.88 261.04 222.232 261.248C222.592 261.456 222.876 261.748 223.084 262.124C223.3 262.5 223.408 262.936 223.408 263.432C223.408 263.96 223.28 264.428 223.024 264.836C222.776 265.236 222.432 265.552 221.992 265.784C221.552 266.008 221.04 266.12 220.456 266.12ZM219.532 261.812V261.128L221.968 258.356L223.312 258.344L220.804 261.188L219.532 261.812ZM218.248 258.68V257.672H223.312V258.344L222.328 258.68H218.248ZM231.269 266V262.676C231.269 262.244 231.133 261.888 230.861 261.608C230.589 261.328 230.237 261.188 229.805 261.188C229.517 261.188 229.261 261.252 229.037 261.38C228.813 261.508 228.637 261.684 228.509 261.908C228.381 262.132 228.317 262.388 228.317 262.676L227.873 262.424C227.873 261.992 227.969 261.608 228.161 261.272C228.353 260.936 228.621 260.672 228.965 260.48C229.309 260.28 229.697 260.18 230.129 260.18C230.561 260.18 230.941 260.288 231.269 260.504C231.605 260.72 231.869 261.004 232.061 261.356C232.253 261.7 232.349 262.068 232.349 262.46V266H231.269ZM227.237 266V260.3H228.317V266H227.237ZM236.416 266.12C235.856 266.12 235.352 265.988 234.904 265.724C234.456 265.46 234.1 265.104 233.836 264.656C233.572 264.2 233.44 263.692 233.44 263.132C233.44 262.58 233.572 262.084 233.836 261.644C234.1 261.196 234.456 260.84 234.904 260.576C235.352 260.312 235.856 260.18 236.416 260.18C236.968 260.18 237.468 260.312 237.916 260.576C238.372 260.832 238.732 261.184 238.996 261.632C239.26 262.08 239.392 262.58 239.392 263.132C239.392 263.692 239.26 264.2 238.996 264.656C238.732 265.104 238.372 265.46 237.916 265.724C237.468 265.988 236.968 266.12 236.416 266.12ZM236.416 265.076C236.776 265.076 237.096 264.992 237.376 264.824C237.656 264.656 237.876 264.428 238.036 264.14C238.196 263.844 238.276 263.508 238.276 263.132C238.276 262.764 238.192 262.436 238.024 262.148C237.864 261.86 237.644 261.636 237.364 261.476C237.092 261.308 236.776 261.224 236.416 261.224C236.056 261.224 235.736 261.308 235.456 261.476C235.176 261.636 234.956 261.86 234.796 262.148C234.636 262.436 234.556 262.764 234.556 263.132C234.556 263.508 234.636 263.844 234.796 264.14C234.956 264.428 235.176 264.656 235.456 264.824C235.736 264.992 236.056 265.076 236.416 265.076ZM242.353 266L239.737 260.3H240.937L243.037 265.112H242.341L244.453 260.3H245.605L242.989 266H242.353Z" fill="#9EA3AE"/>
<path d="M284.896 265.316L287.968 262.076C288.28 261.756 288.524 261.48 288.7 261.248C288.876 261.008 289 260.788 289.072 260.588C289.152 260.388 289.192 260.18 289.192 259.964C289.192 259.54 289.056 259.208 288.784 258.968C288.512 258.728 288.16 258.608 287.728 258.608C287.304 258.608 286.932 258.712 286.612 258.92C286.292 259.12 286.008 259.432 285.76 259.856L284.968 259.196C285.296 258.652 285.692 258.244 286.156 257.972C286.62 257.692 287.156 257.552 287.764 257.552C288.276 257.552 288.72 257.652 289.096 257.852C289.48 258.052 289.776 258.332 289.984 258.692C290.192 259.052 290.296 259.472 290.296 259.952C290.296 260.296 290.252 260.604 290.164 260.876C290.084 261.148 289.936 261.428 289.72 261.716C289.512 261.996 289.22 262.332 288.844 262.724L286.36 265.28L284.896 265.316ZM284.896 266V265.316L285.856 264.992H290.488V266H284.896ZM291.388 263.132L294.424 257.672H295.696L292.6 263.132H291.388ZM291.388 263.828V263.132L291.868 262.82H297.772V263.828H291.388ZM295.456 266V260.492H296.572V266H295.456ZM305.484 266V262.676C305.484 262.244 305.348 261.888 305.076 261.608C304.804 261.328 304.452 261.188 304.02 261.188C303.732 261.188 303.476 261.252 303.252 261.38C303.028 261.508 302.852 261.684 302.724 261.908C302.596 262.132 302.532 262.388 302.532 262.676L302.088 262.424C302.088 261.992 302.184 261.608 302.376 261.272C302.568 260.936 302.836 260.672 303.18 260.48C303.524 260.28 303.912 260.18 304.344 260.18C304.776 260.18 305.156 260.288 305.484 260.504C305.82 260.72 306.084 261.004 306.276 261.356C306.468 261.7 306.564 262.068 306.564 262.46V266H305.484ZM301.452 266V260.3H302.532V266H301.452ZM310.63 266.12C310.07 266.12 309.566 265.988 309.118 265.724C308.67 265.46 308.314 265.104 308.05 264.656C307.786 264.2 307.654 263.692 307.654 263.132C307.654 262.58 307.786 262.084 308.05 261.644C308.314 261.196 308.67 260.84 309.118 260.576C309.566 260.312 310.07 260.18 310.63 260.18C311.182 260.18 311.682 260.312 312.13 260.576C312.586 260.832 312.946 261.184 313.21 261.632C313.474 262.08 313.606 262.58 313.606 263.132C313.606 263.692 313.474 264.2 313.21 264.656C312.946 265.104 312.586 265.46 312.13 265.724C311.682 265.988 311.182 266.12 310.63 266.12ZM310.63 265.076C310.99 265.076 311.31 264.992 311.59 264.824C311.87 264.656 312.09 264.428 312.25 264.14C312.41 263.844 312.49 263.508 312.49 263.132C312.49 262.764 312.406 262.436 312.238 262.148C312.078 261.86 311.858 261.636 311.578 261.476C311.306 261.308 310.99 261.224 310.63 261.224C310.27 261.224 309.95 261.308 309.67 261.476C309.39 261.636 309.17 261.86 309.01 262.148C308.85 262.436 308.77 262.764 308.77 263.132C308.77 263.508 308.85 263.844 309.01 264.14C309.17 264.428 309.39 264.656 309.67 264.824C309.95 264.992 310.27 265.076 310.63 265.076ZM316.568 266L313.952 260.3H315.152L317.252 265.112H316.556L318.668 260.3H319.82L317.204 266H316.568Z" fill="#9EA3AE"/>
<path d="M359.396 265.316L362.468 262.076C362.78 261.756 363.024 261.48 363.2 261.248C363.376 261.008 363.5 260.788 363.572 260.588C363.652 260.388 363.692 260.18 363.692 259.964C363.692 259.54 363.556 259.208 363.284 258.968C363.012 258.728 362.66 258.608 362.228 258.608C361.804 258.608 361.432 258.712 361.112 258.92C360.792 259.12 360.508 259.432 360.26 259.856L359.468 259.196C359.796 258.652 360.192 258.244 360.656 257.972C361.12 257.692 361.656 257.552 362.264 257.552C362.776 257.552 363.22 257.652 363.596 257.852C363.98 258.052 364.276 258.332 364.484 258.692C364.692 259.052 364.796 259.472 364.796 259.952C364.796 260.296 364.752 260.604 364.664 260.876C364.584 261.148 364.436 261.428 364.22 261.716C364.012 261.996 363.72 262.332 363.344 262.724L360.86 265.28L359.396 265.316ZM359.396 266V265.316L360.356 264.992H364.988V266H359.396ZM368.468 266.12C367.9 266.12 367.392 266.02 366.944 265.82C366.504 265.612 366.132 265.312 365.828 264.92L366.596 264.152C366.78 264.432 367.032 264.656 367.352 264.824C367.68 264.984 368.044 265.064 368.444 265.064C368.82 265.064 369.148 264.992 369.428 264.848C369.716 264.704 369.94 264.504 370.1 264.248C370.268 263.984 370.352 263.672 370.352 263.312C370.352 262.944 370.272 262.632 370.112 262.376C369.952 262.12 369.736 261.928 369.464 261.8C369.2 261.664 368.908 261.596 368.588 261.596C368.26 261.596 367.96 261.636 367.688 261.716C367.424 261.796 367.172 261.932 366.932 262.124L366.944 261.404C367.08 261.236 367.236 261.1 367.412 260.996C367.588 260.892 367.788 260.812 368.012 260.756C368.236 260.7 368.496 260.672 368.792 260.672C369.368 260.672 369.856 260.792 370.256 261.032C370.656 261.272 370.96 261.596 371.168 262.004C371.384 262.412 371.492 262.868 371.492 263.372C371.492 263.9 371.36 264.372 371.096 264.788C370.84 265.204 370.484 265.532 370.028 265.772C369.572 266.004 369.052 266.12 368.468 266.12ZM366.932 262.124L366.32 261.512L366.692 257.672H367.724L367.304 261.62L366.932 262.124ZM366.92 258.68L366.692 257.672H371.072V258.68H366.92ZM379.304 266V262.676C379.304 262.244 379.168 261.888 378.896 261.608C378.624 261.328 378.272 261.188 377.84 261.188C377.552 261.188 377.296 261.252 377.072 261.38C376.848 261.508 376.672 261.684 376.544 261.908C376.416 262.132 376.352 262.388 376.352 262.676L375.908 262.424C375.908 261.992 376.004 261.608 376.196 261.272C376.388 260.936 376.656 260.672 377 260.48C377.344 260.28 377.732 260.18 378.164 260.18C378.596 260.18 378.976 260.288 379.304 260.504C379.64 260.72 379.904 261.004 380.096 261.356C380.288 261.7 380.384 262.068 380.384 262.46V266H379.304ZM375.272 266V260.3H376.352V266H375.272ZM384.451 266.12C383.891 266.12 383.387 265.988 382.939 265.724C382.491 265.46 382.135 265.104 381.871 264.656C381.607 264.2 381.475 263.692 381.475 263.132C381.475 262.58 381.607 262.084 381.871 261.644C382.135 261.196 382.491 260.84 382.939 260.576C383.387 260.312 383.891 260.18 384.451 260.18C385.003 260.18 385.503 260.312 385.951 260.576C386.407 260.832 386.767 261.184 387.031 261.632C387.295 262.08 387.427 262.58 387.427 263.132C387.427 263.692 387.295 264.2 387.031 264.656C386.767 265.104 386.407 265.46 385.951 265.724C385.503 265.988 385.003 266.12 384.451 266.12ZM384.451 265.076C384.811 265.076 385.131 264.992 385.411 264.824C385.691 264.656 385.911 264.428 386.071 264.14C386.231 263.844 386.311 263.508 386.311 263.132C386.311 262.764 386.227 262.436 386.059 262.148C385.899 261.86 385.679 261.636 385.399 261.476C385.127 261.308 384.811 261.224 384.451 261.224C384.091 261.224 383.771 261.308 383.491 261.476C383.211 261.636 382.991 261.86 382.831 262.148C382.671 262.436 382.591 262.764 382.591 263.132C382.591 263.508 382.671 263.844 382.831 264.14C382.991 264.428 383.211 264.656 383.491 264.824C383.771 264.992 384.091 265.076 384.451 265.076ZM390.389 266L387.773 260.3H388.973L391.073 265.112H390.377L392.489 260.3H393.641L391.025 266H390.389Z" fill="#9EA3AE"/>
<path d="M432.896 265.316L435.968 262.076C436.28 261.756 436.524 261.48 436.7 261.248C436.876 261.008 437 260.788 437.072 260.588C437.152 260.388 437.192 260.18 437.192 259.964C437.192 259.54 437.056 259.208 436.784 258.968C436.512 258.728 436.16 258.608 435.728 258.608C435.304 258.608 434.932 258.712 434.612 258.92C434.292 259.12 434.008 259.432 433.76 259.856L432.968 259.196C433.296 258.652 433.692 258.244 434.156 257.972C434.62 257.692 435.156 257.552 435.764 257.552C436.276 257.552 436.72 257.652 437.096 257.852C437.48 258.052 437.776 258.332 437.984 258.692C438.192 259.052 438.296 259.472 438.296 259.952C438.296 260.296 438.252 260.604 438.164 260.876C438.084 261.148 437.936 261.428 437.72 261.716C437.512 261.996 437.22 262.332 436.844 262.724L434.36 265.28L432.896 265.316ZM432.896 266V265.316L433.856 264.992H438.488V266H432.896ZM442.376 266.12C441.824 266.12 441.328 265.992 440.888 265.736C440.456 265.48 440.112 265.136 439.856 264.704C439.6 264.272 439.472 263.792 439.472 263.264C439.472 262.528 439.728 261.796 440.24 261.068L442.688 257.672H443.996L441.488 261.092L441.08 261.308C441.176 261.14 441.292 261 441.428 260.888C441.564 260.768 441.732 260.676 441.932 260.612C442.132 260.548 442.368 260.516 442.64 260.516C443.128 260.516 443.568 260.632 443.96 260.864C444.36 261.096 444.68 261.416 444.92 261.824C445.168 262.224 445.292 262.692 445.292 263.228C445.292 263.756 445.16 264.24 444.896 264.68C444.64 265.12 444.288 265.472 443.84 265.736C443.4 265.992 442.912 266.12 442.376 266.12ZM442.376 265.064C442.712 265.064 443.012 264.984 443.276 264.824C443.548 264.656 443.76 264.436 443.912 264.164C444.072 263.884 444.152 263.572 444.152 263.228C444.152 262.884 444.072 262.576 443.912 262.304C443.76 262.024 443.548 261.804 443.276 261.644C443.012 261.484 442.712 261.404 442.376 261.404C442.04 261.404 441.736 261.484 441.464 261.644C441.2 261.804 440.988 262.024 440.828 262.304C440.676 262.576 440.6 262.884 440.6 263.228C440.6 263.572 440.676 263.884 440.828 264.164C440.988 264.444 441.2 264.664 441.464 264.824C441.736 264.984 442.04 265.064 442.376 265.064ZM453.086 266V262.676C453.086 262.244 452.95 261.888 452.678 261.608C452.406 261.328 452.054 261.188 451.622 261.188C451.334 261.188 451.078 261.252 450.854 261.38C450.63 261.508 450.454 261.684 450.326 261.908C450.198 262.132 450.134 262.388 450.134 262.676L449.69 262.424C449.69 261.992 449.786 261.608 449.978 261.272C450.17 260.936 450.438 260.672 450.782 260.48C451.126 260.28 451.514 260.18 451.946 260.18C452.378 260.18 452.758 260.288 453.086 260.504C453.422 260.72 453.686 261.004 453.878 261.356C454.07 261.7 454.166 262.068 454.166 262.46V266H453.086ZM449.054 266V260.3H450.134V266H449.054ZM458.232 266.12C457.672 266.12 457.168 265.988 456.72 265.724C456.272 265.46 455.916 265.104 455.652 264.656C455.388 264.2 455.256 263.692 455.256 263.132C455.256 262.58 455.388 262.084 455.652 261.644C455.916 261.196 456.272 260.84 456.72 260.576C457.168 260.312 457.672 260.18 458.232 260.18C458.784 260.18 459.284 260.312 459.732 260.576C460.188 260.832 460.548 261.184 460.812 261.632C461.076 262.08 461.208 262.58 461.208 263.132C461.208 263.692 461.076 264.2 460.812 264.656C460.548 265.104 460.188 265.46 459.732 265.724C459.284 265.988 458.784 266.12 458.232 266.12ZM458.232 265.076C458.592 265.076 458.912 264.992 459.192 264.824C459.472 264.656 459.692 264.428 459.852 264.14C460.012 263.844 460.092 263.508 460.092 263.132C460.092 262.764 460.008 262.436 459.84 262.148C459.68 261.86 459.46 261.636 459.18 261.476C458.908 261.308 458.592 261.224 458.232 261.224C457.872 261.224 457.552 261.308 457.272 261.476C456.992 261.636 456.772 261.86 456.612 262.148C456.452 262.436 456.372 262.764 456.372 263.132C456.372 263.508 456.452 263.844 456.612 264.14C456.772 264.428 456.992 264.656 457.272 264.824C457.552 264.992 457.872 265.076 458.232 265.076ZM464.17 266L461.554 260.3H462.754L464.854 265.112H464.158L466.27 260.3H467.422L464.806 266H464.17Z" fill="#9EA3AE"/>
<path d="M507.396 265.316L510.468 262.076C510.78 261.756 511.024 261.48 511.2 261.248C511.376 261.008 511.5 260.788 511.572 260.588C511.652 260.388 511.692 260.18 511.692 259.964C511.692 259.54 511.556 259.208 511.284 258.968C511.012 258.728 510.66 258.608 510.228 258.608C509.804 258.608 509.432 258.712 509.112 258.92C508.792 259.12 508.508 259.432 508.26 259.856L507.468 259.196C507.796 258.652 508.192 258.244 508.656 257.972C509.12 257.692 509.656 257.552 510.264 257.552C510.776 257.552 511.22 257.652 511.596 257.852C511.98 258.052 512.276 258.332 512.484 258.692C512.692 259.052 512.796 259.472 512.796 259.952C512.796 260.296 512.752 260.604 512.664 260.876C512.584 261.148 512.436 261.428 512.22 261.716C512.012 261.996 511.72 262.332 511.344 262.724L508.86 265.28L507.396 265.316ZM507.396 266V265.316L508.356 264.992H512.988V266H507.396ZM514.856 266L517.976 258.332L519.092 258.368L516.044 266H514.856ZM513.548 258.68V257.672H519.092V258.368L518.6 258.68H513.548ZM526.801 266V262.676C526.801 262.244 526.665 261.888 526.393 261.608C526.121 261.328 525.769 261.188 525.337 261.188C525.049 261.188 524.793 261.252 524.569 261.38C524.345 261.508 524.169 261.684 524.041 261.908C523.913 262.132 523.849 262.388 523.849 262.676L523.405 262.424C523.405 261.992 523.501 261.608 523.693 261.272C523.885 260.936 524.153 260.672 524.497 260.48C524.841 260.28 525.229 260.18 525.661 260.18C526.093 260.18 526.473 260.288 526.801 260.504C527.137 260.72 527.401 261.004 527.593 261.356C527.785 261.7 527.881 262.068 527.881 262.46V266H526.801ZM522.769 266V260.3H523.849V266H522.769ZM531.947 266.12C531.387 266.12 530.883 265.988 530.435 265.724C529.987 265.46 529.631 265.104 529.367 264.656C529.103 264.2 528.971 263.692 528.971 263.132C528.971 262.58 529.103 262.084 529.367 261.644C529.631 261.196 529.987 260.84 530.435 260.576C530.883 260.312 531.387 260.18 531.947 260.18C532.499 260.18 532.999 260.312 533.447 260.576C533.903 260.832 534.263 261.184 534.527 261.632C534.791 262.08 534.923 262.58 534.923 263.132C534.923 263.692 534.791 264.2 534.527 264.656C534.263 265.104 533.903 265.46 533.447 265.724C532.999 265.988 532.499 266.12 531.947 266.12ZM531.947 265.076C532.307 265.076 532.627 264.992 532.907 264.824C533.187 264.656 533.407 264.428 533.567 264.14C533.727 263.844 533.807 263.508 533.807 263.132C533.807 262.764 533.723 262.436 533.555 262.148C533.395 261.86 533.175 261.636 532.895 261.476C532.623 261.308 532.307 261.224 531.947 261.224C531.587 261.224 531.267 261.308 530.987 261.476C530.707 261.636 530.487 261.86 530.327 262.148C530.167 262.436 530.087 262.764 530.087 263.132C530.087 263.508 530.167 263.844 530.327 264.14C530.487 264.428 530.707 264.656 530.987 264.824C531.267 264.992 531.587 265.076 531.947 265.076ZM537.885 266L535.269 260.3H536.469L538.569 265.112H537.873L539.985 260.3H541.137L538.521 266H537.885Z" fill="#9EA3AE"/>
<path d="M27.2774 98.202L30.8614 94.422C31.2254 94.0487 31.5101 93.7267 31.7154 93.456C31.9207 93.176 32.0654 92.9193 32.1494 92.686C32.2427 92.4527 32.2894 92.21 32.2894 91.958C32.2894 91.4633 32.1307 91.076 31.8134 90.796C31.4961 90.516 31.0854 90.376 30.5814 90.376C30.0867 90.376 29.6527 90.4973 29.2794 90.74C28.9061 90.9733 28.5747 91.3373 28.2854 91.832L27.3614 91.062C27.7441 90.4273 28.2061 89.9513 28.7474 89.634C29.2887 89.3073 29.9141 89.144 30.6234 89.144C31.2207 89.144 31.7387 89.2607 32.1774 89.494C32.6254 89.7273 32.9707 90.054 33.2134 90.474C33.4561 90.894 33.5774 91.384 33.5774 91.944C33.5774 92.3453 33.5261 92.7047 33.4234 93.022C33.3301 93.3393 33.1574 93.666 32.9054 94.002C32.6627 94.3287 32.3221 94.7207 31.8834 95.178L28.9854 98.16L27.2774 98.202ZM27.2774 99V98.202L28.3974 97.824H33.8014V99H27.2774ZM39.2196 99.14C38.4916 99.14 37.8243 98.9347 37.2176 98.524C36.6203 98.1133 36.1443 97.5347 35.7896 96.788C35.4349 96.032 35.2576 95.1453 35.2576 94.128C35.2576 93.1107 35.4303 92.2287 35.7756 91.482C36.1303 90.7353 36.6063 90.1613 37.2036 89.76C37.8009 89.3493 38.4589 89.144 39.1776 89.144C39.9149 89.144 40.5823 89.3493 41.1796 89.76C41.7769 90.1613 42.2483 90.7353 42.5936 91.482C42.9483 92.2287 43.1256 93.1153 43.1256 94.142C43.1256 95.1593 42.9483 96.046 42.5936 96.802C42.2483 97.5487 41.7769 98.1273 41.1796 98.538C40.5916 98.9393 39.9383 99.14 39.2196 99.14ZM39.1916 97.894C39.7049 97.894 40.1529 97.754 40.5356 97.474C40.9276 97.1847 41.2356 96.76 41.4596 96.2C41.6836 95.64 41.7956 94.9493 41.7956 94.128C41.7956 93.3067 41.6836 92.6207 41.4596 92.07C41.2356 91.51 40.9276 91.09 40.5356 90.81C40.1436 90.5207 39.6909 90.376 39.1776 90.376C38.6736 90.376 38.2256 90.5207 37.8336 90.81C37.4416 91.09 37.1336 91.51 36.9096 92.07C36.6949 92.6207 36.5876 93.3067 36.5876 94.128C36.5876 94.9493 36.6949 95.64 36.9096 96.2C37.1336 96.76 37.4416 97.1847 37.8336 97.474C38.2256 97.754 38.6783 97.894 39.1916 97.894ZM48.6171 99.14C47.8891 99.14 47.2218 98.9347 46.6151 98.524C46.0178 98.1133 45.5418 97.5347 45.1871 96.788C44.8324 96.032 44.6551 95.1453 44.6551 94.128C44.6551 93.1107 44.8278 92.2287 45.1731 91.482C45.5278 90.7353 46.0038 90.1613 46.6011 89.76C47.1984 89.3493 47.8564 89.144 48.5751 89.144C49.3124 89.144 49.9798 89.3493 50.5771 89.76C51.1744 90.1613 51.6458 90.7353 51.9911 91.482C52.3458 92.2287 52.5231 93.1153 52.5231 94.142C52.5231 95.1593 52.3458 96.046 51.9911 96.802C51.6458 97.5487 51.1744 98.1273 50.5771 98.538C49.9891 98.9393 49.3358 99.14 48.6171 99.14ZM48.5891 97.894C49.1024 97.894 49.5504 97.754 49.9331 97.474C50.3251 97.1847 50.6331 96.76 50.8571 96.2C51.0811 95.64 51.1931 94.9493 51.1931 94.128C51.1931 93.3067 51.0811 92.6207 50.8571 92.07C50.6331 91.51 50.3251 91.09 49.9331 90.81C49.5411 90.5207 49.0884 90.376 48.5751 90.376C48.0711 90.376 47.6231 90.5207 47.2311 90.81C46.8391 91.09 46.5311 91.51 46.3071 92.07C46.0924 92.6207 45.9851 93.3067 45.9851 94.128C45.9851 94.9493 46.0924 95.64 46.3071 96.2C46.5311 96.76 46.8391 97.1847 47.2311 97.474C47.6231 97.754 48.0758 97.894 48.5891 97.894Z" fill="#9EA3AE"/>
<path d="M30.5977 182.5V172.784H31.8997V182.5H30.5977ZM28.6097 173.96V172.784H31.7597V173.96H28.6097ZM37.8593 182.64C37.1313 182.64 36.4639 182.435 35.8573 182.024C35.2599 181.613 34.7839 181.035 34.4293 180.288C34.0746 179.532 33.8973 178.645 33.8973 177.628C33.8973 176.611 34.0699 175.729 34.4153 174.982C34.7699 174.235 35.2459 173.661 35.8433 173.26C36.4406 172.849 37.0986 172.644 37.8173 172.644C38.5546 172.644 39.2219 172.849 39.8193 173.26C40.4166 173.661 40.8879 174.235 41.2333 174.982C41.5879 175.729 41.7653 176.615 41.7653 177.642C41.7653 178.659 41.5879 179.546 41.2333 180.302C40.8879 181.049 40.4166 181.627 39.8193 182.038C39.2313 182.439 38.5779 182.64 37.8593 182.64ZM37.8313 181.394C38.3446 181.394 38.7926 181.254 39.1753 180.974C39.5673 180.685 39.8753 180.26 40.0993 179.7C40.3233 179.14 40.4353 178.449 40.4353 177.628C40.4353 176.807 40.3233 176.121 40.0993 175.57C39.8753 175.01 39.5673 174.59 39.1753 174.31C38.7833 174.021 38.3306 173.876 37.8173 173.876C37.3133 173.876 36.8653 174.021 36.4733 174.31C36.0813 174.59 35.7733 175.01 35.5493 175.57C35.3346 176.121 35.2273 176.807 35.2273 177.628C35.2273 178.449 35.3346 179.14 35.5493 179.7C35.7733 180.26 36.0813 180.685 36.4733 180.974C36.8653 181.254 37.3179 181.394 37.8313 181.394ZM47.2568 182.64C46.5288 182.64 45.8614 182.435 45.2548 182.024C44.6574 181.613 44.1814 181.035 43.8268 180.288C43.4721 179.532 43.2948 178.645 43.2948 177.628C43.2948 176.611 43.4674 175.729 43.8128 174.982C44.1674 174.235 44.6434 173.661 45.2408 173.26C45.8381 172.849 46.4961 172.644 47.2148 172.644C47.9521 172.644 48.6194 172.849 49.2168 173.26C49.8141 173.661 50.2854 174.235 50.6308 174.982C50.9854 175.729 51.1628 176.615 51.1628 177.642C51.1628 178.659 50.9854 179.546 50.6308 180.302C50.2854 181.049 49.8141 181.627 49.2168 182.038C48.6288 182.439 47.9754 182.64 47.2568 182.64ZM47.2288 181.394C47.7421 181.394 48.1901 181.254 48.5728 180.974C48.9648 180.685 49.2728 180.26 49.4968 179.7C49.7208 179.14 49.8328 178.449 49.8328 177.628C49.8328 176.807 49.7208 176.121 49.4968 175.57C49.2728 175.01 48.9648 174.59 48.5728 174.31C48.1808 174.021 47.7281 173.876 47.2148 173.876C46.7108 173.876 46.2628 174.021 45.8708 174.31C45.4788 174.59 45.1708 175.01 44.9468 175.57C44.7321 176.121 44.6248 176.807 44.6248 177.628C44.6248 178.449 44.7321 179.14 44.9468 179.7C45.1708 180.26 45.4788 180.685 45.8708 180.974C46.2628 181.254 46.7154 181.394 47.2288 181.394Z" fill="#9EA3AE"/>
<path d="M36.0225 263.12C35.3985 263.12 34.8265 262.944 34.3065 262.592C33.7945 262.24 33.3865 261.744 33.0825 261.104C32.7785 260.456 32.6265 259.696 32.6265 258.824C32.6265 257.952 32.7745 257.196 33.0705 256.556C33.3745 255.916 33.7825 255.424 34.2945 255.08C34.8065 254.728 35.3705 254.552 35.9865 254.552C36.6185 254.552 37.1905 254.728 37.7025 255.08C38.2145 255.424 38.6185 255.916 38.9145 256.556C39.2185 257.196 39.3705 257.956 39.3705 258.836C39.3705 259.708 39.2185 260.468 38.9145 261.116C38.6185 261.756 38.2145 262.252 37.7025 262.604C37.1985 262.948 36.6385 263.12 36.0225 263.12ZM35.9985 262.052C36.4385 262.052 36.8225 261.932 37.1505 261.692C37.4865 261.444 37.7505 261.08 37.9425 260.6C38.1345 260.12 38.2305 259.528 38.2305 258.824C38.2305 258.12 38.1345 257.532 37.9425 257.06C37.7505 256.58 37.4865 256.22 37.1505 255.98C36.8145 255.732 36.4265 255.608 35.9865 255.608C35.5545 255.608 35.1705 255.732 34.8345 255.98C34.4985 256.22 34.2345 256.58 34.0425 257.06C33.8585 257.532 33.7665 258.12 33.7665 258.824C33.7665 259.528 33.8585 260.12 34.0425 260.6C34.2345 261.08 34.4985 261.444 34.8345 261.692C35.1705 261.932 35.5585 262.052 35.9985 262.052Z" fill="white"/>
<path d="M82 240L127.937 206.152C140.372 196.989 157.086 196.339 170.974 203.097C186.484 210.645 207.324 219.173 224.5 220.5C251.655 222.598 291.878 208.412 297.769 206.269C298.276 206.085 298.748 205.895 299.244 205.684L362.587 178.763C372.697 174.466 384.172 174.755 394.053 179.554L442.111 202.897C446.334 204.948 450.9 206.199 455.579 206.586L521 212" stroke="#A182F8" stroke-linejoin="bevel"/>
<path d="M82 223.5L148.39 215.607C151.781 215.204 155.103 214.346 158.264 213.055L221.897 187.083C225.281 185.702 228.449 183.839 231.301 181.553L275.041 146.499C288.324 135.854 307.065 135.341 320.911 145.243L357.03 171.075C368.928 179.585 384.654 180.509 397.467 173.453L430.734 155.132C440.136 149.954 451.29 148.994 461.438 152.489L521 173" stroke="#65A8F6" stroke-linejoin="bevel"/>
<path d="M449 175.5L449.17 175.03L449.124 175.016L449 175.5ZM283.451 157.782L283.186 158.206L283.451 157.782ZM177.569 162.124L177.284 161.713L177.569 162.124ZM81.6831 119.887L131.484 160.696L132.118 159.923L82.3169 119.113L81.6831 119.887ZM177.854 162.535L210.709 139.707L210.139 138.886L177.284 161.713L177.854 162.535ZM251.982 138.703L283.186 158.206L283.716 157.358L252.512 137.855L251.982 138.703ZM325.788 166.477L366.391 159.296L366.217 158.311L325.614 165.493L325.788 166.477ZM386.409 160.044L448.876 175.984L449.124 175.016L386.656 159.076L386.409 160.044ZM448.83 175.97L520.83 201.97L521.17 201.03L449.17 175.03L448.83 175.97ZM366.391 159.296C373.041 158.12 379.865 158.375 386.409 160.044L386.656 159.076C379.975 157.371 373.007 157.11 366.217 158.311L366.391 159.296ZM283.186 158.206C295.875 166.137 311.053 169.083 325.788 166.477L325.614 165.493C311.122 168.056 296.195 165.157 283.716 157.358L283.186 158.206ZM210.709 139.707C223.028 131.148 239.262 130.753 251.982 138.703L252.512 137.855C239.452 129.693 222.786 130.098 210.139 138.886L210.709 139.707ZM131.484 160.696C144.794 171.602 163.724 172.353 177.854 162.535L177.284 161.713C163.52 171.277 145.082 170.546 132.118 159.923L131.484 160.696Z" fill="#F88284"/>
<path d="M82 163L139.279 146.692C148.855 143.965 159.043 144.284 168.43 147.605L221.75 166.466C225.568 167.817 229.2 169.645 232.559 171.908L279.863 203.772C292.242 212.111 307.796 214.217 321.947 209.469L366.721 194.448C373.488 192.178 379.664 188.427 384.799 183.468L430.771 139.07C442.726 127.525 459.802 122.985 475.912 127.069L521 138.5" stroke="#EE82F8" stroke-linejoin="bevel"/>
<g filter="url(#filter0_f_103_137209)">
<path d="M82 242L127.937 208.152C140.372 198.989 157.086 198.339 170.974 205.097C186.484 212.645 207.324 221.173 224.5 222.5C251.655 224.598 291.878 210.412 297.769 208.269C298.276 208.085 298.748 207.895 299.244 207.684L362.587 180.763C372.697 176.466 384.172 176.755 394.053 181.554L442.111 204.897C446.334 206.948 450.9 208.199 455.579 208.586L521 214" stroke="#A182F8" stroke-linejoin="bevel"/>
</g>
<g filter="url(#filter1_f_103_137209)">
<path d="M82 225.5L148.39 217.607C151.781 217.204 155.103 216.346 158.264 215.055L221.897 189.083C225.281 187.702 228.449 185.839 231.301 183.553L275.041 148.499C288.324 137.854 307.065 137.341 320.911 147.243L357.03 173.075C368.928 181.585 384.654 182.509 397.467 175.453L430.734 157.132C440.136 151.954 451.29 150.994 461.438 154.489L521 175" stroke="#65A8F6" stroke-linejoin="bevel"/>
</g>
<g filter="url(#filter2_f_103_137209)">
<path d="M82 121.5L131.801 162.309C144.938 173.074 163.622 173.815 177.569 164.124L210.424 141.296C222.907 132.623 239.357 132.223 252.247 140.279L283.451 159.782C296.035 167.647 311.088 170.57 325.701 167.985L366.304 160.803C373.024 159.615 379.92 159.873 386.532 161.56L449 177.5L521 203.5" stroke="#F882AD" stroke-linejoin="bevel"/>
</g>
<g filter="url(#filter3_f_103_137209)">
<path d="M82 165L139.279 148.692C148.855 145.965 159.043 146.284 168.43 149.605L221.75 168.466C225.568 169.817 229.2 171.645 232.559 173.908L279.863 205.772C292.242 214.111 307.796 216.217 321.947 211.469L366.721 196.448C373.488 194.178 379.664 190.427 384.799 185.468L430.771 141.07C442.726 129.525 459.802 124.985 475.912 129.069L521 140.5" stroke="#EE82F8" stroke-linejoin="bevel"/>
</g>
<path d="M228 128V243" stroke="url(#paint0_linear_103_137209)" stroke-dasharray="6 2"/>
<circle cx="228" cy="132" r="3.5" fill="#F88284" stroke="white"/>
<circle cx="155" cy="169" r="3.5" fill="#F88284" stroke="white"/>
<circle cx="301" cy="165" r="3.5" fill="#F88284" stroke="white"/>
<circle cx="377" cy="158" r="3.5" fill="#F88284" stroke="white"/>
<circle cx="521" cy="202" r="3.5" fill="#F88284" stroke="white"/>
<circle cx="450" cy="176" r="3.5" fill="#F88284" stroke="white"/>
<circle cx="82" cy="121" r="3.5" fill="#F88284" stroke="white"/>
<circle cx="82" cy="163" r="3.5" fill="#EE82F8" stroke="white"/>
<circle cx="155" cy="145" r="3.5" fill="#EE82F8" stroke="white"/>
<circle cx="228" cy="169" r="3.5" fill="#EE82F8" stroke="white"/>
<circle cx="301" cy="211" r="3.5" fill="#EE82F8" stroke="white"/>
<circle cx="377" cy="190" r="3.5" fill="#EE82F8" stroke="white"/>
<circle cx="450" cy="127" r="3.5" fill="#EE82F8" stroke="white"/>
<circle cx="521" cy="139" r="3.5" fill="#EE82F8" stroke="white"/>
<circle cx="82" cy="223" r="3.5" fill="#829CF8" stroke="white"/>
<circle cx="155" cy="215" r="3.5" fill="#829CF8" stroke="white"/>
<circle cx="228" cy="184" r="3.5" fill="#829CF8" stroke="white"/>
<circle cx="301" cy="138" r="3.5" fill="#829CF8" stroke="white"/>
<circle cx="377" cy="178" r="3.5" fill="#829CF8" stroke="white"/>
<circle cx="450" cy="150" r="3.5" fill="#829CF8" stroke="white"/>
<circle cx="521" cy="172" r="3.5" fill="#829CF8" stroke="white"/>
<circle cx="82" cy="240" r="3.5" fill="#A182F8" stroke="white"/>
<circle cx="155" cy="200" r="3.5" fill="#A182F8" stroke="white"/>
<circle cx="228" cy="220" r="3.5" fill="#A182F8" stroke="white"/>
<circle cx="301" cy="204" r="3.5" fill="#A182F8" stroke="white"/>
<circle cx="377" cy="175" r="3.5" fill="#A182F8" stroke="white"/>
<circle cx="450" cy="205" r="3.5" fill="#A182F8" stroke="white"/>
<circle cx="521" cy="213" r="3.5" fill="#A182F8" stroke="white"/>
<rect x="233.5" y="119.5" width="35" height="19" rx="3.5" fill="white"/>
<path d="M243.452 133V124.564H245.06V133H243.452ZM241.796 125.98V124.564H244.94V125.98H241.796ZM246.238 132.064L249.418 128.74C249.642 128.5 249.822 128.288 249.958 128.104C250.102 127.912 250.206 127.732 250.27 127.564C250.334 127.388 250.366 127.212 250.366 127.036C250.366 126.684 250.25 126.408 250.018 126.208C249.794 126.008 249.502 125.908 249.142 125.908C248.774 125.908 248.446 126.004 248.158 126.196C247.878 126.388 247.614 126.692 247.366 127.108L246.25 126.16C246.586 125.592 247.002 125.164 247.498 124.876C248.002 124.58 248.578 124.432 249.226 124.432C249.778 124.432 250.258 124.54 250.666 124.756C251.082 124.972 251.402 125.272 251.626 125.656C251.85 126.04 251.962 126.488 251.962 127C251.962 127.344 251.918 127.656 251.83 127.936C251.75 128.216 251.61 128.496 251.41 128.776C251.218 129.048 250.95 129.356 250.606 129.7L248.29 132.064H246.238ZM246.238 133V132.064L247.63 131.584H252.142V133H246.238ZM256.543 133.12C255.879 133.12 255.279 132.94 254.743 132.58C254.207 132.22 253.779 131.712 253.459 131.056C253.147 130.4 252.991 129.636 252.991 128.764C252.991 127.892 253.147 127.132 253.459 126.484C253.771 125.836 254.191 125.332 254.719 124.972C255.255 124.612 255.851 124.432 256.507 124.432C257.179 124.432 257.779 124.612 258.307 124.972C258.843 125.332 259.267 125.84 259.579 126.496C259.891 127.144 260.047 127.908 260.047 128.788C260.047 129.66 259.891 130.424 259.579 131.08C259.267 131.728 258.847 132.232 258.319 132.592C257.791 132.944 257.199 133.12 256.543 133.12ZM256.519 131.644C256.903 131.644 257.235 131.536 257.515 131.32C257.795 131.104 258.011 130.784 258.163 130.36C258.323 129.936 258.403 129.408 258.403 128.776C258.403 128.144 258.323 127.616 258.163 127.192C258.011 126.768 257.791 126.452 257.503 126.244C257.223 126.028 256.891 125.92 256.507 125.92C256.131 125.92 255.803 126.028 255.523 126.244C255.243 126.452 255.023 126.768 254.863 127.192C254.711 127.608 254.635 128.132 254.635 128.764C254.635 129.404 254.711 129.936 254.863 130.36C255.023 130.784 255.243 131.104 255.523 131.32C255.803 131.536 256.135 131.644 256.519 131.644Z" fill="#F88284"/>
<rect x="233.5" y="119.5" width="35" height="19" rx="3.5" stroke="#E1E1E6"/>
<rect x="0.5" y="0.5" width="565" height="287" rx="5.5" stroke="#E1E1E6"/>
<defs>
<filter id="filter0_f_103_137209" x="77.7036" y="173.235" width="447.337" height="73.167" filterUnits="userSpaceOnUse" color-interpolation-filters="sRGB">
<feFlood flood-opacity="0" result="BackgroundImageFix"/>
<feBlend mode="normal" in="SourceGraphic" in2="BackgroundImageFix" result="shape"/>
<feGaussianBlur stdDeviation="2" result="effect1_foregroundBlur_103_137209"/>
</filter>
<filter id="filter1_f_103_137209" x="77.9409" y="135.651" width="447.222" height="94.3447" filterUnits="userSpaceOnUse" color-interpolation-filters="sRGB">
<feFlood flood-opacity="0" result="BackgroundImageFix"/>
<feBlend mode="normal" in="SourceGraphic" in2="BackgroundImageFix" result="shape"/>
<feGaussianBlur stdDeviation="2" result="effect1_foregroundBlur_103_137209"/>
</filter>
<filter id="filter2_f_103_137209" x="77.6831" y="117.113" width="447.487" height="90.8574" filterUnits="userSpaceOnUse" color-interpolation-filters="sRGB">
<feFlood flood-opacity="0" result="BackgroundImageFix"/>
<feBlend mode="normal" in="SourceGraphic" in2="BackgroundImageFix" result="shape"/>
<feGaussianBlur stdDeviation="2" result="effect1_foregroundBlur_103_137209"/>
</filter>
<filter id="filter3_f_103_137209" x="77.8633" y="123.097" width="447.26" height="95.3652" filterUnits="userSpaceOnUse" color-interpolation-filters="sRGB">
<feFlood flood-opacity="0" result="BackgroundImageFix"/>
<feBlend mode="normal" in="SourceGraphic" in2="BackgroundImageFix" result="shape"/>
<feGaussianBlur stdDeviation="2" result="effect1_foregroundBlur_103_137209"/>
</filter>
<linearGradient id="paint0_linear_103_137209" x1="228.5" y1="128" x2="228.5" y2="243" gradientUnits="userSpaceOnUse">
<stop stop-color="#EEB3B7"/>
<stop offset="0.253125" stop-color="#EEB3B7" stop-opacity="0.517708"/>
<stop offset="1" stop-color="#EEB3B7" stop-opacity="0"/>
</linearGradient>
<clipPath id="clip0_103_137209">
<rect width="83" height="20" fill="white" transform="translate(459 28)"/>
</clipPath>
</defs>
</svg>
