<svg width="41" height="40" viewBox="0 0 41 40" fill="none" xmlns="http://www.w3.org/2000/svg">
<rect x="1" y="0.5" width="39" height="39" rx="3.5" fill="white"/>
<path d="M17 27H16.5C12.5 27 10.5 26 10.5 21V16C10.5 12 12.5 10 16.5 10H24.5C28.5 10 30.5 12 30.5 16V21C30.5 25 28.5 27 24.5 27H24C23.69 27 23.39 27.15 23.2 27.4L21.7 29.4C21.04 30.28 19.96 30.28 19.3 29.4L17.8 27.4C17.64 27.18 17.27 27 17 27Z" stroke="#2B817B" stroke-width="1.5" stroke-miterlimit="10" stroke-linecap="round" stroke-linejoin="round"/>
<path d="M15.5 16H25.5" stroke="#2B817B" stroke-width="1.5" stroke-linecap="round" stroke-linejoin="round"/>
<path d="M15.5 21H21.5" stroke="#2B817B" stroke-width="1.5" stroke-linecap="round" stroke-linejoin="round"/>
<rect x="1" y="0.5" width="39" height="39" rx="3.5" stroke="#80B3B0"/>
</svg>
