<svg width="587" height="306" viewBox="0 0 587 306" fill="none" xmlns="http://www.w3.org/2000/svg">
<rect x="0.5" y="0.5" width="586" height="305" rx="5.5" fill="white"/>
<path d="M31.96 45.2C30.96 45.2 30.0267 45.0133 29.16 44.64C28.2933 44.2667 27.5333 43.7533 26.88 43.1C26.2267 42.4333 25.7133 41.6667 25.34 40.8C24.98 39.92 24.8 38.98 24.8 37.98C24.8 36.98 24.98 36.0467 25.34 35.18C25.7133 34.3133 26.22 33.5533 26.86 32.9C27.5133 32.2333 28.2667 31.72 29.12 31.36C29.9867 30.9867 30.92 30.8 31.92 30.8C32.92 30.8 33.8467 30.9867 34.7 31.36C35.5667 31.72 36.3267 32.2333 36.98 32.9C37.6333 33.5533 38.14 34.32 38.5 35.2C38.8733 36.0667 39.06 37 39.06 38C39.06 39 38.8733 39.94 38.5 40.82C38.14 41.6867 37.6333 42.4467 36.98 43.1C36.34 43.7533 35.5867 44.2667 34.72 44.64C33.8667 45.0133 32.9467 45.2 31.96 45.2ZM31.92 43C32.8667 43 33.6933 42.7867 34.4 42.36C35.12 41.9333 35.68 41.3467 36.08 40.6C36.4933 39.84 36.7 38.9667 36.7 37.98C36.7 37.2467 36.58 36.58 36.34 35.98C36.1133 35.3667 35.7867 34.84 35.36 34.4C34.9333 33.9467 34.4267 33.6 33.84 33.36C33.2667 33.12 32.6267 33 31.92 33C30.9867 33 30.16 33.2133 29.44 33.64C28.7333 34.0533 28.1733 34.6333 27.76 35.38C27.36 36.1267 27.16 36.9933 27.16 37.98C27.16 38.7133 27.2733 39.3933 27.5 40.02C27.74 40.6333 28.0667 41.16 28.48 41.6C28.9067 42.04 29.4133 42.3867 30 42.64C30.5867 42.88 31.2267 43 31.92 43ZM44.6389 45L40.2589 35.4H42.6989L46.0389 43.22H44.5989L47.9589 35.4H50.2989L45.9189 45H44.6389ZM56.0417 45.2C55.0817 45.2 54.2151 44.9867 53.4417 44.56C52.6817 44.12 52.0751 43.52 51.6217 42.76C51.1817 42 50.9617 41.1467 50.9617 40.2C50.9617 39.2533 51.1817 38.4067 51.6217 37.66C52.0617 36.9 52.6551 36.3 53.4017 35.86C54.1617 35.42 55.0017 35.2 55.9217 35.2C56.8151 35.2 57.6017 35.4067 58.2817 35.82C58.9751 36.2333 59.5151 36.8 59.9017 37.52C60.3017 38.24 60.5017 39.06 60.5017 39.98C60.5017 40.14 60.4884 40.3067 60.4617 40.48C60.4484 40.64 60.4217 40.82 60.3817 41.02H52.5017V39.22H59.2417L58.4217 39.94C58.3951 39.3533 58.2817 38.86 58.0817 38.46C57.8817 38.06 57.5951 37.7533 57.2217 37.54C56.8617 37.3267 56.4151 37.22 55.8817 37.22C55.3217 37.22 54.8351 37.34 54.4217 37.58C54.0084 37.82 53.6884 38.16 53.4617 38.6C53.2351 39.0267 53.1217 39.54 53.1217 40.14C53.1217 40.74 53.2417 41.2667 53.4817 41.72C53.7217 42.1733 54.0617 42.5267 54.5017 42.78C54.9417 43.02 55.4484 43.14 56.0217 43.14C56.5151 43.14 56.9684 43.0533 57.3817 42.88C57.8084 42.7067 58.1684 42.4533 58.4617 42.12L59.8617 43.54C59.3951 44.0867 58.8284 44.5 58.1617 44.78C57.4951 45.06 56.7884 45.2 56.0417 45.2ZM62.5653 45V35.4H64.7653V45H62.5653ZM64.7653 39.66L64.0053 39.28C64.0053 38.0667 64.272 37.0867 64.8053 36.34C65.352 35.58 66.172 35.2 67.2653 35.2C67.7453 35.2 68.1786 35.2867 68.5653 35.46C68.952 35.6333 69.312 35.9133 69.6453 36.3L68.2053 37.78C68.032 37.5933 67.8386 37.46 67.6253 37.38C67.412 37.3 67.1653 37.26 66.8853 37.26C66.272 37.26 65.7653 37.4533 65.3653 37.84C64.9653 38.2267 64.7653 38.8333 64.7653 39.66ZM74.7369 45.2C73.8702 45.2 73.0835 44.98 72.3769 44.54C71.6835 44.1 71.1302 43.5067 70.7169 42.76C70.3169 42 70.1169 41.1533 70.1169 40.22C70.1169 39.2733 70.3169 38.4267 70.7169 37.68C71.1302 36.92 71.6835 36.32 72.3769 35.88C73.0835 35.4267 73.8702 35.2 74.7369 35.2C75.4702 35.2 76.1169 35.36 76.6769 35.68C77.2502 35.9867 77.7035 36.4133 78.0369 36.96C78.3702 37.5067 78.5369 38.1267 78.5369 38.82V41.58C78.5369 42.2733 78.3702 42.8933 78.0369 43.44C77.7169 43.9867 77.2702 44.42 76.6969 44.74C76.1235 45.0467 75.4702 45.2 74.7369 45.2ZM75.0969 43.12C75.9102 43.12 76.5635 42.8467 77.0569 42.3C77.5635 41.7533 77.8169 41.0533 77.8169 40.2C77.8169 39.6267 77.7035 39.12 77.4769 38.68C77.2502 38.24 76.9302 37.9 76.5169 37.66C76.1169 37.4067 75.6435 37.28 75.0969 37.28C74.5635 37.28 74.0902 37.4067 73.6769 37.66C73.2769 37.9 72.9569 38.24 72.7169 38.68C72.4902 39.12 72.3769 39.6267 72.3769 40.2C72.3769 40.7733 72.4902 41.28 72.7169 41.72C72.9569 42.16 73.2769 42.5067 73.6769 42.76C74.0902 43 74.5635 43.12 75.0969 43.12ZM77.6769 45V42.42L78.0569 40.08L77.6769 37.76V35.4H79.8769V45H77.6769ZM82.6184 45V30.6H84.8184V45H82.6184ZM87.5669 45V30.6H89.7669V45H87.5669ZM107.743 45.2C106.783 45.2 105.876 45.0133 105.023 44.64C104.17 44.2667 103.423 43.7533 102.783 43.1C102.143 42.4333 101.636 41.6667 101.263 40.8C100.903 39.92 100.723 38.98 100.723 37.98C100.723 36.98 100.903 36.0467 101.263 35.18C101.636 34.3133 102.143 33.5533 102.783 32.9C103.436 32.2333 104.196 31.72 105.063 31.36C105.943 30.9867 106.89 30.8 107.903 30.8C109.01 30.8 110.036 31.0133 110.983 31.44C111.93 31.8667 112.723 32.4733 113.363 33.26L111.803 34.82C111.39 34.2333 110.836 33.7867 110.143 33.48C109.45 33.16 108.703 33 107.903 33C106.943 33 106.096 33.2133 105.363 33.64C104.643 34.0533 104.083 34.6333 103.683 35.38C103.283 36.1267 103.083 36.9933 103.083 37.98C103.083 38.9667 103.283 39.84 103.683 40.6C104.096 41.3467 104.65 41.9333 105.343 42.36C106.036 42.7867 106.823 43 107.703 43C108.636 43 109.436 42.8333 110.103 42.5C110.783 42.1533 111.303 41.6467 111.663 40.98C112.023 40.3 112.203 39.4667 112.203 38.48L113.643 39.52H107.663V37.42H114.583V37.74C114.583 39.4067 114.283 40.7933 113.683 41.9C113.096 43.0067 112.29 43.8333 111.263 44.38C110.236 44.9267 109.063 45.2 107.743 45.2ZM116.872 45V35.4H119.072V45H116.872ZM119.072 39.66L118.312 39.28C118.312 38.0667 118.579 37.0867 119.112 36.34C119.659 35.58 120.479 35.2 121.572 35.2C122.052 35.2 122.486 35.2867 122.872 35.46C123.259 35.6333 123.619 35.9133 123.952 36.3L122.512 37.78C122.339 37.5933 122.146 37.46 121.932 37.38C121.719 37.3 121.472 37.26 121.192 37.26C120.579 37.26 120.072 37.4533 119.672 37.84C119.272 38.2267 119.072 38.8333 119.072 39.66ZM129.424 45.2C128.491 45.2 127.644 44.98 126.884 44.54C126.124 44.0867 125.517 43.48 125.064 42.72C124.624 41.96 124.404 41.1133 124.404 40.18C124.404 39.2467 124.624 38.4067 125.064 37.66C125.517 36.9133 126.124 36.32 126.884 35.88C127.644 35.4267 128.491 35.2 129.424 35.2C130.371 35.2 131.224 35.42 131.984 35.86C132.744 36.3 133.344 36.9 133.784 37.66C134.237 38.4067 134.464 39.2467 134.464 40.18C134.464 41.1133 134.237 41.96 133.784 42.72C133.344 43.48 132.744 44.0867 131.984 44.54C131.224 44.98 130.371 45.2 129.424 45.2ZM129.424 43.08C129.971 43.08 130.451 42.96 130.864 42.72C131.291 42.4667 131.617 42.12 131.844 41.68C132.084 41.24 132.204 40.74 132.204 40.18C132.204 39.62 132.084 39.1267 131.844 38.7C131.604 38.2733 131.277 37.94 130.864 37.7C130.451 37.4467 129.971 37.32 129.424 37.32C128.891 37.32 128.411 37.4467 127.984 37.7C127.571 37.94 127.244 38.2733 127.004 38.7C126.777 39.1267 126.664 39.62 126.664 40.18C126.664 40.74 126.777 41.24 127.004 41.68C127.244 42.12 127.571 42.4667 127.984 42.72C128.411 42.96 128.891 43.08 129.424 43.08ZM139.159 45L135.299 35.4H137.579L140.179 42.38L139.499 42.4L142.039 35.4H143.319L145.859 42.4L145.179 42.38L147.779 35.4H150.059L146.199 45H144.919L142.319 38.36H143.039L140.439 45H139.159ZM158.317 45V39.46C158.317 38.82 158.111 38.2933 157.697 37.88C157.297 37.4667 156.777 37.26 156.137 37.26C155.711 37.26 155.331 37.3533 154.997 37.54C154.664 37.7267 154.404 37.9867 154.217 38.32C154.031 38.6533 153.937 39.0333 153.937 39.46L153.077 38.98C153.077 38.2467 153.237 37.6 153.557 37.04C153.877 36.4667 154.317 36.02 154.877 35.7C155.451 35.3667 156.091 35.2 156.797 35.2C157.517 35.2 158.157 35.36 158.717 35.68C159.277 36 159.717 36.4467 160.037 37.02C160.357 37.58 160.517 38.2333 160.517 38.98V45H158.317ZM151.737 45V30.6H153.937V45H151.737ZM164.396 45V31.4H166.596V45H164.396ZM162.096 37.4V35.4H168.896V37.4H162.096Z" fill="black"/>
<g clip-path="url(#clip0_103_137160)">
<path d="M491.984 42.5V34.172H493.112V42.5H491.984ZM492.752 42.5V41.468H497.216V42.5H492.752ZM500.771 42.62C500.251 42.62 499.779 42.492 499.355 42.236C498.931 41.972 498.595 41.616 498.347 41.168C498.107 40.72 497.987 40.216 497.987 39.656C497.987 39.096 498.107 38.592 498.347 38.144C498.595 37.696 498.927 37.34 499.343 37.076C499.767 36.812 500.243 36.68 500.771 36.68C501.203 36.68 501.587 36.772 501.923 36.956C502.267 37.132 502.543 37.38 502.751 37.7C502.959 38.012 503.075 38.376 503.099 38.792V40.508C503.075 40.916 502.959 41.28 502.751 41.6C502.551 41.92 502.279 42.172 501.935 42.356C501.599 42.532 501.211 42.62 500.771 42.62ZM500.951 41.6C501.487 41.6 501.919 41.42 502.247 41.06C502.575 40.692 502.739 40.224 502.739 39.656C502.739 39.264 502.663 38.924 502.511 38.636C502.367 38.34 502.159 38.112 501.887 37.952C501.615 37.784 501.299 37.7 500.939 37.7C500.579 37.7 500.259 37.784 499.979 37.952C499.707 38.12 499.491 38.352 499.331 38.648C499.179 38.936 499.103 39.268 499.103 39.644C499.103 40.028 499.179 40.368 499.331 40.664C499.491 40.952 499.711 41.18 499.991 41.348C500.271 41.516 500.591 41.6 500.951 41.6ZM502.667 42.5V40.964L502.871 39.572L502.667 38.192V36.8H503.759V42.5H502.667ZM507.323 42.62C507.003 42.62 506.699 42.58 506.411 42.5C506.131 42.412 505.871 42.292 505.631 42.14C505.391 41.98 505.183 41.792 505.007 41.576L505.703 40.88C505.911 41.136 506.151 41.328 506.423 41.456C506.695 41.576 506.999 41.636 507.335 41.636C507.671 41.636 507.931 41.58 508.115 41.468C508.299 41.348 508.391 41.184 508.391 40.976C508.391 40.768 508.315 40.608 508.163 40.496C508.019 40.376 507.831 40.28 507.599 40.208C507.367 40.128 507.119 40.052 506.855 39.98C506.599 39.9 506.355 39.8 506.123 39.68C505.891 39.56 505.699 39.396 505.547 39.188C505.403 38.98 505.331 38.704 505.331 38.36C505.331 38.016 505.415 37.72 505.583 37.472C505.751 37.216 505.983 37.02 506.279 36.884C506.583 36.748 506.947 36.68 507.371 36.68C507.819 36.68 508.215 36.76 508.559 36.92C508.911 37.072 509.199 37.304 509.423 37.616L508.727 38.312C508.567 38.104 508.367 37.944 508.127 37.832C507.895 37.72 507.631 37.664 507.335 37.664C507.023 37.664 506.783 37.72 506.615 37.832C506.455 37.936 506.375 38.084 506.375 38.276C506.375 38.468 506.447 38.616 506.591 38.72C506.735 38.824 506.923 38.912 507.155 38.984C507.395 39.056 507.643 39.132 507.899 39.212C508.155 39.284 508.399 39.384 508.631 39.512C508.863 39.64 509.051 39.812 509.195 40.028C509.347 40.244 509.423 40.528 509.423 40.88C509.423 41.416 509.231 41.84 508.847 42.152C508.471 42.464 507.963 42.62 507.323 42.62ZM511.688 42.5V34.412H512.768V42.5H511.688ZM510.284 37.784V36.8H514.172V37.784H510.284ZM520.579 39.116L517.303 34.172H518.611L521.251 38.216H520.663L523.315 34.172H524.599L521.299 39.116H520.579ZM520.387 42.5V38.372H521.515V42.5H520.387ZM526.778 42.62C526.21 42.62 525.698 42.492 525.242 42.236C524.786 41.972 524.426 41.616 524.162 41.168C523.898 40.72 523.766 40.212 523.766 39.644C523.766 39.084 523.894 38.58 524.15 38.132C524.414 37.684 524.766 37.332 525.206 37.076C525.654 36.812 526.154 36.68 526.706 36.68C527.234 36.68 527.698 36.8 528.098 37.04C528.506 37.28 528.822 37.612 529.046 38.036C529.278 38.46 529.394 38.94 529.394 39.476C529.394 39.556 529.39 39.644 529.382 39.74C529.374 39.828 529.358 39.932 529.334 40.052H524.522V39.152H528.758L528.362 39.5C528.362 39.116 528.294 38.792 528.158 38.528C528.022 38.256 527.83 38.048 527.582 37.904C527.334 37.752 527.034 37.676 526.682 37.676C526.314 37.676 525.99 37.756 525.71 37.916C525.43 38.076 525.214 38.3 525.062 38.588C524.91 38.876 524.834 39.216 524.834 39.608C524.834 40.008 524.914 40.36 525.074 40.664C525.234 40.96 525.462 41.192 525.758 41.36C526.054 41.52 526.394 41.6 526.778 41.6C527.098 41.6 527.39 41.544 527.654 41.432C527.926 41.32 528.158 41.152 528.35 40.928L529.046 41.636C528.774 41.956 528.438 42.2 528.038 42.368C527.646 42.536 527.226 42.62 526.778 42.62ZM533.175 42.62C532.655 42.62 532.183 42.492 531.759 42.236C531.335 41.972 530.999 41.616 530.751 41.168C530.511 40.72 530.391 40.216 530.391 39.656C530.391 39.096 530.511 38.592 530.751 38.144C530.999 37.696 531.331 37.34 531.747 37.076C532.171 36.812 532.647 36.68 533.175 36.68C533.607 36.68 533.991 36.772 534.327 36.956C534.671 37.132 534.947 37.38 535.155 37.7C535.363 38.012 535.479 38.376 535.503 38.792V40.508C535.479 40.916 535.363 41.28 535.155 41.6C534.955 41.92 534.683 42.172 534.339 42.356C534.003 42.532 533.615 42.62 533.175 42.62ZM533.355 41.6C533.891 41.6 534.323 41.42 534.651 41.06C534.979 40.692 535.143 40.224 535.143 39.656C535.143 39.264 535.067 38.924 534.915 38.636C534.771 38.34 534.563 38.112 534.291 37.952C534.019 37.784 533.703 37.7 533.343 37.7C532.983 37.7 532.663 37.784 532.383 37.952C532.111 38.12 531.895 38.352 531.735 38.648C531.583 38.936 531.507 39.268 531.507 39.644C531.507 40.028 531.583 40.368 531.735 40.664C531.895 40.952 532.115 41.18 532.395 41.348C532.675 41.516 532.995 41.6 533.355 41.6ZM535.071 42.5V40.964L535.275 39.572L535.071 38.192V36.8H536.163V42.5H535.071ZM537.916 42.5V36.8H538.996V42.5H537.916ZM538.996 39.248L538.588 39.068C538.588 38.34 538.756 37.76 539.092 37.328C539.428 36.896 539.912 36.68 540.544 36.68C540.832 36.68 541.092 36.732 541.324 36.836C541.556 36.932 541.772 37.096 541.972 37.328L541.264 38.06C541.144 37.932 541.012 37.84 540.868 37.784C540.724 37.728 540.556 37.7 540.364 37.7C539.964 37.7 539.636 37.828 539.38 38.084C539.124 38.34 538.996 38.728 538.996 39.248Z" fill="#2B817B"/>
<path d="M491 44H542.152V44.6H491V44Z" fill="#2B817B"/>
<path d="M559.6 35.459L554.167 40.8923C553.525 41.534 552.475 41.534 551.833 40.8923L546.4 35.459" stroke="#2B817B" stroke-width="1.5" stroke-miterlimit="10" stroke-linecap="round" stroke-linejoin="round"/>
</g>
<path d="M36.4039 91V81.284H37.7059V91H36.4039ZM34.4159 82.46V81.284H37.5659V82.46H34.4159ZM44.2254 91L41.1174 87.598L44.1974 84.35H45.7234L42.2934 87.934L42.3494 87.206L45.8494 91H44.2254ZM39.9694 91V81.004H41.2294V91H39.9694Z" fill="#9EA3AE"/>
<path d="M29.001 129L32.641 120.054L33.943 120.096L30.387 129H29.001ZM27.475 120.46V119.284H33.943V120.096L33.369 120.46H27.475ZM38.994 129.14C38.266 129.14 37.5987 128.935 36.992 128.524C36.3947 128.113 35.9187 127.535 35.564 126.788C35.2094 126.032 35.032 125.145 35.032 124.128C35.032 123.111 35.2047 122.229 35.55 121.482C35.9047 120.735 36.3807 120.161 36.978 119.76C37.5754 119.349 38.2334 119.144 38.952 119.144C39.6894 119.144 40.3567 119.349 40.954 119.76C41.5514 120.161 42.0227 120.735 42.368 121.482C42.7227 122.229 42.9 123.115 42.9 124.142C42.9 125.159 42.7227 126.046 42.368 126.802C42.0227 127.549 41.5514 128.127 40.954 128.538C40.366 128.939 39.7127 129.14 38.994 129.14ZM38.966 127.894C39.4794 127.894 39.9274 127.754 40.31 127.474C40.702 127.185 41.01 126.76 41.234 126.2C41.458 125.64 41.57 124.949 41.57 124.128C41.57 123.307 41.458 122.621 41.234 122.07C41.01 121.51 40.702 121.09 40.31 120.81C39.918 120.521 39.4654 120.376 38.952 120.376C38.448 120.376 38 120.521 37.608 120.81C37.216 121.09 36.908 121.51 36.684 122.07C36.4694 122.621 36.362 123.307 36.362 124.128C36.362 124.949 36.4694 125.64 36.684 126.2C36.908 126.76 37.216 127.185 37.608 127.474C38 127.754 38.4527 127.894 38.966 127.894ZM48.3915 129.14C47.6635 129.14 46.9962 128.935 46.3895 128.524C45.7922 128.113 45.3162 127.535 44.9615 126.788C44.6069 126.032 44.4295 125.145 44.4295 124.128C44.4295 123.111 44.6022 122.229 44.9475 121.482C45.3022 120.735 45.7782 120.161 46.3755 119.76C46.9729 119.349 47.6309 119.144 48.3495 119.144C49.0869 119.144 49.7542 119.349 50.3515 119.76C50.9489 120.161 51.4202 120.735 51.7655 121.482C52.1202 122.229 52.2975 123.115 52.2975 124.142C52.2975 125.159 52.1202 126.046 51.7655 126.802C51.4202 127.549 50.9489 128.127 50.3515 128.538C49.7635 128.939 49.1102 129.14 48.3915 129.14ZM48.3635 127.894C48.8769 127.894 49.3249 127.754 49.7075 127.474C50.0995 127.185 50.4075 126.76 50.6315 126.2C50.8555 125.64 50.9675 124.949 50.9675 124.128C50.9675 123.307 50.8555 122.621 50.6315 122.07C50.4075 121.51 50.0995 121.09 49.7075 120.81C49.3155 120.521 48.8629 120.376 48.3495 120.376C47.8455 120.376 47.3975 120.521 47.0055 120.81C46.6135 121.09 46.3055 121.51 46.0815 122.07C45.8669 122.621 45.7595 123.307 45.7595 124.128C45.7595 124.949 45.8669 125.64 46.0815 126.2C46.3055 126.76 46.6135 127.185 47.0055 127.474C47.3975 127.754 47.8502 127.894 48.3635 127.894Z" fill="#9EA3AE"/>
<path d="M30.2874 167.14C29.6247 167.14 29.0321 167.023 28.5094 166.79C27.9961 166.547 27.5621 166.197 27.2074 165.74L28.1034 164.844C28.3181 165.171 28.6121 165.432 28.9854 165.628C29.3681 165.815 29.7927 165.908 30.2594 165.908C30.6981 165.908 31.0807 165.824 31.4074 165.656C31.7434 165.488 32.0047 165.255 32.1914 164.956C32.3874 164.648 32.4854 164.284 32.4854 163.864C32.4854 163.435 32.3921 163.071 32.2054 162.772C32.0187 162.473 31.7667 162.249 31.4494 162.1C31.1414 161.941 30.8007 161.862 30.4274 161.862C30.0447 161.862 29.6947 161.909 29.3774 162.002C29.0694 162.095 28.7754 162.254 28.4954 162.478L28.5094 161.638C28.6681 161.442 28.8501 161.283 29.0554 161.162C29.2607 161.041 29.4941 160.947 29.7554 160.882C30.0167 160.817 30.3201 160.784 30.6654 160.784C31.3374 160.784 31.9067 160.924 32.3734 161.204C32.8401 161.484 33.1947 161.862 33.4374 162.338C33.6894 162.814 33.8154 163.346 33.8154 163.934C33.8154 164.55 33.6614 165.101 33.3534 165.586C33.0547 166.071 32.6394 166.454 32.1074 166.734C31.5754 167.005 30.9687 167.14 30.2874 167.14ZM28.4954 162.478L27.7814 161.764L28.2154 157.284H29.4194L28.9294 161.89L28.4954 162.478ZM28.4814 158.46L28.2154 157.284H33.3254V158.46H28.4814ZM39.2196 167.14C38.4916 167.14 37.8243 166.935 37.2176 166.524C36.6203 166.113 36.1443 165.535 35.7896 164.788C35.4349 164.032 35.2576 163.145 35.2576 162.128C35.2576 161.111 35.4303 160.229 35.7756 159.482C36.1303 158.735 36.6063 158.161 37.2036 157.76C37.8009 157.349 38.4589 157.144 39.1776 157.144C39.9149 157.144 40.5823 157.349 41.1796 157.76C41.7769 158.161 42.2483 158.735 42.5936 159.482C42.9483 160.229 43.1256 161.115 43.1256 162.142C43.1256 163.159 42.9483 164.046 42.5936 164.802C42.2483 165.549 41.7769 166.127 41.1796 166.538C40.5916 166.939 39.9383 167.14 39.2196 167.14ZM39.1916 165.894C39.7049 165.894 40.1529 165.754 40.5356 165.474C40.9276 165.185 41.2356 164.76 41.4596 164.2C41.6836 163.64 41.7956 162.949 41.7956 162.128C41.7956 161.307 41.6836 160.621 41.4596 160.07C41.2356 159.51 40.9276 159.09 40.5356 158.81C40.1436 158.521 39.6909 158.376 39.1776 158.376C38.6736 158.376 38.2256 158.521 37.8336 158.81C37.4416 159.09 37.1336 159.51 36.9096 160.07C36.6949 160.621 36.5876 161.307 36.5876 162.128C36.5876 162.949 36.6949 163.64 36.9096 164.2C37.1336 164.76 37.4416 165.185 37.8336 165.474C38.2256 165.754 38.6783 165.894 39.1916 165.894ZM48.6171 167.14C47.8891 167.14 47.2218 166.935 46.6151 166.524C46.0178 166.113 45.5418 165.535 45.1871 164.788C44.8324 164.032 44.6551 163.145 44.6551 162.128C44.6551 161.111 44.8278 160.229 45.1731 159.482C45.5278 158.735 46.0038 158.161 46.6011 157.76C47.1984 157.349 47.8564 157.144 48.5751 157.144C49.3124 157.144 49.9798 157.349 50.5771 157.76C51.1744 158.161 51.6458 158.735 51.9911 159.482C52.3458 160.229 52.5231 161.115 52.5231 162.142C52.5231 163.159 52.3458 164.046 51.9911 164.802C51.6458 165.549 51.1744 166.127 50.5771 166.538C49.9891 166.939 49.3358 167.14 48.6171 167.14ZM48.5891 165.894C49.1024 165.894 49.5504 165.754 49.9331 165.474C50.3251 165.185 50.6331 164.76 50.8571 164.2C51.0811 163.64 51.1931 162.949 51.1931 162.128C51.1931 161.307 51.0811 160.621 50.8571 160.07C50.6331 159.51 50.3251 159.09 49.9331 158.81C49.5411 158.521 49.0884 158.376 48.5751 158.376C48.0711 158.376 47.6231 158.521 47.2311 158.81C46.8391 159.09 46.5311 159.51 46.3071 160.07C46.0924 160.621 45.9851 161.307 45.9851 162.128C45.9851 162.949 46.0924 163.64 46.3071 164.2C46.5311 164.76 46.8391 165.185 47.2311 165.474C47.6231 165.754 48.0758 165.894 48.5891 165.894Z" fill="#9EA3AE"/>
<path d="M28.084 204.202L31.668 200.422C32.032 200.049 32.3167 199.727 32.522 199.456C32.7274 199.176 32.872 198.919 32.956 198.686C33.0494 198.453 33.096 198.21 33.096 197.958C33.096 197.463 32.9374 197.076 32.62 196.796C32.3027 196.516 31.892 196.376 31.388 196.376C30.8934 196.376 30.4594 196.497 30.086 196.74C29.7127 196.973 29.3814 197.337 29.092 197.832L28.168 197.062C28.5507 196.427 29.0127 195.951 29.554 195.634C30.0954 195.307 30.7207 195.144 31.43 195.144C32.0274 195.144 32.5454 195.261 32.984 195.494C33.432 195.727 33.7774 196.054 34.02 196.474C34.2627 196.894 34.384 197.384 34.384 197.944C34.384 198.345 34.3327 198.705 34.23 199.022C34.1367 199.339 33.964 199.666 33.712 200.002C33.4694 200.329 33.1287 200.721 32.69 201.178L29.792 204.16L28.084 204.202ZM28.084 205V204.202L29.204 203.824H34.608V205H28.084ZM38.8783 205.14C38.2156 205.14 37.6229 205.023 37.1003 204.79C36.5869 204.547 36.1529 204.197 35.7983 203.74L36.6943 202.844C36.9089 203.171 37.2029 203.432 37.5763 203.628C37.9589 203.815 38.3836 203.908 38.8503 203.908C39.2889 203.908 39.6716 203.824 39.9983 203.656C40.3343 203.488 40.5956 203.255 40.7823 202.956C40.9783 202.648 41.0763 202.284 41.0763 201.864C41.0763 201.435 40.9829 201.071 40.7963 200.772C40.6096 200.473 40.3576 200.249 40.0403 200.1C39.7323 199.941 39.3916 199.862 39.0183 199.862C38.6356 199.862 38.2856 199.909 37.9683 200.002C37.6603 200.095 37.3663 200.254 37.0863 200.478L37.1003 199.638C37.2589 199.442 37.4409 199.283 37.6463 199.162C37.8516 199.041 38.0849 198.947 38.3463 198.882C38.6076 198.817 38.9109 198.784 39.2563 198.784C39.9283 198.784 40.4976 198.924 40.9643 199.204C41.4309 199.484 41.7856 199.862 42.0283 200.338C42.2803 200.814 42.4062 201.346 42.4062 201.934C42.4062 202.55 42.2523 203.101 41.9443 203.586C41.6456 204.071 41.2303 204.454 40.6983 204.734C40.1663 205.005 39.5596 205.14 38.8783 205.14ZM37.0863 200.478L36.3723 199.764L36.8063 195.284H38.0103L37.5203 199.89L37.0863 200.478ZM37.0723 196.46L36.8063 195.284H41.9163V196.46H37.0723ZM47.8105 205.14C47.0825 205.14 46.4151 204.935 45.8085 204.524C45.2111 204.113 44.7351 203.535 44.3805 202.788C44.0258 202.032 43.8485 201.145 43.8485 200.128C43.8485 199.111 44.0211 198.229 44.3665 197.482C44.7211 196.735 45.1971 196.161 45.7945 195.76C46.3918 195.349 47.0498 195.144 47.7685 195.144C48.5058 195.144 49.1731 195.349 49.7705 195.76C50.3678 196.161 50.8391 196.735 51.1845 197.482C51.5391 198.229 51.7165 199.115 51.7165 200.142C51.7165 201.159 51.5391 202.046 51.1845 202.802C50.8391 203.549 50.3678 204.127 49.7705 204.538C49.1825 204.939 48.5291 205.14 47.8105 205.14ZM47.7825 203.894C48.2958 203.894 48.7438 203.754 49.1265 203.474C49.5185 203.185 49.8265 202.76 50.0505 202.2C50.2745 201.64 50.3865 200.949 50.3865 200.128C50.3865 199.307 50.2745 198.621 50.0505 198.07C49.8265 197.51 49.5185 197.09 49.1265 196.81C48.7345 196.521 48.2818 196.376 47.7685 196.376C47.2645 196.376 46.8165 196.521 46.4245 196.81C46.0325 197.09 45.7245 197.51 45.5005 198.07C45.2858 198.621 45.1785 199.307 45.1785 200.128C45.1785 200.949 45.2858 201.64 45.5005 202.2C45.7245 202.76 46.0325 203.185 46.4245 203.474C46.8165 203.754 47.2691 203.894 47.7825 203.894Z" fill="#9EA3AE"/>
<path d="M30.5977 243V233.284H31.8997V243H30.5977ZM28.6097 234.46V233.284H31.7597V234.46H28.6097ZM37.8593 243.14C37.1313 243.14 36.4639 242.935 35.8573 242.524C35.2599 242.113 34.7839 241.535 34.4293 240.788C34.0746 240.032 33.8973 239.145 33.8973 238.128C33.8973 237.111 34.0699 236.229 34.4153 235.482C34.7699 234.735 35.2459 234.161 35.8433 233.76C36.4406 233.349 37.0986 233.144 37.8173 233.144C38.5546 233.144 39.2219 233.349 39.8193 233.76C40.4166 234.161 40.8879 234.735 41.2333 235.482C41.5879 236.229 41.7653 237.115 41.7653 238.142C41.7653 239.159 41.5879 240.046 41.2333 240.802C40.8879 241.549 40.4166 242.127 39.8193 242.538C39.2313 242.939 38.5779 243.14 37.8593 243.14ZM37.8313 241.894C38.3446 241.894 38.7926 241.754 39.1753 241.474C39.5673 241.185 39.8753 240.76 40.0993 240.2C40.3233 239.64 40.4353 238.949 40.4353 238.128C40.4353 237.307 40.3233 236.621 40.0993 236.07C39.8753 235.51 39.5673 235.09 39.1753 234.81C38.7833 234.521 38.3306 234.376 37.8173 234.376C37.3133 234.376 36.8653 234.521 36.4733 234.81C36.0813 235.09 35.7733 235.51 35.5493 236.07C35.3346 236.621 35.2273 237.307 35.2273 238.128C35.2273 238.949 35.3346 239.64 35.5493 240.2C35.7733 240.76 36.0813 241.185 36.4733 241.474C36.8653 241.754 37.3179 241.894 37.8313 241.894ZM47.2568 243.14C46.5288 243.14 45.8614 242.935 45.2548 242.524C44.6574 242.113 44.1814 241.535 43.8268 240.788C43.4721 240.032 43.2948 239.145 43.2948 238.128C43.2948 237.111 43.4674 236.229 43.8128 235.482C44.1674 234.735 44.6434 234.161 45.2408 233.76C45.8381 233.349 46.4961 233.144 47.2148 233.144C47.9521 233.144 48.6194 233.349 49.2168 233.76C49.8141 234.161 50.2854 234.735 50.6308 235.482C50.9854 236.229 51.1628 237.115 51.1628 238.142C51.1628 239.159 50.9854 240.046 50.6308 240.802C50.2854 241.549 49.8141 242.127 49.2168 242.538C48.6288 242.939 47.9754 243.14 47.2568 243.14ZM47.2288 241.894C47.7421 241.894 48.1901 241.754 48.5728 241.474C48.9648 241.185 49.2728 240.76 49.4968 240.2C49.7208 239.64 49.8328 238.949 49.8328 238.128C49.8328 237.307 49.7208 236.621 49.4968 236.07C49.2728 235.51 48.9648 235.09 48.5728 234.81C48.1808 234.521 47.7281 234.376 47.2148 234.376C46.7108 234.376 46.2628 234.521 45.8708 234.81C45.4788 235.09 45.1708 235.51 44.9468 236.07C44.7321 236.621 44.6248 237.307 44.6248 238.128C44.6248 238.949 44.7321 239.64 44.9468 240.2C45.1708 240.76 45.4788 241.185 45.8708 241.474C46.2628 241.754 46.7154 241.894 47.2288 241.894Z" fill="#9EA3AE"/>
<path d="M36.0225 278.12C35.3985 278.12 34.8265 277.944 34.3065 277.592C33.7945 277.24 33.3865 276.744 33.0825 276.104C32.7785 275.456 32.6265 274.696 32.6265 273.824C32.6265 272.952 32.7745 272.196 33.0705 271.556C33.3745 270.916 33.7825 270.424 34.2945 270.08C34.8065 269.728 35.3705 269.552 35.9865 269.552C36.6185 269.552 37.1905 269.728 37.7025 270.08C38.2145 270.424 38.6185 270.916 38.9145 271.556C39.2185 272.196 39.3705 272.956 39.3705 273.836C39.3705 274.708 39.2185 275.468 38.9145 276.116C38.6185 276.756 38.2145 277.252 37.7025 277.604C37.1985 277.948 36.6385 278.12 36.0225 278.12ZM35.9985 277.052C36.4385 277.052 36.8225 276.932 37.1505 276.692C37.4865 276.444 37.7505 276.08 37.9425 275.6C38.1345 275.12 38.2305 274.528 38.2305 273.824C38.2305 273.12 38.1345 272.532 37.9425 272.06C37.7505 271.58 37.4865 271.22 37.1505 270.98C36.8145 270.732 36.4265 270.608 35.9865 270.608C35.5545 270.608 35.1705 270.732 34.8345 270.98C34.4985 271.22 34.2345 271.58 34.0425 272.06C33.8585 272.532 33.7665 273.12 33.7665 273.824C33.7665 274.528 33.8585 275.12 34.0425 275.6C34.2345 276.08 34.4985 276.444 34.8345 276.692C35.1705 276.932 35.5585 277.052 35.9985 277.052Z" fill="white"/>
<rect x="68" y="182" width="24" height="56" rx="4" fill="#A182F8"/>
<path d="M71.44 261.14C70.88 261.14 70.3853 261.033 69.956 260.818C69.536 260.594 69.1907 260.295 68.92 259.922L69.844 259.068C70.0213 259.329 70.2407 259.53 70.502 259.67C70.7727 259.81 71.0713 259.88 71.398 259.88C71.7247 259.88 72.014 259.81 72.266 259.67C72.518 259.53 72.714 259.325 72.854 259.054C73.0033 258.774 73.078 258.433 73.078 258.032V251.284H74.394V257.962C74.394 258.606 74.2633 259.166 74.002 259.642C73.75 260.118 73.4 260.487 72.952 260.748C72.5133 261.009 72.0093 261.14 71.44 261.14ZM79.1836 261.14C78.577 261.14 78.0263 260.991 77.5316 260.692C77.037 260.384 76.645 259.969 76.3556 259.446C76.0756 258.923 75.9356 258.335 75.9356 257.682C75.9356 257.029 76.0756 256.441 76.3556 255.918C76.645 255.395 77.0323 254.98 77.5176 254.672C78.0123 254.364 78.5676 254.21 79.1836 254.21C79.6876 254.21 80.1356 254.317 80.5276 254.532C80.929 254.737 81.251 255.027 81.4936 255.4C81.7363 255.764 81.8716 256.189 81.8996 256.674V258.676C81.8716 259.152 81.7363 259.577 81.4936 259.95C81.2603 260.323 80.943 260.617 80.5416 260.832C80.1496 261.037 79.697 261.14 79.1836 261.14ZM79.3936 259.95C80.019 259.95 80.523 259.74 80.9056 259.32C81.2883 258.891 81.4796 258.345 81.4796 257.682C81.4796 257.225 81.391 256.828 81.2136 256.492C81.0456 256.147 80.803 255.881 80.4856 255.694C80.1683 255.498 79.7996 255.4 79.3796 255.4C78.9596 255.4 78.5863 255.498 78.2596 255.694C77.9423 255.89 77.6903 256.161 77.5036 256.506C77.3263 256.842 77.2376 257.229 77.2376 257.668C77.2376 258.116 77.3263 258.513 77.5036 258.858C77.6903 259.194 77.947 259.46 78.2736 259.656C78.6003 259.852 78.9736 259.95 79.3936 259.95ZM81.3956 261V259.208L81.6336 257.584L81.3956 255.974V254.35H82.6696V261H81.3956ZM89.2081 261V257.122C89.2081 256.618 89.0494 256.203 88.7321 255.876C88.4147 255.549 88.0041 255.386 87.5001 255.386C87.1641 255.386 86.8654 255.461 86.6041 255.61C86.3427 255.759 86.1374 255.965 85.9881 256.226C85.8387 256.487 85.7641 256.786 85.7641 257.122L85.2461 256.828C85.2461 256.324 85.3581 255.876 85.5821 255.484C85.8061 255.092 86.1187 254.784 86.5201 254.56C86.9214 254.327 87.3741 254.21 87.8781 254.21C88.3821 254.21 88.8254 254.336 89.2081 254.588C89.6001 254.84 89.9081 255.171 90.1321 255.582C90.3561 255.983 90.4681 256.413 90.4681 256.87V261H89.2081ZM84.5041 261V254.35H85.7641V261H84.5041Z" fill="#9EA3AE"/>
<rect x="110" y="174" width="24" height="64" rx="2" fill="#C4B1FB"/>
<path d="M111.148 261V251.284H112.464V261H111.148ZM112.044 256.73V255.526H117.112V256.73H112.044ZM112.044 252.488V251.284H117.35V252.488H112.044ZM121.674 261.14C121.011 261.14 120.414 260.991 119.882 260.692C119.35 260.384 118.93 259.969 118.622 259.446C118.314 258.923 118.16 258.331 118.16 257.668C118.16 257.015 118.309 256.427 118.608 255.904C118.916 255.381 119.327 254.971 119.84 254.672C120.363 254.364 120.946 254.21 121.59 254.21C122.206 254.21 122.747 254.35 123.214 254.63C123.69 254.91 124.059 255.297 124.32 255.792C124.591 256.287 124.726 256.847 124.726 257.472C124.726 257.565 124.721 257.668 124.712 257.78C124.703 257.883 124.684 258.004 124.656 258.144H119.042V257.094H123.984L123.522 257.5C123.522 257.052 123.443 256.674 123.284 256.366C123.125 256.049 122.901 255.806 122.612 255.638C122.323 255.461 121.973 255.372 121.562 255.372C121.133 255.372 120.755 255.465 120.428 255.652C120.101 255.839 119.849 256.1 119.672 256.436C119.495 256.772 119.406 257.169 119.406 257.626C119.406 258.093 119.499 258.503 119.686 258.858C119.873 259.203 120.139 259.474 120.484 259.67C120.829 259.857 121.226 259.95 121.674 259.95C122.047 259.95 122.388 259.885 122.696 259.754C123.013 259.623 123.284 259.427 123.508 259.166L124.32 259.992C124.003 260.365 123.611 260.65 123.144 260.846C122.687 261.042 122.197 261.14 121.674 261.14ZM129.6 261.14C129.096 261.14 128.638 261.037 128.228 260.832C127.826 260.617 127.504 260.323 127.262 259.95C127.019 259.577 126.884 259.152 126.856 258.676V256.674C126.884 256.189 127.019 255.764 127.262 255.4C127.514 255.027 127.84 254.737 128.242 254.532C128.652 254.317 129.105 254.21 129.6 254.21C130.206 254.21 130.752 254.364 131.238 254.672C131.732 254.98 132.12 255.395 132.4 255.918C132.68 256.441 132.82 257.029 132.82 257.682C132.82 258.335 132.68 258.923 132.4 259.446C132.12 259.969 131.732 260.384 131.238 260.692C130.752 260.991 130.206 261.14 129.6 261.14ZM129.39 259.95C129.81 259.95 130.178 259.852 130.496 259.656C130.813 259.46 131.065 259.194 131.252 258.858C131.438 258.513 131.532 258.116 131.532 257.668C131.532 257.229 131.438 256.837 131.252 256.492C131.065 256.147 130.813 255.881 130.496 255.694C130.178 255.498 129.814 255.4 129.404 255.4C128.984 255.4 128.615 255.498 128.298 255.694C127.98 255.881 127.733 256.147 127.556 256.492C127.378 256.837 127.29 257.234 127.29 257.682C127.29 258.121 127.374 258.513 127.542 258.858C127.719 259.194 127.966 259.46 128.284 259.656C128.61 259.852 128.979 259.95 129.39 259.95ZM126.1 261V251.004H127.36V255.974L127.122 257.584L127.36 259.208V261H126.1Z" fill="#9EA3AE"/>
<rect x="153" y="214" width="24" height="24" rx="2" fill="#E9E2FD"/>
<path d="M153.148 261V251.284H154.072L158.188 258.046H157.558L161.674 251.284H162.598V261H161.282V253.594L161.59 253.678L158.342 259.012H157.418L154.17 253.678L154.464 253.594V261H153.148ZM167.496 261.14C166.889 261.14 166.339 260.991 165.844 260.692C165.349 260.384 164.957 259.969 164.668 259.446C164.388 258.923 164.248 258.335 164.248 257.682C164.248 257.029 164.388 256.441 164.668 255.918C164.957 255.395 165.345 254.98 165.83 254.672C166.325 254.364 166.88 254.21 167.496 254.21C168 254.21 168.448 254.317 168.84 254.532C169.241 254.737 169.563 255.027 169.806 255.4C170.049 255.764 170.184 256.189 170.212 256.674V258.676C170.184 259.152 170.049 259.577 169.806 259.95C169.573 260.323 169.255 260.617 168.854 260.832C168.462 261.037 168.009 261.14 167.496 261.14ZM167.706 259.95C168.331 259.95 168.835 259.74 169.218 259.32C169.601 258.891 169.792 258.345 169.792 257.682C169.792 257.225 169.703 256.828 169.526 256.492C169.358 256.147 169.115 255.881 168.798 255.694C168.481 255.498 168.112 255.4 167.692 255.4C167.272 255.4 166.899 255.498 166.572 255.694C166.255 255.89 166.003 256.161 165.816 256.506C165.639 256.842 165.55 257.229 165.55 257.668C165.55 258.116 165.639 258.513 165.816 258.858C166.003 259.194 166.259 259.46 166.586 259.656C166.913 259.852 167.286 259.95 167.706 259.95ZM169.708 261V259.208L169.946 257.584L169.708 255.974V254.35H170.982V261H169.708ZM172.817 261V254.35H174.077V261H172.817ZM174.077 257.206L173.601 256.996C173.601 256.147 173.797 255.47 174.189 254.966C174.581 254.462 175.145 254.21 175.883 254.21C176.219 254.21 176.522 254.271 176.793 254.392C177.063 254.504 177.315 254.695 177.549 254.966L176.723 255.82C176.583 255.671 176.429 255.563 176.261 255.498C176.093 255.433 175.897 255.4 175.673 255.4C175.206 255.4 174.823 255.549 174.525 255.848C174.226 256.147 174.077 256.599 174.077 257.206Z" fill="#9EA3AE"/>
<rect x="196" y="222" width="24" height="16" rx="2" fill="#A182F8"/>
<path d="M196.434 261L200.41 251.284H201.362L205.324 261H203.896L200.634 252.782H201.124L197.834 261H196.434ZM198.324 258.802V257.654H203.434V258.802H198.324ZM210.172 261.14C209.668 261.14 209.211 261.037 208.8 260.832C208.399 260.617 208.077 260.323 207.834 259.95C207.591 259.577 207.456 259.152 207.428 258.676V256.674C207.456 256.189 207.591 255.764 207.834 255.4C208.086 255.027 208.413 254.737 208.814 254.532C209.225 254.317 209.677 254.21 210.172 254.21C210.779 254.21 211.325 254.364 211.81 254.672C212.305 254.98 212.692 255.395 212.972 255.918C213.252 256.441 213.392 257.029 213.392 257.682C213.392 258.335 213.252 258.923 212.972 259.446C212.692 259.969 212.305 260.384 211.81 260.692C211.325 260.991 210.779 261.14 210.172 261.14ZM209.962 259.95C210.382 259.95 210.751 259.852 211.068 259.656C211.385 259.46 211.637 259.194 211.824 258.858C212.011 258.513 212.104 258.116 212.104 257.668C212.104 257.229 212.011 256.837 211.824 256.492C211.637 256.147 211.385 255.881 211.068 255.694C210.751 255.498 210.387 255.4 209.976 255.4C209.556 255.4 209.187 255.498 208.87 255.694C208.553 255.881 208.305 256.147 208.128 256.492C207.951 256.837 207.862 257.234 207.862 257.682C207.862 258.121 207.946 258.513 208.114 258.858C208.291 259.194 208.539 259.46 208.856 259.656C209.183 259.852 209.551 259.95 209.962 259.95ZM206.672 263.786V254.35H207.932V256.1L207.694 257.71L207.932 259.334V263.786H206.672ZM214.82 261V254.35H216.08V261H214.82ZM216.08 257.206L215.604 256.996C215.604 256.147 215.8 255.47 216.192 254.966C216.584 254.462 217.149 254.21 217.886 254.21C218.222 254.21 218.526 254.271 218.796 254.392C219.067 254.504 219.319 254.695 219.552 254.966L218.726 255.82C218.586 255.671 218.432 255.563 218.264 255.498C218.096 255.433 217.9 255.4 217.676 255.4C217.21 255.4 216.827 255.549 216.528 255.848C216.23 256.147 216.08 256.599 216.08 257.206Z" fill="#9EA3AE"/>
<rect x="240" y="166" width="24" height="72" rx="2" fill="#C4B1FB"/>
<path d="M239.148 261V251.284H240.072L244.188 258.046H243.558L247.674 251.284H248.598V261H247.282V253.594L247.59 253.678L244.342 259.012H243.418L240.17 253.678L240.464 253.594V261H239.148ZM253.496 261.14C252.889 261.14 252.339 260.991 251.844 260.692C251.349 260.384 250.957 259.969 250.668 259.446C250.388 258.923 250.248 258.335 250.248 257.682C250.248 257.029 250.388 256.441 250.668 255.918C250.957 255.395 251.345 254.98 251.83 254.672C252.325 254.364 252.88 254.21 253.496 254.21C254 254.21 254.448 254.317 254.84 254.532C255.241 254.737 255.563 255.027 255.806 255.4C256.049 255.764 256.184 256.189 256.212 256.674V258.676C256.184 259.152 256.049 259.577 255.806 259.95C255.573 260.323 255.255 260.617 254.854 260.832C254.462 261.037 254.009 261.14 253.496 261.14ZM253.706 259.95C254.331 259.95 254.835 259.74 255.218 259.32C255.601 258.891 255.792 258.345 255.792 257.682C255.792 257.225 255.703 256.828 255.526 256.492C255.358 256.147 255.115 255.881 254.798 255.694C254.481 255.498 254.112 255.4 253.692 255.4C253.272 255.4 252.899 255.498 252.572 255.694C252.255 255.89 252.003 256.161 251.816 256.506C251.639 256.842 251.55 257.229 251.55 257.668C251.55 258.116 251.639 258.513 251.816 258.858C252.003 259.194 252.259 259.46 252.586 259.656C252.913 259.852 253.286 259.95 253.706 259.95ZM255.708 261V259.208L255.946 257.584L255.708 255.974V254.35H256.982V261H255.708ZM261.001 261.056L258.117 254.35H259.517L261.659 259.6H261.211L263.465 254.35H264.865L261.757 261.056H261.001ZM259.097 263.786L261.057 259.768L261.757 261.056L260.497 263.786H259.097Z" fill="#9EA3AE"/>
<rect x="284" y="146" width="24" height="92" rx="2" fill="#E9E2FD"/>
<path d="M287.94 261.14C287.38 261.14 286.885 261.033 286.456 260.818C286.036 260.594 285.691 260.295 285.42 259.922L286.344 259.068C286.521 259.329 286.741 259.53 287.002 259.67C287.273 259.81 287.571 259.88 287.898 259.88C288.225 259.88 288.514 259.81 288.766 259.67C289.018 259.53 289.214 259.325 289.354 259.054C289.503 258.774 289.578 258.433 289.578 258.032V251.284H290.894V257.962C290.894 258.606 290.763 259.166 290.502 259.642C290.25 260.118 289.9 260.487 289.452 260.748C289.013 261.009 288.509 261.14 287.94 261.14ZM295.544 261.14C294.993 261.14 294.498 261.019 294.06 260.776C293.63 260.524 293.294 260.179 293.052 259.74C292.809 259.301 292.688 258.793 292.688 258.214V254.35H293.948V258.158C293.948 258.522 294.008 258.839 294.13 259.11C294.26 259.371 294.447 259.572 294.69 259.712C294.932 259.852 295.217 259.922 295.544 259.922C296.038 259.922 296.426 259.768 296.706 259.46C296.986 259.143 297.126 258.709 297.126 258.158V254.35H298.386V258.214C298.386 258.793 298.264 259.301 298.022 259.74C297.779 260.179 297.443 260.524 297.014 260.776C296.594 261.019 296.104 261.14 295.544 261.14ZM304.778 261V257.122C304.778 256.618 304.62 256.203 304.302 255.876C303.985 255.549 303.574 255.386 303.07 255.386C302.734 255.386 302.436 255.461 302.174 255.61C301.913 255.759 301.708 255.965 301.558 256.226C301.409 256.487 301.334 256.786 301.334 257.122L300.816 256.828C300.816 256.324 300.928 255.876 301.152 255.484C301.376 255.092 301.689 254.784 302.09 254.56C302.492 254.327 302.944 254.21 303.448 254.21C303.952 254.21 304.396 254.336 304.778 254.588C305.17 254.84 305.478 255.171 305.702 255.582C305.926 255.983 306.038 256.413 306.038 256.87V261H304.778ZM300.074 261V254.35H301.334V261H300.074Z" fill="#9EA3AE"/>
<rect x="326" y="214" width="24" height="24" rx="2" fill="#A182F8"/>
<path d="M331.94 261.14C331.38 261.14 330.885 261.033 330.456 260.818C330.036 260.594 329.691 260.295 329.42 259.922L330.344 259.068C330.521 259.329 330.741 259.53 331.002 259.67C331.273 259.81 331.571 259.88 331.898 259.88C332.225 259.88 332.514 259.81 332.766 259.67C333.018 259.53 333.214 259.325 333.354 259.054C333.503 258.774 333.578 258.433 333.578 258.032V251.284H334.894V257.962C334.894 258.606 334.763 259.166 334.502 259.642C334.25 260.118 333.9 260.487 333.452 260.748C333.013 261.009 332.509 261.14 331.94 261.14ZM339.544 261.14C338.993 261.14 338.498 261.019 338.06 260.776C337.63 260.524 337.294 260.179 337.052 259.74C336.809 259.301 336.688 258.793 336.688 258.214V254.35H337.948V258.158C337.948 258.522 338.008 258.839 338.13 259.11C338.26 259.371 338.447 259.572 338.69 259.712C338.932 259.852 339.217 259.922 339.544 259.922C340.038 259.922 340.426 259.768 340.706 259.46C340.986 259.143 341.126 258.709 341.126 258.158V254.35H342.386V258.214C342.386 258.793 342.264 259.301 342.022 259.74C341.779 260.179 341.443 260.524 341.014 260.776C340.594 261.019 340.104 261.14 339.544 261.14ZM344.074 261V251.004H345.334V261H344.074Z" fill="#9EA3AE"/>
<rect x="368.5" y="190" width="24" height="48" rx="2" fill="#C4B1FB"/>
<path d="M368.434 261L372.41 251.284H373.362L377.324 261H375.896L372.634 252.782H373.124L369.834 261H368.434ZM370.324 258.802V257.654H375.434V258.802H370.324ZM381.114 261.14C380.563 261.14 380.069 261.019 379.63 260.776C379.201 260.524 378.865 260.179 378.622 259.74C378.379 259.301 378.258 258.793 378.258 258.214V254.35H379.518V258.158C379.518 258.522 379.579 258.839 379.7 259.11C379.831 259.371 380.017 259.572 380.26 259.712C380.503 259.852 380.787 259.922 381.114 259.922C381.609 259.922 381.996 259.768 382.276 259.46C382.556 259.143 382.696 258.709 382.696 258.158V254.35H383.956V258.214C383.956 258.793 383.835 259.301 383.592 259.74C383.349 260.179 383.013 260.524 382.584 260.776C382.164 261.019 381.674 261.14 381.114 261.14ZM388.403 263.926C387.721 263.926 387.115 263.8 386.583 263.548C386.06 263.296 385.64 262.941 385.323 262.484L386.135 261.658C386.405 262.003 386.727 262.265 387.101 262.442C387.474 262.629 387.917 262.722 388.431 262.722C389.112 262.722 389.649 262.54 390.041 262.176C390.442 261.821 390.643 261.341 390.643 260.734V259.082L390.867 257.584L390.643 256.1V254.35H391.903V260.734C391.903 261.369 391.753 261.924 391.455 262.4C391.165 262.876 390.755 263.249 390.223 263.52C389.7 263.791 389.093 263.926 388.403 263.926ZM388.403 260.888C387.796 260.888 387.25 260.743 386.765 260.454C386.289 260.165 385.911 259.768 385.631 259.264C385.351 258.751 385.211 258.177 385.211 257.542C385.211 256.907 385.351 256.343 385.631 255.848C385.911 255.344 386.289 254.947 386.765 254.658C387.25 254.359 387.796 254.21 388.403 254.21C388.925 254.21 389.387 254.313 389.789 254.518C390.19 254.723 390.507 255.013 390.741 255.386C390.983 255.75 391.114 256.179 391.133 256.674V258.438C391.105 258.923 390.969 259.353 390.727 259.726C390.493 260.09 390.176 260.375 389.775 260.58C389.373 260.785 388.916 260.888 388.403 260.888ZM388.655 259.698C389.065 259.698 389.425 259.609 389.733 259.432C390.05 259.255 390.293 259.007 390.461 258.69C390.629 258.363 390.713 257.985 390.713 257.556C390.713 257.127 390.624 256.753 390.447 256.436C390.279 256.109 390.041 255.857 389.733 255.68C389.425 255.493 389.061 255.4 388.641 255.4C388.221 255.4 387.852 255.493 387.535 255.68C387.217 255.857 386.965 256.109 386.779 256.436C386.601 256.753 386.513 257.122 386.513 257.542C386.513 257.962 386.601 258.335 386.779 258.662C386.965 258.989 387.217 259.245 387.535 259.432C387.861 259.609 388.235 259.698 388.655 259.698Z" fill="#9EA3AE"/>
<rect x="411" y="166" width="24" height="72" rx="2" fill="#E9E2FD"/>
<path d="M414.85 261.14C414.085 261.14 413.431 261 412.89 260.72C412.349 260.44 411.868 260.034 411.448 259.502L412.344 258.606C412.652 259.035 413.007 259.362 413.408 259.586C413.809 259.801 414.304 259.908 414.892 259.908C415.471 259.908 415.933 259.782 416.278 259.53C416.633 259.278 416.81 258.933 416.81 258.494C416.81 258.13 416.726 257.836 416.558 257.612C416.39 257.388 416.161 257.206 415.872 257.066C415.592 256.917 415.284 256.786 414.948 256.674C414.612 256.553 414.276 256.427 413.94 256.296C413.604 256.156 413.296 255.988 413.016 255.792C412.736 255.587 412.507 255.321 412.33 254.994C412.162 254.667 412.078 254.257 412.078 253.762C412.078 253.211 412.209 252.745 412.47 252.362C412.741 251.97 413.105 251.671 413.562 251.466C414.029 251.251 414.551 251.144 415.13 251.144C415.765 251.144 416.334 251.27 416.838 251.522C417.342 251.765 417.753 252.087 418.07 252.488L417.174 253.384C416.885 253.048 416.572 252.796 416.236 252.628C415.909 252.46 415.531 252.376 415.102 252.376C414.579 252.376 414.164 252.493 413.856 252.726C413.548 252.95 413.394 253.267 413.394 253.678C413.394 254.005 413.478 254.271 413.646 254.476C413.823 254.672 414.052 254.84 414.332 254.98C414.612 255.12 414.92 255.251 415.256 255.372C415.601 255.484 415.942 255.61 416.278 255.75C416.614 255.89 416.922 256.067 417.202 256.282C417.482 256.497 417.706 256.777 417.874 257.122C418.051 257.458 418.14 257.883 418.14 258.396C418.14 259.255 417.841 259.927 417.244 260.412C416.656 260.897 415.858 261.14 414.85 261.14ZM422.674 261.14C422.011 261.14 421.414 260.991 420.882 260.692C420.35 260.384 419.93 259.969 419.622 259.446C419.314 258.923 419.16 258.331 419.16 257.668C419.16 257.015 419.309 256.427 419.608 255.904C419.916 255.381 420.327 254.971 420.84 254.672C421.363 254.364 421.946 254.21 422.59 254.21C423.206 254.21 423.747 254.35 424.214 254.63C424.69 254.91 425.059 255.297 425.32 255.792C425.591 256.287 425.726 256.847 425.726 257.472C425.726 257.565 425.721 257.668 425.712 257.78C425.703 257.883 425.684 258.004 425.656 258.144H420.042V257.094H424.984L424.522 257.5C424.522 257.052 424.443 256.674 424.284 256.366C424.125 256.049 423.901 255.806 423.612 255.638C423.323 255.461 422.973 255.372 422.562 255.372C422.133 255.372 421.755 255.465 421.428 255.652C421.101 255.839 420.849 256.1 420.672 256.436C420.495 256.772 420.406 257.169 420.406 257.626C420.406 258.093 420.499 258.503 420.686 258.858C420.873 259.203 421.139 259.474 421.484 259.67C421.829 259.857 422.226 259.95 422.674 259.95C423.047 259.95 423.388 259.885 423.696 259.754C424.013 259.623 424.284 259.427 424.508 259.166L425.32 259.992C425.003 260.365 424.611 260.65 424.144 260.846C423.687 261.042 423.197 261.14 422.674 261.14ZM430.6 261.14C430.096 261.14 429.638 261.037 429.228 260.832C428.826 260.617 428.504 260.323 428.262 259.95C428.019 259.577 427.884 259.152 427.856 258.676V256.674C427.884 256.189 428.019 255.764 428.262 255.4C428.514 255.027 428.84 254.737 429.242 254.532C429.652 254.317 430.105 254.21 430.6 254.21C431.206 254.21 431.752 254.364 432.238 254.672C432.732 254.98 433.12 255.395 433.4 255.918C433.68 256.441 433.82 257.029 433.82 257.682C433.82 258.335 433.68 258.923 433.4 259.446C433.12 259.969 432.732 260.384 432.238 260.692C431.752 260.991 431.206 261.14 430.6 261.14ZM430.39 259.95C430.81 259.95 431.178 259.852 431.496 259.656C431.813 259.46 432.065 259.194 432.252 258.858C432.438 258.513 432.532 258.116 432.532 257.668C432.532 257.229 432.438 256.837 432.252 256.492C432.065 256.147 431.813 255.881 431.496 255.694C431.178 255.498 430.814 255.4 430.404 255.4C429.984 255.4 429.615 255.498 429.298 255.694C428.98 255.881 428.733 256.147 428.556 256.492C428.378 256.837 428.29 257.234 428.29 257.682C428.29 258.121 428.374 258.513 428.542 258.858C428.719 259.194 428.966 259.46 429.284 259.656C429.61 259.852 429.979 259.95 430.39 259.95ZM427.1 263.786V254.35H428.36V256.1L428.122 257.71L428.36 259.334V263.786H427.1Z" fill="#9EA3AE"/>
<rect x="453" y="214" width="24" height="24" rx="2" fill="#A182F8"/>
<path d="M458.572 261.14C457.881 261.14 457.237 261.014 456.64 260.762C456.043 260.501 455.52 260.141 455.072 259.684C454.624 259.217 454.274 258.681 454.022 258.074C453.779 257.467 453.658 256.819 453.658 256.128C453.658 255.428 453.779 254.779 454.022 254.182C454.274 253.575 454.619 253.043 455.058 252.586C455.506 252.129 456.024 251.774 456.612 251.522C457.209 251.27 457.853 251.144 458.544 251.144C459.235 251.144 459.874 251.27 460.462 251.522C461.059 251.774 461.582 252.129 462.03 252.586C462.478 253.043 462.828 253.575 463.08 254.182C463.332 254.789 463.458 255.442 463.458 256.142C463.458 256.833 463.332 257.481 463.08 258.088C462.828 258.695 462.478 259.227 462.03 259.684C461.591 260.141 461.073 260.501 460.476 260.762C459.888 261.014 459.253 261.14 458.572 261.14ZM458.544 259.88C459.244 259.88 459.855 259.721 460.378 259.404C460.91 259.077 461.33 258.634 461.638 258.074C461.946 257.505 462.1 256.856 462.1 256.128C462.1 255.587 462.011 255.092 461.834 254.644C461.657 254.187 461.409 253.79 461.092 253.454C460.775 253.118 460.401 252.861 459.972 252.684C459.543 252.497 459.067 252.404 458.544 252.404C457.853 252.404 457.242 252.563 456.71 252.88C456.187 253.197 455.772 253.636 455.464 254.196C455.165 254.756 455.016 255.4 455.016 256.128C455.016 256.669 455.1 257.173 455.268 257.64C455.445 258.097 455.688 258.494 455.996 258.83C456.313 259.157 456.687 259.413 457.116 259.6C457.555 259.787 458.031 259.88 458.544 259.88ZM468.077 261.14C467.424 261.14 466.831 260.986 466.299 260.678C465.777 260.37 465.361 259.955 465.053 259.432C464.755 258.9 464.605 258.312 464.605 257.668C464.605 257.015 464.755 256.427 465.053 255.904C465.361 255.381 465.777 254.971 466.299 254.672C466.831 254.364 467.424 254.21 468.077 254.21C468.591 254.21 469.067 254.308 469.505 254.504C469.944 254.691 470.322 254.966 470.639 255.33L469.799 256.17C469.594 255.927 469.342 255.745 469.043 255.624C468.754 255.493 468.432 255.428 468.077 255.428C467.657 255.428 467.284 255.526 466.957 255.722C466.631 255.909 466.374 256.17 466.187 256.506C466.001 256.842 465.907 257.229 465.907 257.668C465.907 258.107 466.001 258.494 466.187 258.83C466.374 259.166 466.631 259.432 466.957 259.628C467.284 259.824 467.657 259.922 468.077 259.922C468.432 259.922 468.754 259.861 469.043 259.74C469.342 259.609 469.599 259.423 469.813 259.18L470.639 260.02C470.331 260.375 469.953 260.65 469.505 260.846C469.067 261.042 468.591 261.14 468.077 261.14ZM472.829 261V251.564H474.089V261H472.829ZM471.191 255.498V254.35H475.727V255.498H471.191Z" fill="#9EA3AE"/>
<rect x="495.5" y="190" width="24" height="48" rx="2" fill="#C4B1FB"/>
<path d="M496.148 261V251.284H497.072L497.464 252.81V261H496.148ZM502.868 261L496.904 253.034L497.072 251.284L503.05 259.236L502.868 261ZM502.868 261L502.476 259.558V251.284H503.792V261H502.868ZM508.901 261.14C508.248 261.14 507.66 260.986 507.137 260.678C506.615 260.37 506.199 259.955 505.891 259.432C505.583 258.9 505.429 258.307 505.429 257.654C505.429 257.01 505.583 256.431 505.891 255.918C506.199 255.395 506.615 254.98 507.137 254.672C507.66 254.364 508.248 254.21 508.901 254.21C509.545 254.21 510.129 254.364 510.651 254.672C511.183 254.971 511.603 255.381 511.911 255.904C512.219 256.427 512.373 257.01 512.373 257.654C512.373 258.307 512.219 258.9 511.911 259.432C511.603 259.955 511.183 260.37 510.651 260.678C510.129 260.986 509.545 261.14 508.901 261.14ZM508.901 259.922C509.321 259.922 509.695 259.824 510.021 259.628C510.348 259.432 510.605 259.166 510.791 258.83C510.978 258.485 511.071 258.093 511.071 257.654C511.071 257.225 510.973 256.842 510.777 256.506C510.591 256.17 510.334 255.909 510.007 255.722C509.69 255.526 509.321 255.428 508.901 255.428C508.481 255.428 508.108 255.526 507.781 255.722C507.455 255.909 507.198 256.17 507.011 256.506C506.825 256.842 506.731 257.225 506.731 257.654C506.731 258.093 506.825 258.485 507.011 258.83C507.198 259.166 507.455 259.432 507.781 259.628C508.108 259.824 508.481 259.922 508.901 259.922ZM515.829 261L512.777 254.35H514.177L516.627 259.964H515.815L518.279 254.35H519.623L516.571 261H515.829Z" fill="#9EA3AE"/>
<rect x="538.5" y="222" width="24" height="16" rx="2" fill="#E9E2FD"/>
<path d="M540.016 261V259.796H542.718C543.437 259.796 544.067 259.642 544.608 259.334C545.149 259.017 545.569 258.583 545.868 258.032C546.176 257.481 546.33 256.847 546.33 256.128C546.33 255.419 546.176 254.789 545.868 254.238C545.56 253.687 545.135 253.258 544.594 252.95C544.053 252.642 543.427 252.488 542.718 252.488H540.03V251.284H542.746C543.455 251.284 544.109 251.405 544.706 251.648C545.313 251.891 545.835 252.231 546.274 252.67C546.722 253.109 547.067 253.622 547.31 254.21C547.562 254.798 547.688 255.442 547.688 256.142C547.688 256.833 547.562 257.477 547.31 258.074C547.067 258.662 546.727 259.175 546.288 259.614C545.849 260.053 545.327 260.393 544.72 260.636C544.123 260.879 543.474 261 542.774 261H540.016ZM539.148 261V251.284H540.464V261H539.148ZM552.367 261.14C551.705 261.14 551.107 260.991 550.575 260.692C550.043 260.384 549.623 259.969 549.315 259.446C549.007 258.923 548.853 258.331 548.853 257.668C548.853 257.015 549.003 256.427 549.301 255.904C549.609 255.381 550.02 254.971 550.533 254.672C551.056 254.364 551.639 254.21 552.283 254.21C552.899 254.21 553.441 254.35 553.907 254.63C554.383 254.91 554.752 255.297 555.013 255.792C555.284 256.287 555.419 256.847 555.419 257.472C555.419 257.565 555.415 257.668 555.405 257.78C555.396 257.883 555.377 258.004 555.349 258.144H549.735V257.094H554.677L554.215 257.5C554.215 257.052 554.136 256.674 553.977 256.366C553.819 256.049 553.595 255.806 553.305 255.638C553.016 255.461 552.666 255.372 552.255 255.372C551.826 255.372 551.448 255.465 551.121 255.652C550.795 255.839 550.543 256.1 550.365 256.436C550.188 256.772 550.099 257.169 550.099 257.626C550.099 258.093 550.193 258.503 550.379 258.858C550.566 259.203 550.832 259.474 551.177 259.67C551.523 259.857 551.919 259.95 552.367 259.95C552.741 259.95 553.081 259.885 553.389 259.754C553.707 259.623 553.977 259.427 554.201 259.166L555.013 259.992C554.696 260.365 554.304 260.65 553.837 260.846C553.38 261.042 552.89 261.14 552.367 261.14ZM559.831 261.14C559.178 261.14 558.585 260.986 558.053 260.678C557.53 260.37 557.115 259.955 556.807 259.432C556.508 258.9 556.359 258.312 556.359 257.668C556.359 257.015 556.508 256.427 556.807 255.904C557.115 255.381 557.53 254.971 558.053 254.672C558.585 254.364 559.178 254.21 559.831 254.21C560.344 254.21 560.82 254.308 561.259 254.504C561.698 254.691 562.076 254.966 562.393 255.33L561.553 256.17C561.348 255.927 561.096 255.745 560.797 255.624C560.508 255.493 560.186 255.428 559.831 255.428C559.411 255.428 559.038 255.526 558.711 255.722C558.384 255.909 558.128 256.17 557.941 256.506C557.754 256.842 557.661 257.229 557.661 257.668C557.661 258.107 557.754 258.494 557.941 258.83C558.128 259.166 558.384 259.432 558.711 259.628C559.038 259.824 559.411 259.922 559.831 259.922C560.186 259.922 560.508 259.861 560.797 259.74C561.096 259.609 561.352 259.423 561.567 259.18L562.393 260.02C562.085 260.375 561.707 260.65 561.259 260.846C560.82 261.042 560.344 261.14 559.831 261.14Z" fill="#9EA3AE"/>
<rect x="0.5" y="0.5" width="586" height="305" rx="5.5" stroke="#E1E1E6"/>
<defs>
<clipPath id="clip0_103_137160">
<rect width="72" height="20" fill="white" transform="translate(491 28)"/>
</clipPath>
</defs>
</svg>
