<svg width="64" height="64" viewBox="0 0 64 64" fill="none" xmlns="http://www.w3.org/2000/svg">
<rect width="64" height="64" rx="32" fill="#F1FFF7"/>
<path d="M30.2 41.48V22.52C30.2 20.72 29.44 20 27.52 20H22.68C20.76 20 20 20.72 20 22.52V41.48C20 43.28 20.76 44 22.68 44H27.52C29.44 44 30.2 43.28 30.2 41.48Z" stroke="#2B817B" stroke-width="1.5" stroke-linecap="round" stroke-linejoin="round"/>
<path d="M44 41.48V22.52C44 20.72 43.24 20 41.32 20H36.48C34.5733 20 33.8 20.72 33.8 22.52V41.48C33.8 43.28 34.56 44 36.48 44H41.32C43.24 44 44 43.28 44 41.48Z" stroke="#2B817B" stroke-width="1.5" stroke-linecap="round" stroke-linejoin="round"/>
</svg>
