<svg width="566" height="282" viewBox="0 0 566 282" fill="none" xmlns="http://www.w3.org/2000/svg">
<rect x="0.5" y="0.5" width="565" height="281" rx="5.5" fill="white"/>
<path d="M28.336 43.16C27.4507 43.16 26.6987 43 26.08 42.68C25.4613 42.36 24.9067 41.8907 24.416 41.272L25.664 40.024C25.9733 40.472 26.3413 40.824 26.768 41.08C27.1947 41.3253 27.7387 41.448 28.4 41.448C29.0187 41.448 29.5093 41.32 29.872 41.064C30.2453 40.808 30.432 40.456 30.432 40.008C30.432 39.6347 30.336 39.3307 30.144 39.096C29.952 38.8613 29.696 38.6693 29.376 38.52C29.0667 38.36 28.72 38.2213 28.336 38.104C27.9627 37.976 27.584 37.8373 27.2 37.688C26.8267 37.528 26.48 37.3307 26.16 37.096C25.8507 36.8613 25.6 36.5573 25.408 36.184C25.216 35.8107 25.12 35.336 25.12 34.76C25.12 34.0987 25.28 33.5387 25.6 33.08C25.9307 32.6107 26.3733 32.2533 26.928 32.008C27.4827 31.7627 28.1013 31.64 28.784 31.64C29.52 31.64 30.176 31.784 30.752 32.072C31.3387 32.36 31.8133 32.728 32.176 33.176L30.928 34.424C30.608 34.0613 30.272 33.7947 29.92 33.624C29.5787 33.4427 29.184 33.352 28.736 33.352C28.1813 33.352 27.744 33.464 27.424 33.688C27.1147 33.912 26.96 34.2267 26.96 34.632C26.96 34.9733 27.056 35.2507 27.248 35.464C27.44 35.6667 27.6907 35.8427 28 35.992C28.32 36.1307 28.6667 36.264 29.04 36.392C29.424 36.52 29.8027 36.664 30.176 36.824C30.56 36.984 30.9067 37.192 31.216 37.448C31.536 37.6933 31.792 38.0133 31.984 38.408C32.176 38.8027 32.272 39.2987 32.272 39.896C32.272 40.8987 31.9147 41.6933 31.2 42.28C30.496 42.8667 29.5413 43.16 28.336 43.16ZM33.8826 43V35.32H35.6426V43H33.8826ZM34.7626 33.912C34.464 33.912 34.2133 33.8107 34.0106 33.608C33.8186 33.4053 33.7226 33.1547 33.7226 32.856C33.7226 32.5573 33.8186 32.3067 34.0106 32.104C34.2133 31.9013 34.464 31.8 34.7626 31.8C35.072 31.8 35.3226 31.9013 35.5146 32.104C35.7066 32.3067 35.8026 32.5573 35.8026 32.856C35.8026 33.1547 35.7066 33.4053 35.5146 33.608C35.3226 33.8107 35.072 33.912 34.7626 33.912ZM42.8806 43V38.568C42.8806 38.056 42.7153 37.6347 42.3846 37.304C42.0646 36.9733 41.6486 36.808 41.1366 36.808C40.7953 36.808 40.4913 36.8827 40.2246 37.032C39.958 37.1813 39.75 37.3893 39.6006 37.656C39.4513 37.9227 39.3766 38.2267 39.3766 38.568L38.6886 38.184C38.6886 37.5973 38.8166 37.08 39.0726 36.632C39.3286 36.1733 39.6806 35.816 40.1286 35.56C40.5873 35.2933 41.0993 35.16 41.6646 35.16C42.2406 35.16 42.7526 35.3093 43.2006 35.608C43.6486 35.896 44.0006 36.2747 44.2566 36.744C44.5126 37.2027 44.6406 37.6827 44.6406 38.184V43H42.8806ZM37.6166 43V35.32H39.3766V43H37.6166ZM49.6291 46.36C48.8185 46.36 48.1091 46.2107 47.5011 45.912C46.8931 45.624 46.4025 45.2133 46.0291 44.68L47.1811 43.528C47.4905 43.912 47.8425 44.2 48.2371 44.392C48.6318 44.584 49.1065 44.68 49.6611 44.68C50.3545 44.68 50.9038 44.4987 51.3091 44.136C51.7145 43.784 51.9171 43.2987 51.9171 42.68V40.792L52.2211 39.096L51.9171 37.384V35.32H53.6771V42.68C53.6771 43.416 53.5065 44.056 53.1651 44.6C52.8238 45.1547 52.3491 45.5867 51.7411 45.896C51.1331 46.2053 50.4291 46.36 49.6291 46.36ZM49.5491 42.84C48.8665 42.84 48.2478 42.6747 47.6931 42.344C47.1491 42.0027 46.7171 41.5387 46.3971 40.952C46.0878 40.3653 45.9331 39.7093 45.9331 38.984C45.9331 38.2587 46.0878 37.608 46.3971 37.032C46.7171 36.456 47.1491 36.0027 47.6931 35.672C48.2478 35.3307 48.8665 35.16 49.5491 35.16C50.1571 35.16 50.6905 35.2827 51.1491 35.528C51.6078 35.7733 51.9651 36.1147 52.2211 36.552C52.4771 36.9787 52.6051 37.48 52.6051 38.056V39.944C52.6051 40.5093 52.4718 41.0107 52.2051 41.448C51.9491 41.8853 51.5918 42.2267 51.1331 42.472C50.6745 42.7173 50.1465 42.84 49.5491 42.84ZM49.9011 41.176C50.3278 41.176 50.7011 41.0853 51.0211 40.904C51.3411 40.7227 51.5865 40.472 51.7571 40.152C51.9385 39.8213 52.0291 39.4373 52.0291 39C52.0291 38.5627 51.9385 38.184 51.7571 37.864C51.5865 37.5333 51.3411 37.2773 51.0211 37.096C50.7011 36.9147 50.3278 36.824 49.9011 36.824C49.4745 36.824 49.0958 36.9147 48.7651 37.096C48.4451 37.2773 48.1945 37.5333 48.0131 37.864C47.8318 38.184 47.7411 38.5627 47.7411 39C47.7411 39.4267 47.8318 39.8053 48.0131 40.136C48.1945 40.4667 48.4451 40.7227 48.7651 40.904C49.0958 41.0853 49.4745 41.176 49.9011 41.176ZM55.6323 43V31.48H57.3923V43H55.6323ZM62.919 43.16C62.151 43.16 61.4577 42.9893 60.839 42.648C60.231 42.296 59.7457 41.816 59.383 41.208C59.031 40.6 58.855 39.9173 58.855 39.16C58.855 38.4027 59.031 37.7253 59.383 37.128C59.735 36.52 60.2097 36.04 60.807 35.688C61.415 35.336 62.087 35.16 62.823 35.16C63.5377 35.16 64.167 35.3253 64.711 35.656C65.2657 35.9867 65.6977 36.44 66.007 37.016C66.327 37.592 66.487 38.248 66.487 38.984C66.487 39.112 66.4763 39.2453 66.455 39.384C66.4443 39.512 66.423 39.656 66.391 39.816H60.087V38.376H65.479L64.823 38.952C64.8017 38.4827 64.711 38.088 64.551 37.768C64.391 37.448 64.1617 37.2027 63.863 37.032C63.575 36.8613 63.2177 36.776 62.791 36.776C62.343 36.776 61.9537 36.872 61.623 37.064C61.2923 37.256 61.0363 37.528 60.855 37.88C60.6737 38.2213 60.583 38.632 60.583 39.112C60.583 39.592 60.679 40.0133 60.871 40.376C61.063 40.7387 61.335 41.0213 61.687 41.224C62.039 41.416 62.4443 41.512 62.903 41.512C63.2977 41.512 63.6603 41.4427 63.991 41.304C64.3323 41.1653 64.6203 40.9627 64.855 40.696L65.975 41.832C65.6017 42.2693 65.1483 42.6 64.615 42.824C64.0817 43.048 63.5163 43.16 62.919 43.16ZM76.493 43.16C75.693 43.16 74.9463 43.0107 74.253 42.712C73.5597 42.4133 72.9517 42.0027 72.429 41.48C71.9063 40.9467 71.4957 40.3333 71.197 39.64C70.909 38.936 70.765 38.184 70.765 37.384C70.765 36.584 70.909 35.8373 71.197 35.144C71.4957 34.4507 71.901 33.8427 72.413 33.32C72.9357 32.7867 73.5383 32.376 74.221 32.088C74.9143 31.7893 75.661 31.64 76.461 31.64C77.261 31.64 78.0023 31.7893 78.685 32.088C79.3783 32.376 79.9863 32.7867 80.509 33.32C81.0317 33.8427 81.437 34.456 81.725 35.16C82.0237 35.8533 82.173 36.6 82.173 37.4C82.173 38.2 82.0237 38.952 81.725 39.656C81.437 40.3493 81.0317 40.9573 80.509 41.48C79.997 42.0027 79.3943 42.4133 78.701 42.712C78.0183 43.0107 77.2823 43.16 76.493 43.16ZM76.461 41.4C77.2183 41.4 77.8797 41.2293 78.445 40.888C79.021 40.5467 79.469 40.0773 79.789 39.48C80.1197 38.872 80.285 38.1733 80.285 37.384C80.285 36.7973 80.189 36.264 79.997 35.784C79.8157 35.2933 79.5543 34.872 79.213 34.52C78.8717 34.1573 78.4663 33.88 77.997 33.688C77.5383 33.496 77.0263 33.4 76.461 33.4C75.7143 33.4 75.053 33.5707 74.477 33.912C73.9117 34.2427 73.4637 34.7067 73.133 35.304C72.813 35.9013 72.653 36.5947 72.653 37.384C72.653 37.9707 72.7437 38.5147 72.925 39.016C73.117 39.5067 73.3783 39.928 73.709 40.28C74.0503 40.632 74.4557 40.9093 74.925 41.112C75.3943 41.304 75.9063 41.4 76.461 41.4ZM83.8041 43V35.32H85.5641V43H83.8041ZM85.5641 38.728L84.9561 38.424C84.9561 37.4533 85.1695 36.6693 85.5961 36.072C86.0335 35.464 86.6895 35.16 87.5641 35.16C87.9481 35.16 88.2948 35.2293 88.6041 35.368C88.9135 35.5067 89.2015 35.7307 89.4681 36.04L88.3161 37.224C88.1775 37.0747 88.0228 36.968 87.8521 36.904C87.6815 36.84 87.4841 36.808 87.2601 36.808C86.7695 36.808 86.3641 36.9627 86.0441 37.272C85.7241 37.5813 85.5641 38.0667 85.5641 38.728ZM93.3014 43.16C92.608 43.16 91.9787 42.984 91.4134 42.632C90.8587 42.28 90.416 41.8053 90.0854 41.208C89.7654 40.6 89.6054 39.9227 89.6054 39.176C89.6054 38.4187 89.7654 37.7413 90.0854 37.144C90.416 36.536 90.8587 36.056 91.4134 35.704C91.9787 35.3413 92.608 35.16 93.3014 35.16C93.888 35.16 94.4054 35.288 94.8534 35.544C95.312 35.7893 95.6747 36.1307 95.9414 36.568C96.208 37.0053 96.3414 37.5013 96.3414 38.056V40.264C96.3414 40.8187 96.208 41.3147 95.9414 41.752C95.6854 42.1893 95.328 42.536 94.8694 42.792C94.4107 43.0373 93.888 43.16 93.3014 43.16ZM93.5894 41.496C94.0267 41.496 94.4054 41.4 94.7254 41.208C95.056 41.0053 95.312 40.728 95.4934 40.376C95.6747 40.024 95.7654 39.6187 95.7654 39.16C95.7654 38.7013 95.6747 38.296 95.4934 37.944C95.312 37.592 95.056 37.32 94.7254 37.128C94.4054 36.9253 94.032 36.824 93.6054 36.824C93.168 36.824 92.784 36.9253 92.4534 37.128C92.1334 37.32 91.8774 37.592 91.6854 37.944C91.504 38.296 91.4134 38.7013 91.4134 39.16C91.4134 39.6187 91.504 40.024 91.6854 40.376C91.8774 40.728 92.1334 41.0053 92.4534 41.208C92.784 41.4 93.1627 41.496 93.5894 41.496ZM97.4134 43H95.6534V40.936L95.9574 39.064L95.6534 37.208V31.48H97.4134V43ZM102.935 43.16C102.167 43.16 101.473 42.9893 100.855 42.648C100.247 42.296 99.7613 41.816 99.3986 41.208C99.0466 40.6 98.8706 39.9173 98.8706 39.16C98.8706 38.4027 99.0466 37.7253 99.3986 37.128C99.7506 36.52 100.225 36.04 100.823 35.688C101.431 35.336 102.103 35.16 102.839 35.16C103.553 35.16 104.183 35.3253 104.727 35.656C105.281 35.9867 105.713 36.44 106.023 37.016C106.343 37.592 106.503 38.248 106.503 38.984C106.503 39.112 106.492 39.2453 106.471 39.384C106.46 39.512 106.439 39.656 106.407 39.816H100.103V38.376H105.495L104.839 38.952C104.817 38.4827 104.727 38.088 104.567 37.768C104.407 37.448 104.177 37.2027 103.879 37.032C103.591 36.8613 103.233 36.776 102.807 36.776C102.359 36.776 101.969 36.872 101.639 37.064C101.308 37.256 101.052 37.528 100.871 37.88C100.689 38.2213 100.599 38.632 100.599 39.112C100.599 39.592 100.695 40.0133 100.887 40.376C101.079 40.7387 101.351 41.0213 101.703 41.224C102.055 41.416 102.46 41.512 102.919 41.512C103.313 41.512 103.676 41.4427 104.007 41.304C104.348 41.1653 104.636 40.9627 104.871 40.696L105.991 41.832C105.617 42.2693 105.164 42.6 104.631 42.824C104.097 43.048 103.532 43.16 102.935 43.16ZM107.914 43V35.32H109.674V43H107.914ZM109.674 38.728L109.066 38.424C109.066 37.4533 109.279 36.6693 109.706 36.072C110.143 35.464 110.799 35.16 111.674 35.16C112.058 35.16 112.404 35.2293 112.714 35.368C113.023 35.5067 113.311 35.7307 113.578 36.04L112.426 37.224C112.287 37.0747 112.132 36.968 111.962 36.904C111.791 36.84 111.594 36.808 111.37 36.808C110.879 36.808 110.474 36.9627 110.154 37.272C109.834 37.5813 109.674 38.0667 109.674 38.728ZM118.154 43V31.8H119.434L124.09 39.464H123.258L127.914 31.8H129.194V43H127.354V35.032L127.77 35.144L124.314 40.824H123.034L119.578 35.144L119.994 35.032V43H118.154ZM134.598 43.16C133.905 43.16 133.276 42.984 132.71 42.632C132.156 42.28 131.713 41.8053 131.382 41.208C131.062 40.6 130.902 39.9227 130.902 39.176C130.902 38.4187 131.062 37.7413 131.382 37.144C131.713 36.536 132.156 36.056 132.71 35.704C133.276 35.3413 133.905 35.16 134.598 35.16C135.185 35.16 135.702 35.288 136.15 35.544C136.609 35.7893 136.972 36.1307 137.238 36.568C137.505 37.0053 137.638 37.5013 137.638 38.056V40.264C137.638 40.8187 137.505 41.3147 137.238 41.752C136.982 42.1893 136.625 42.536 136.166 42.792C135.708 43.0373 135.185 43.16 134.598 43.16ZM134.886 41.496C135.537 41.496 136.06 41.2773 136.454 40.84C136.86 40.4027 137.062 39.8427 137.062 39.16C137.062 38.7013 136.972 38.296 136.79 37.944C136.609 37.592 136.353 37.32 136.022 37.128C135.702 36.9253 135.324 36.824 134.886 36.824C134.46 36.824 134.081 36.9253 133.75 37.128C133.43 37.32 133.174 37.592 132.982 37.944C132.801 38.296 132.71 38.7013 132.71 39.16C132.71 39.6187 132.801 40.024 132.982 40.376C133.174 40.728 133.43 41.0053 133.75 41.208C134.081 41.4 134.46 41.496 134.886 41.496ZM136.95 43V40.936L137.254 39.064L136.95 37.208V35.32H138.71V43H136.95ZM143.88 43.16C143.186 43.16 142.557 42.984 141.992 42.632C141.437 42.28 140.994 41.8053 140.664 41.208C140.344 40.6 140.184 39.9227 140.184 39.176C140.184 38.4187 140.344 37.7413 140.664 37.144C140.994 36.536 141.437 36.056 141.992 35.704C142.557 35.3413 143.186 35.16 143.88 35.16C144.466 35.16 144.984 35.288 145.432 35.544C145.89 35.7893 146.253 36.1307 146.52 36.568C146.786 37.0053 146.92 37.5013 146.92 38.056V40.264C146.92 40.8187 146.786 41.3147 146.52 41.752C146.264 42.1893 145.906 42.536 145.448 42.792C144.989 43.0373 144.466 43.16 143.88 43.16ZM144.168 41.496C144.605 41.496 144.984 41.4 145.304 41.208C145.634 41.0053 145.89 40.728 146.072 40.376C146.253 40.024 146.344 39.6187 146.344 39.16C146.344 38.7013 146.253 38.296 146.072 37.944C145.89 37.592 145.634 37.32 145.304 37.128C144.984 36.9253 144.61 36.824 144.184 36.824C143.746 36.824 143.362 36.9253 143.032 37.128C142.712 37.32 142.456 37.592 142.264 37.944C142.082 38.296 141.992 38.7013 141.992 39.16C141.992 39.6187 142.082 40.024 142.264 40.376C142.456 40.728 142.712 41.0053 143.032 41.208C143.362 41.4 143.741 41.496 144.168 41.496ZM147.992 43H146.232V40.936L146.536 39.064L146.232 37.208V31.48H147.992V43ZM153.513 43.16C152.745 43.16 152.051 42.9893 151.433 42.648C150.825 42.296 150.339 41.816 149.977 41.208C149.625 40.6 149.449 39.9173 149.449 39.16C149.449 38.4027 149.625 37.7253 149.977 37.128C150.329 36.52 150.803 36.04 151.401 35.688C152.009 35.336 152.681 35.16 153.417 35.16C154.131 35.16 154.761 35.3253 155.305 35.656C155.859 35.9867 156.291 36.44 156.601 37.016C156.921 37.592 157.081 38.248 157.081 38.984C157.081 39.112 157.07 39.2453 157.049 39.384C157.038 39.512 157.017 39.656 156.985 39.816H150.681V38.376H156.073L155.417 38.952C155.395 38.4827 155.305 38.088 155.145 37.768C154.985 37.448 154.755 37.2027 154.457 37.032C154.169 36.8613 153.811 36.776 153.385 36.776C152.937 36.776 152.547 36.872 152.217 37.064C151.886 37.256 151.63 37.528 151.449 37.88C151.267 38.2213 151.177 38.632 151.177 39.112C151.177 39.592 151.273 40.0133 151.465 40.376C151.657 40.7387 151.929 41.0213 152.281 41.224C152.633 41.416 153.038 41.512 153.497 41.512C153.891 41.512 154.254 41.4427 154.585 41.304C154.926 41.1653 155.214 40.9627 155.449 40.696L156.569 41.832C156.195 42.2693 155.742 42.6 155.209 42.824C154.675 43.048 154.11 43.16 153.513 43.16Z" fill="black"/>
<g clip-path="url(#clip0_103_137266)">
<path d="M460.984 41.5V33.172H462.112V41.5H460.984ZM461.752 41.5V40.468H466.216V41.5H461.752ZM469.771 41.62C469.251 41.62 468.779 41.492 468.355 41.236C467.931 40.972 467.595 40.616 467.347 40.168C467.107 39.72 466.987 39.216 466.987 38.656C466.987 38.096 467.107 37.592 467.347 37.144C467.595 36.696 467.927 36.34 468.343 36.076C468.767 35.812 469.243 35.68 469.771 35.68C470.203 35.68 470.587 35.772 470.923 35.956C471.267 36.132 471.543 36.38 471.751 36.7C471.959 37.012 472.075 37.376 472.099 37.792V39.508C472.075 39.916 471.959 40.28 471.751 40.6C471.551 40.92 471.279 41.172 470.935 41.356C470.599 41.532 470.211 41.62 469.771 41.62ZM469.951 40.6C470.487 40.6 470.919 40.42 471.247 40.06C471.575 39.692 471.739 39.224 471.739 38.656C471.739 38.264 471.663 37.924 471.511 37.636C471.367 37.34 471.159 37.112 470.887 36.952C470.615 36.784 470.299 36.7 469.939 36.7C469.579 36.7 469.259 36.784 468.979 36.952C468.707 37.12 468.491 37.352 468.331 37.648C468.179 37.936 468.103 38.268 468.103 38.644C468.103 39.028 468.179 39.368 468.331 39.664C468.491 39.952 468.711 40.18 468.991 40.348C469.271 40.516 469.591 40.6 469.951 40.6ZM471.667 41.5V39.964L471.871 38.572L471.667 37.192V35.8H472.759V41.5H471.667ZM476.323 41.62C476.003 41.62 475.699 41.58 475.411 41.5C475.131 41.412 474.871 41.292 474.631 41.14C474.391 40.98 474.183 40.792 474.007 40.576L474.703 39.88C474.911 40.136 475.151 40.328 475.423 40.456C475.695 40.576 475.999 40.636 476.335 40.636C476.671 40.636 476.931 40.58 477.115 40.468C477.299 40.348 477.391 40.184 477.391 39.976C477.391 39.768 477.315 39.608 477.163 39.496C477.019 39.376 476.831 39.28 476.599 39.208C476.367 39.128 476.119 39.052 475.855 38.98C475.599 38.9 475.355 38.8 475.123 38.68C474.891 38.56 474.699 38.396 474.547 38.188C474.403 37.98 474.331 37.704 474.331 37.36C474.331 37.016 474.415 36.72 474.583 36.472C474.751 36.216 474.983 36.02 475.279 35.884C475.583 35.748 475.947 35.68 476.371 35.68C476.819 35.68 477.215 35.76 477.559 35.92C477.911 36.072 478.199 36.304 478.423 36.616L477.727 37.312C477.567 37.104 477.367 36.944 477.127 36.832C476.895 36.72 476.631 36.664 476.335 36.664C476.023 36.664 475.783 36.72 475.615 36.832C475.455 36.936 475.375 37.084 475.375 37.276C475.375 37.468 475.447 37.616 475.591 37.72C475.735 37.824 475.923 37.912 476.155 37.984C476.395 38.056 476.643 38.132 476.899 38.212C477.155 38.284 477.399 38.384 477.631 38.512C477.863 38.64 478.051 38.812 478.195 39.028C478.347 39.244 478.423 39.528 478.423 39.88C478.423 40.416 478.231 40.84 477.847 41.152C477.471 41.464 476.963 41.62 476.323 41.62ZM480.688 41.5V33.412H481.768V41.5H480.688ZM479.284 36.784V35.8H483.172V36.784H479.284ZM487.279 41.5V33.172H488.071L491.599 38.968H491.059L494.587 33.172H495.379V41.5H494.251V35.152L494.515 35.224L491.731 39.796H490.939L488.155 35.224L488.407 35.152V41.5H487.279ZM499.937 41.62C499.377 41.62 498.873 41.488 498.425 41.224C497.977 40.96 497.621 40.604 497.357 40.156C497.093 39.7 496.961 39.192 496.961 38.632C496.961 38.08 497.093 37.584 497.357 37.144C497.621 36.696 497.977 36.34 498.425 36.076C498.873 35.812 499.377 35.68 499.937 35.68C500.489 35.68 500.989 35.812 501.437 36.076C501.893 36.332 502.253 36.684 502.517 37.132C502.781 37.58 502.913 38.08 502.913 38.632C502.913 39.192 502.781 39.7 502.517 40.156C502.253 40.604 501.893 40.96 501.437 41.224C500.989 41.488 500.489 41.62 499.937 41.62ZM499.937 40.576C500.297 40.576 500.617 40.492 500.897 40.324C501.177 40.156 501.397 39.928 501.557 39.64C501.717 39.344 501.797 39.008 501.797 38.632C501.797 38.264 501.713 37.936 501.545 37.648C501.385 37.36 501.165 37.136 500.885 36.976C500.613 36.808 500.297 36.724 499.937 36.724C499.577 36.724 499.257 36.808 498.977 36.976C498.697 37.136 498.477 37.36 498.317 37.648C498.157 37.936 498.077 38.264 498.077 38.632C498.077 39.008 498.157 39.344 498.317 39.64C498.477 39.928 498.697 40.156 498.977 40.324C499.257 40.492 499.577 40.576 499.937 40.576ZM508.342 41.5V38.176C508.342 37.744 508.206 37.388 507.934 37.108C507.662 36.828 507.31 36.688 506.878 36.688C506.59 36.688 506.334 36.752 506.11 36.88C505.886 37.008 505.71 37.184 505.582 37.408C505.454 37.632 505.39 37.888 505.39 38.176L504.946 37.924C504.946 37.492 505.042 37.108 505.234 36.772C505.426 36.436 505.694 36.172 506.038 35.98C506.382 35.78 506.77 35.68 507.202 35.68C507.634 35.68 508.014 35.788 508.342 36.004C508.678 36.22 508.942 36.504 509.134 36.856C509.326 37.2 509.422 37.568 509.422 37.96V41.5H508.342ZM504.31 41.5V35.8H505.39V41.5H504.31ZM511.87 41.5V33.412H512.95V41.5H511.87ZM510.466 36.784V35.8H514.354V36.784H510.466ZM519.624 41.5V38.176C519.624 37.744 519.488 37.388 519.216 37.108C518.944 36.828 518.592 36.688 518.16 36.688C517.872 36.688 517.616 36.752 517.392 36.88C517.168 37.008 516.992 37.184 516.864 37.408C516.736 37.632 516.672 37.888 516.672 38.176L516.228 37.924C516.228 37.492 516.324 37.108 516.516 36.772C516.708 36.436 516.976 36.172 517.32 35.98C517.664 35.78 518.052 35.68 518.484 35.68C518.916 35.68 519.296 35.776 519.624 35.968C519.96 36.16 520.224 36.428 520.416 36.772C520.608 37.116 520.704 37.512 520.704 37.96V41.5H519.624ZM515.592 41.5V32.932H516.672V41.5H515.592Z" fill="#2B817B"/>
<path d="M460 43H521.376V43.6H460V43Z" fill="#2B817B"/>
<path d="M538.6 34.458L533.167 39.8913C532.525 40.533 531.475 40.533 530.833 39.8913L525.4 34.458" stroke="#2B817B" stroke-width="1.5" stroke-miterlimit="10" stroke-linecap="round" stroke-linejoin="round"/>
</g>
<path d="M27.923 86.12C27.379 86.12 26.883 86.02 26.435 85.82C25.995 85.612 25.623 85.312 25.319 84.92L26.087 84.152C26.271 84.432 26.523 84.656 26.843 84.824C27.163 84.984 27.519 85.064 27.911 85.064C28.279 85.064 28.595 84.996 28.859 84.86C29.131 84.716 29.343 84.516 29.495 84.26C29.655 84.004 29.735 83.708 29.735 83.372C29.735 83.028 29.655 82.732 29.495 82.484C29.343 82.228 29.127 82.032 28.847 81.896C28.567 81.76 28.235 81.692 27.851 81.692C27.707 81.692 27.563 81.704 27.419 81.728C27.275 81.744 27.135 81.772 26.999 81.812L27.479 81.164C27.631 81.092 27.795 81.036 27.971 80.996C28.147 80.956 28.323 80.936 28.499 80.936C28.947 80.936 29.347 81.04 29.699 81.248C30.059 81.456 30.343 81.748 30.551 82.124C30.767 82.5 30.875 82.936 30.875 83.432C30.875 83.96 30.747 84.428 30.491 84.836C30.243 85.236 29.899 85.552 29.459 85.784C29.019 86.008 28.507 86.12 27.923 86.12ZM26.999 81.812V81.128L29.435 78.356L30.779 78.344L28.271 81.188L26.999 81.812ZM25.715 78.68V77.672H30.779V78.344L29.795 78.68H25.715ZM35.376 86.12C34.752 86.12 34.18 85.944 33.66 85.592C33.148 85.24 32.74 84.744 32.436 84.104C32.132 83.456 31.98 82.696 31.98 81.824C31.98 80.952 32.128 80.196 32.424 79.556C32.728 78.916 33.136 78.424 33.648 78.08C34.16 77.728 34.724 77.552 35.34 77.552C35.972 77.552 36.544 77.728 37.056 78.08C37.568 78.424 37.972 78.916 38.268 79.556C38.572 80.196 38.724 80.956 38.724 81.836C38.724 82.708 38.572 83.468 38.268 84.116C37.972 84.756 37.568 85.252 37.056 85.604C36.552 85.948 35.992 86.12 35.376 86.12ZM35.352 85.052C35.792 85.052 36.176 84.932 36.504 84.692C36.84 84.444 37.104 84.08 37.296 83.6C37.488 83.12 37.584 82.528 37.584 81.824C37.584 81.12 37.488 80.532 37.296 80.06C37.104 79.58 36.84 79.22 36.504 78.98C36.168 78.732 35.78 78.608 35.34 78.608C34.908 78.608 34.524 78.732 34.188 78.98C33.852 79.22 33.588 79.58 33.396 80.06C33.212 80.532 33.12 81.12 33.12 81.824C33.12 82.528 33.212 83.12 33.396 83.6C33.588 84.08 33.852 84.444 34.188 84.692C34.524 84.932 34.912 85.052 35.352 85.052ZM43.251 86.12C42.627 86.12 42.055 85.944 41.535 85.592C41.023 85.24 40.615 84.744 40.311 84.104C40.007 83.456 39.855 82.696 39.855 81.824C39.855 80.952 40.003 80.196 40.299 79.556C40.603 78.916 41.011 78.424 41.523 78.08C42.035 77.728 42.599 77.552 43.215 77.552C43.847 77.552 44.419 77.728 44.931 78.08C45.443 78.424 45.847 78.916 46.143 79.556C46.447 80.196 46.599 80.956 46.599 81.836C46.599 82.708 46.447 83.468 46.143 84.116C45.847 84.756 45.443 85.252 44.931 85.604C44.427 85.948 43.867 86.12 43.251 86.12ZM43.227 85.052C43.667 85.052 44.051 84.932 44.379 84.692C44.715 84.444 44.979 84.08 45.171 83.6C45.363 83.12 45.459 82.528 45.459 81.824C45.459 81.12 45.363 80.532 45.171 80.06C44.979 79.58 44.715 79.22 44.379 78.98C44.043 78.732 43.655 78.608 43.215 78.608C42.783 78.608 42.399 78.732 42.063 78.98C41.727 79.22 41.463 79.58 41.271 80.06C41.087 80.532 40.995 81.12 40.995 81.824C40.995 82.528 41.087 83.12 41.271 83.6C41.463 84.08 41.727 84.444 42.063 84.692C42.399 84.932 42.787 85.052 43.227 85.052ZM51.126 86.12C50.502 86.12 49.93 85.944 49.41 85.592C48.898 85.24 48.49 84.744 48.186 84.104C47.882 83.456 47.73 82.696 47.73 81.824C47.73 80.952 47.878 80.196 48.174 79.556C48.478 78.916 48.886 78.424 49.398 78.08C49.91 77.728 50.474 77.552 51.09 77.552C51.722 77.552 52.294 77.728 52.806 78.08C53.318 78.424 53.722 78.916 54.018 79.556C54.322 80.196 54.474 80.956 54.474 81.836C54.474 82.708 54.322 83.468 54.018 84.116C53.722 84.756 53.318 85.252 52.806 85.604C52.302 85.948 51.742 86.12 51.126 86.12ZM51.102 85.052C51.542 85.052 51.926 84.932 52.254 84.692C52.59 84.444 52.854 84.08 53.046 83.6C53.238 83.12 53.334 82.528 53.334 81.824C53.334 81.12 53.238 80.532 53.046 80.06C52.854 79.58 52.59 79.22 52.254 78.98C51.918 78.732 51.53 78.608 51.09 78.608C50.658 78.608 50.274 78.732 49.938 78.98C49.602 79.22 49.338 79.58 49.146 80.06C48.962 80.532 48.87 81.12 48.87 81.824C48.87 82.528 48.962 83.12 49.146 83.6C49.338 84.08 49.602 84.444 49.938 84.692C50.274 84.932 50.662 85.052 51.102 85.052Z" fill="#9EA3AE"/>
<path d="M25.3374 141.316L28.4094 138.076C28.7214 137.756 28.9654 137.48 29.1414 137.248C29.3174 137.008 29.4414 136.788 29.5134 136.588C29.5934 136.388 29.6334 136.18 29.6334 135.964C29.6334 135.54 29.4974 135.208 29.2254 134.968C28.9534 134.728 28.6014 134.608 28.1694 134.608C27.7454 134.608 27.3734 134.712 27.0534 134.92C26.7334 135.12 26.4494 135.432 26.2014 135.856L25.4094 135.196C25.7374 134.652 26.1334 134.244 26.5974 133.972C27.0614 133.692 27.5974 133.552 28.2054 133.552C28.7174 133.552 29.1614 133.652 29.5374 133.852C29.9214 134.052 30.2174 134.332 30.4254 134.692C30.6334 135.052 30.7374 135.472 30.7374 135.952C30.7374 136.296 30.6934 136.604 30.6054 136.876C30.5254 137.148 30.3774 137.428 30.1614 137.716C29.9534 137.996 29.6614 138.332 29.2854 138.724L26.8014 141.28L25.3374 141.316ZM25.3374 142V141.316L26.2974 140.992H30.9294V142H25.3374ZM35.3936 142.12C34.7696 142.12 34.1976 141.944 33.6776 141.592C33.1656 141.24 32.7576 140.744 32.4536 140.104C32.1496 139.456 31.9976 138.696 31.9976 137.824C31.9976 136.952 32.1456 136.196 32.4416 135.556C32.7456 134.916 33.1536 134.424 33.6656 134.08C34.1776 133.728 34.7416 133.552 35.3576 133.552C35.9896 133.552 36.5616 133.728 37.0736 134.08C37.5856 134.424 37.9896 134.916 38.2856 135.556C38.5896 136.196 38.7416 136.956 38.7416 137.836C38.7416 138.708 38.5896 139.468 38.2856 140.116C37.9896 140.756 37.5856 141.252 37.0736 141.604C36.5696 141.948 36.0096 142.12 35.3936 142.12ZM35.3696 141.052C35.8096 141.052 36.1936 140.932 36.5216 140.692C36.8576 140.444 37.1216 140.08 37.3136 139.6C37.5056 139.12 37.6016 138.528 37.6016 137.824C37.6016 137.12 37.5056 136.532 37.3136 136.06C37.1216 135.58 36.8576 135.22 36.5216 134.98C36.1856 134.732 35.7976 134.608 35.3576 134.608C34.9256 134.608 34.5416 134.732 34.2056 134.98C33.8696 135.22 33.6056 135.58 33.4136 136.06C33.2296 136.532 33.1376 137.12 33.1376 137.824C33.1376 138.528 33.2296 139.12 33.4136 139.6C33.6056 140.08 33.8696 140.444 34.2056 140.692C34.5416 140.932 34.9296 141.052 35.3696 141.052ZM43.2686 142.12C42.6446 142.12 42.0726 141.944 41.5526 141.592C41.0406 141.24 40.6326 140.744 40.3286 140.104C40.0246 139.456 39.8726 138.696 39.8726 137.824C39.8726 136.952 40.0206 136.196 40.3166 135.556C40.6206 134.916 41.0286 134.424 41.5406 134.08C42.0526 133.728 42.6166 133.552 43.2326 133.552C43.8646 133.552 44.4366 133.728 44.9486 134.08C45.4606 134.424 45.8646 134.916 46.1606 135.556C46.4646 136.196 46.6166 136.956 46.6166 137.836C46.6166 138.708 46.4646 139.468 46.1606 140.116C45.8646 140.756 45.4606 141.252 44.9486 141.604C44.4446 141.948 43.8846 142.12 43.2686 142.12ZM43.2446 141.052C43.6846 141.052 44.0686 140.932 44.3966 140.692C44.7326 140.444 44.9966 140.08 45.1886 139.6C45.3806 139.12 45.4766 138.528 45.4766 137.824C45.4766 137.12 45.3806 136.532 45.1886 136.06C44.9966 135.58 44.7326 135.22 44.3966 134.98C44.0606 134.732 43.6726 134.608 43.2326 134.608C42.8006 134.608 42.4166 134.732 42.0806 134.98C41.7446 135.22 41.4806 135.58 41.2886 136.06C41.1046 136.532 41.0126 137.12 41.0126 137.824C41.0126 138.528 41.1046 139.12 41.2886 139.6C41.4806 140.08 41.7446 140.444 42.0806 140.692C42.4166 140.932 42.8046 141.052 43.2446 141.052ZM51.1436 142.12C50.5196 142.12 49.9476 141.944 49.4276 141.592C48.9156 141.24 48.5076 140.744 48.2036 140.104C47.8996 139.456 47.7476 138.696 47.7476 137.824C47.7476 136.952 47.8956 136.196 48.1916 135.556C48.4956 134.916 48.9036 134.424 49.4156 134.08C49.9276 133.728 50.4916 133.552 51.1076 133.552C51.7396 133.552 52.3116 133.728 52.8236 134.08C53.3356 134.424 53.7396 134.916 54.0356 135.556C54.3396 136.196 54.4916 136.956 54.4916 137.836C54.4916 138.708 54.3396 139.468 54.0356 140.116C53.7396 140.756 53.3356 141.252 52.8236 141.604C52.3196 141.948 51.7596 142.12 51.1436 142.12ZM51.1196 141.052C51.5596 141.052 51.9436 140.932 52.2716 140.692C52.6076 140.444 52.8716 140.08 53.0636 139.6C53.2556 139.12 53.3516 138.528 53.3516 137.824C53.3516 137.12 53.2556 136.532 53.0636 136.06C52.8716 135.58 52.6076 135.22 52.2716 134.98C51.9356 134.732 51.5476 134.608 51.1076 134.608C50.6756 134.608 50.2916 134.732 49.9556 134.98C49.6196 135.22 49.3556 135.58 49.1636 136.06C48.9796 136.532 48.8876 137.12 48.8876 137.824C48.8876 138.528 48.9796 139.12 49.1636 139.6C49.3556 140.08 49.6196 140.444 49.9556 140.692C50.2916 140.932 50.6796 141.052 51.1196 141.052Z" fill="#9EA3AE"/>
<path d="M28.1834 198V189.672H29.2994V198H28.1834ZM26.4794 190.68V189.672H29.1794V190.68H26.4794ZM34.2276 198.12C33.6036 198.12 33.0316 197.944 32.5116 197.592C31.9996 197.24 31.5916 196.744 31.2876 196.104C30.9836 195.456 30.8316 194.696 30.8316 193.824C30.8316 192.952 30.9796 192.196 31.2756 191.556C31.5796 190.916 31.9876 190.424 32.4996 190.08C33.0116 189.728 33.5756 189.552 34.1916 189.552C34.8236 189.552 35.3956 189.728 35.9076 190.08C36.4196 190.424 36.8236 190.916 37.1196 191.556C37.4236 192.196 37.5756 192.956 37.5756 193.836C37.5756 194.708 37.4236 195.468 37.1196 196.116C36.8236 196.756 36.4196 197.252 35.9076 197.604C35.4036 197.948 34.8436 198.12 34.2276 198.12ZM34.2036 197.052C34.6436 197.052 35.0276 196.932 35.3556 196.692C35.6916 196.444 35.9556 196.08 36.1476 195.6C36.3396 195.12 36.4356 194.528 36.4356 193.824C36.4356 193.12 36.3396 192.532 36.1476 192.06C35.9556 191.58 35.6916 191.22 35.3556 190.98C35.0196 190.732 34.6316 190.608 34.1916 190.608C33.7596 190.608 33.3756 190.732 33.0396 190.98C32.7036 191.22 32.4396 191.58 32.2476 192.06C32.0636 192.532 31.9716 193.12 31.9716 193.824C31.9716 194.528 32.0636 195.12 32.2476 195.6C32.4396 196.08 32.7036 196.444 33.0396 196.692C33.3756 196.932 33.7636 197.052 34.2036 197.052ZM42.1026 198.12C41.4786 198.12 40.9066 197.944 40.3866 197.592C39.8746 197.24 39.4666 196.744 39.1626 196.104C38.8586 195.456 38.7066 194.696 38.7066 193.824C38.7066 192.952 38.8546 192.196 39.1506 191.556C39.4546 190.916 39.8626 190.424 40.3746 190.08C40.8866 189.728 41.4506 189.552 42.0666 189.552C42.6986 189.552 43.2706 189.728 43.7826 190.08C44.2946 190.424 44.6986 190.916 44.9946 191.556C45.2986 192.196 45.4506 192.956 45.4506 193.836C45.4506 194.708 45.2986 195.468 44.9946 196.116C44.6986 196.756 44.2946 197.252 43.7826 197.604C43.2786 197.948 42.7186 198.12 42.1026 198.12ZM42.0786 197.052C42.5186 197.052 42.9026 196.932 43.2306 196.692C43.5666 196.444 43.8306 196.08 44.0226 195.6C44.2146 195.12 44.3106 194.528 44.3106 193.824C44.3106 193.12 44.2146 192.532 44.0226 192.06C43.8306 191.58 43.5666 191.22 43.2306 190.98C42.8946 190.732 42.5066 190.608 42.0666 190.608C41.6346 190.608 41.2506 190.732 40.9146 190.98C40.5786 191.22 40.3146 191.58 40.1226 192.06C39.9386 192.532 39.8466 193.12 39.8466 193.824C39.8466 194.528 39.9386 195.12 40.1226 195.6C40.3146 196.08 40.5786 196.444 40.9146 196.692C41.2506 196.932 41.6386 197.052 42.0786 197.052ZM49.9776 198.12C49.3536 198.12 48.7816 197.944 48.2616 197.592C47.7496 197.24 47.3416 196.744 47.0376 196.104C46.7336 195.456 46.5816 194.696 46.5816 193.824C46.5816 192.952 46.7296 192.196 47.0256 191.556C47.3296 190.916 47.7376 190.424 48.2496 190.08C48.7616 189.728 49.3256 189.552 49.9416 189.552C50.5736 189.552 51.1456 189.728 51.6576 190.08C52.1696 190.424 52.5736 190.916 52.8696 191.556C53.1736 192.196 53.3256 192.956 53.3256 193.836C53.3256 194.708 53.1736 195.468 52.8696 196.116C52.5736 196.756 52.1696 197.252 51.6576 197.604C51.1536 197.948 50.5936 198.12 49.9776 198.12ZM49.9536 197.052C50.3936 197.052 50.7776 196.932 51.1056 196.692C51.4416 196.444 51.7056 196.08 51.8976 195.6C52.0896 195.12 52.1856 194.528 52.1856 193.824C52.1856 193.12 52.0896 192.532 51.8976 192.06C51.7056 191.58 51.4416 191.22 51.1056 190.98C50.7696 190.732 50.3816 190.608 49.9416 190.608C49.5096 190.608 49.1256 190.732 48.7896 190.98C48.4536 191.22 48.1896 191.58 47.9976 192.06C47.8136 192.532 47.7216 193.12 47.7216 193.824C47.7216 194.528 47.8136 195.12 47.9976 195.6C48.1896 196.08 48.4536 196.444 48.7896 196.692C49.1256 196.932 49.5136 197.052 49.9536 197.052Z" fill="#9EA3AE"/>
<path d="M62.3311 254V245.672H63.4471V254H62.3311ZM60.6271 246.68V245.672H63.3271V246.68H60.6271ZM66.3592 254L68.8672 250.58L69.2752 250.364C69.1792 250.524 69.0632 250.664 68.9272 250.784C68.7912 250.904 68.6232 250.996 68.4232 251.06C68.2312 251.124 67.9952 251.156 67.7152 251.156C67.2352 251.156 66.7912 251.04 66.3832 250.808C65.9832 250.576 65.6632 250.256 65.4232 249.848C65.1832 249.432 65.0632 248.964 65.0632 248.444C65.0632 247.908 65.1952 247.424 65.4592 246.992C65.7232 246.552 66.0752 246.204 66.5152 245.948C66.9552 245.684 67.4432 245.552 67.9792 245.552C68.5232 245.552 69.0152 245.68 69.4552 245.936C69.8952 246.192 70.2432 246.536 70.4992 246.968C70.7552 247.392 70.8832 247.872 70.8832 248.408C70.8832 249.144 70.6272 249.876 70.1152 250.604L67.6672 254H66.3592ZM67.9792 250.268C68.3152 250.268 68.6152 250.188 68.8792 250.028C69.1512 249.86 69.3632 249.64 69.5152 249.368C69.6752 249.088 69.7552 248.78 69.7552 248.444C69.7552 248.092 69.6752 247.78 69.5152 247.508C69.3632 247.228 69.1512 247.008 68.8792 246.848C68.6152 246.688 68.3152 246.608 67.9792 246.608C67.6432 246.608 67.3392 246.688 67.0672 246.848C66.8032 247.008 66.5912 247.228 66.4312 247.508C66.2712 247.78 66.1912 248.092 66.1912 248.444C66.1912 248.788 66.2712 249.096 66.4312 249.368C66.5912 249.64 66.8072 249.86 67.0792 250.028C67.3512 250.188 67.6512 250.268 67.9792 250.268ZM76.4049 254.12C75.9249 254.12 75.5009 254.028 75.1329 253.844C74.7729 253.652 74.4769 253.396 74.2449 253.076L75.0369 252.344C75.1889 252.568 75.3769 252.74 75.6009 252.86C75.8329 252.98 76.0889 253.04 76.3689 253.04C76.6489 253.04 76.8969 252.98 77.1129 252.86C77.3289 252.74 77.4969 252.564 77.6169 252.332C77.7449 252.092 77.8089 251.8 77.8089 251.456V245.672H78.9369V251.396C78.9369 251.948 78.8249 252.428 78.6009 252.836C78.3849 253.244 78.0849 253.56 77.7009 253.784C77.3249 254.008 76.8929 254.12 76.4049 254.12ZM83.2223 254.12C82.7023 254.12 82.2303 253.992 81.8063 253.736C81.3823 253.472 81.0463 253.116 80.7983 252.668C80.5583 252.22 80.4383 251.716 80.4383 251.156C80.4383 250.596 80.5583 250.092 80.7983 249.644C81.0463 249.196 81.3783 248.84 81.7943 248.576C82.2183 248.312 82.6943 248.18 83.2223 248.18C83.6543 248.18 84.0383 248.272 84.3743 248.456C84.7183 248.632 84.9943 248.88 85.2023 249.2C85.4103 249.512 85.5263 249.876 85.5503 250.292V252.008C85.5263 252.416 85.4103 252.78 85.2023 253.1C85.0023 253.42 84.7303 253.672 84.3863 253.856C84.0503 254.032 83.6623 254.12 83.2223 254.12ZM83.4023 253.1C83.9383 253.1 84.3703 252.92 84.6983 252.56C85.0263 252.192 85.1903 251.724 85.1903 251.156C85.1903 250.764 85.1143 250.424 84.9623 250.136C84.8183 249.84 84.6103 249.612 84.3383 249.452C84.0663 249.284 83.7503 249.2 83.3903 249.2C83.0303 249.2 82.7103 249.284 82.4303 249.452C82.1583 249.62 81.9423 249.852 81.7823 250.148C81.6303 250.436 81.5543 250.768 81.5543 251.144C81.5543 251.528 81.6303 251.868 81.7823 252.164C81.9423 252.452 82.1623 252.68 82.4423 252.848C82.7223 253.016 83.0423 253.1 83.4023 253.1ZM85.1183 254V252.464L85.3223 251.072L85.1183 249.692V248.3H86.2103V254H85.1183ZM91.9947 254V250.676C91.9947 250.244 91.8587 249.888 91.5867 249.608C91.3147 249.328 90.9627 249.188 90.5307 249.188C90.2427 249.188 89.9867 249.252 89.7627 249.38C89.5387 249.508 89.3627 249.684 89.2347 249.908C89.1067 250.132 89.0427 250.388 89.0427 250.676L88.5987 250.424C88.5987 249.992 88.6947 249.608 88.8867 249.272C89.0787 248.936 89.3467 248.672 89.6907 248.48C90.0347 248.28 90.4227 248.18 90.8547 248.18C91.2867 248.18 91.6667 248.288 91.9947 248.504C92.3307 248.72 92.5947 249.004 92.7867 249.356C92.9787 249.7 93.0747 250.068 93.0747 250.46V254H91.9947ZM87.9627 254V248.3H89.0427V254H87.9627Z" fill="#9EA3AE"/>
<path d="M111.249 254V245.672H112.365V254H111.249ZM109.545 246.68V245.672H112.245V246.68H109.545ZM115.277 254L117.785 250.58L118.193 250.364C118.097 250.524 117.981 250.664 117.845 250.784C117.709 250.904 117.541 250.996 117.341 251.06C117.149 251.124 116.913 251.156 116.633 251.156C116.153 251.156 115.709 251.04 115.301 250.808C114.901 250.576 114.581 250.256 114.341 249.848C114.101 249.432 113.981 248.964 113.981 248.444C113.981 247.908 114.113 247.424 114.377 246.992C114.641 246.552 114.993 246.204 115.433 245.948C115.873 245.684 116.361 245.552 116.897 245.552C117.441 245.552 117.933 245.68 118.373 245.936C118.813 246.192 119.161 246.536 119.417 246.968C119.673 247.392 119.801 247.872 119.801 248.408C119.801 249.144 119.545 249.876 119.033 250.604L116.585 254H115.277ZM116.897 250.268C117.233 250.268 117.533 250.188 117.797 250.028C118.069 249.86 118.281 249.64 118.433 249.368C118.593 249.088 118.673 248.78 118.673 248.444C118.673 248.092 118.593 247.78 118.433 247.508C118.281 247.228 118.069 247.008 117.797 246.848C117.533 246.688 117.233 246.608 116.897 246.608C116.561 246.608 116.257 246.688 115.985 246.848C115.721 247.008 115.509 247.228 115.349 247.508C115.189 247.78 115.109 248.092 115.109 248.444C115.109 248.788 115.189 249.096 115.349 249.368C115.509 249.64 115.725 249.86 115.997 250.028C116.269 250.188 116.569 250.268 116.897 250.268ZM124.126 254V245.672H125.254V254H124.126ZM124.894 250.34V249.308H129.238V250.34H124.894ZM124.894 246.704V245.672H129.442V246.704H124.894ZM133.328 254.12C132.76 254.12 132.248 253.992 131.792 253.736C131.336 253.472 130.976 253.116 130.712 252.668C130.448 252.22 130.316 251.712 130.316 251.144C130.316 250.584 130.444 250.08 130.7 249.632C130.964 249.184 131.316 248.832 131.756 248.576C132.204 248.312 132.704 248.18 133.256 248.18C133.784 248.18 134.248 248.3 134.648 248.54C135.056 248.78 135.372 249.112 135.596 249.536C135.828 249.96 135.944 250.44 135.944 250.976C135.944 251.056 135.94 251.144 135.932 251.24C135.924 251.328 135.908 251.432 135.884 251.552H131.072V250.652H135.308L134.912 251C134.912 250.616 134.844 250.292 134.708 250.028C134.572 249.756 134.38 249.548 134.132 249.404C133.884 249.252 133.584 249.176 133.232 249.176C132.864 249.176 132.54 249.256 132.26 249.416C131.98 249.576 131.764 249.8 131.612 250.088C131.46 250.376 131.384 250.716 131.384 251.108C131.384 251.508 131.464 251.86 131.624 252.164C131.784 252.46 132.012 252.692 132.308 252.86C132.604 253.02 132.944 253.1 133.328 253.1C133.648 253.1 133.94 253.044 134.204 252.932C134.476 252.82 134.708 252.652 134.9 252.428L135.596 253.136C135.324 253.456 134.988 253.7 134.588 253.868C134.196 254.036 133.776 254.12 133.328 254.12ZM140.302 254.12C139.87 254.12 139.478 254.032 139.126 253.856C138.782 253.672 138.506 253.42 138.298 253.1C138.09 252.78 137.974 252.416 137.95 252.008V250.292C137.974 249.876 138.09 249.512 138.298 249.2C138.514 248.88 138.794 248.632 139.138 248.456C139.49 248.272 139.878 248.18 140.302 248.18C140.822 248.18 141.29 248.312 141.706 248.576C142.13 248.84 142.462 249.196 142.702 249.644C142.942 250.092 143.062 250.596 143.062 251.156C143.062 251.716 142.942 252.22 142.702 252.668C142.462 253.116 142.13 253.472 141.706 253.736C141.29 253.992 140.822 254.12 140.302 254.12ZM140.122 253.1C140.482 253.1 140.798 253.016 141.07 252.848C141.342 252.68 141.558 252.452 141.718 252.164C141.878 251.868 141.958 251.528 141.958 251.144C141.958 250.768 141.878 250.432 141.718 250.136C141.558 249.84 141.342 249.612 141.07 249.452C140.798 249.284 140.486 249.2 140.134 249.2C139.774 249.2 139.458 249.284 139.186 249.452C138.914 249.612 138.702 249.84 138.55 250.136C138.398 250.432 138.322 250.772 138.322 251.156C138.322 251.532 138.394 251.868 138.538 252.164C138.69 252.452 138.902 252.68 139.174 252.848C139.454 253.016 139.77 253.1 140.122 253.1ZM137.302 254V245.432H138.382V249.692L138.178 251.072L138.382 252.464V254H137.302Z" fill="#9EA3AE"/>
<path d="M159.539 254V245.672H160.655V254H159.539ZM157.835 246.68V245.672H160.535V246.68H157.835ZM163.567 254L166.075 250.58L166.483 250.364C166.387 250.524 166.271 250.664 166.135 250.784C165.999 250.904 165.831 250.996 165.631 251.06C165.439 251.124 165.203 251.156 164.923 251.156C164.443 251.156 163.999 251.04 163.591 250.808C163.191 250.576 162.871 250.256 162.631 249.848C162.391 249.432 162.271 248.964 162.271 248.444C162.271 247.908 162.403 247.424 162.667 246.992C162.931 246.552 163.283 246.204 163.723 245.948C164.163 245.684 164.651 245.552 165.187 245.552C165.731 245.552 166.223 245.68 166.663 245.936C167.103 246.192 167.451 246.536 167.707 246.968C167.963 247.392 168.091 247.872 168.091 248.408C168.091 249.144 167.835 249.876 167.323 250.604L164.875 254H163.567ZM165.187 250.268C165.523 250.268 165.823 250.188 166.087 250.028C166.359 249.86 166.571 249.64 166.723 249.368C166.883 249.088 166.963 248.78 166.963 248.444C166.963 248.092 166.883 247.78 166.723 247.508C166.571 247.228 166.359 247.008 166.087 246.848C165.823 246.688 165.523 246.608 165.187 246.608C164.851 246.608 164.547 246.688 164.275 246.848C164.011 247.008 163.799 247.228 163.639 247.508C163.479 247.78 163.399 248.092 163.399 248.444C163.399 248.788 163.479 249.096 163.639 249.368C163.799 249.64 164.015 249.86 164.287 250.028C164.559 250.188 164.859 250.268 165.187 250.268ZM172.416 254V245.672H173.208L176.736 251.468H176.196L179.724 245.672H180.516V254H179.388V247.652L179.652 247.724L176.868 252.296H176.076L173.292 247.724L173.544 247.652V254H172.416ZM184.895 254.12C184.375 254.12 183.903 253.992 183.479 253.736C183.055 253.472 182.719 253.116 182.471 252.668C182.231 252.22 182.111 251.716 182.111 251.156C182.111 250.596 182.231 250.092 182.471 249.644C182.719 249.196 183.051 248.84 183.467 248.576C183.891 248.312 184.367 248.18 184.895 248.18C185.327 248.18 185.711 248.272 186.047 248.456C186.391 248.632 186.667 248.88 186.875 249.2C187.083 249.512 187.199 249.876 187.223 250.292V252.008C187.199 252.416 187.083 252.78 186.875 253.1C186.675 253.42 186.403 253.672 186.059 253.856C185.723 254.032 185.335 254.12 184.895 254.12ZM185.075 253.1C185.611 253.1 186.043 252.92 186.371 252.56C186.699 252.192 186.863 251.724 186.863 251.156C186.863 250.764 186.787 250.424 186.635 250.136C186.491 249.84 186.283 249.612 186.011 249.452C185.739 249.284 185.423 249.2 185.063 249.2C184.703 249.2 184.383 249.284 184.103 249.452C183.831 249.62 183.615 249.852 183.455 250.148C183.303 250.436 183.227 250.768 183.227 251.144C183.227 251.528 183.303 251.868 183.455 252.164C183.615 252.452 183.835 252.68 184.115 252.848C184.395 253.016 184.715 253.1 185.075 253.1ZM186.791 254V252.464L186.995 251.072L186.791 249.692V248.3H187.883V254H186.791ZM189.635 254V248.3H190.715V254H189.635ZM190.715 250.748L190.307 250.568C190.307 249.84 190.475 249.26 190.811 248.828C191.147 248.396 191.631 248.18 192.263 248.18C192.551 248.18 192.811 248.232 193.043 248.336C193.275 248.432 193.491 248.596 193.691 248.828L192.983 249.56C192.863 249.432 192.731 249.34 192.587 249.284C192.443 249.228 192.275 249.2 192.083 249.2C191.683 249.2 191.355 249.328 191.099 249.584C190.843 249.84 190.715 250.228 190.715 250.748Z" fill="#9EA3AE"/>
<path d="M209.897 254V245.672H211.013V254H209.897ZM208.193 246.68V245.672H210.893V246.68H208.193ZM213.926 254L216.434 250.58L216.842 250.364C216.746 250.524 216.63 250.664 216.494 250.784C216.358 250.904 216.19 250.996 215.99 251.06C215.798 251.124 215.562 251.156 215.282 251.156C214.802 251.156 214.358 251.04 213.95 250.808C213.55 250.576 213.23 250.256 212.99 249.848C212.75 249.432 212.63 248.964 212.63 248.444C212.63 247.908 212.762 247.424 213.026 246.992C213.29 246.552 213.642 246.204 214.082 245.948C214.522 245.684 215.01 245.552 215.546 245.552C216.09 245.552 216.582 245.68 217.022 245.936C217.462 246.192 217.81 246.536 218.066 246.968C218.322 247.392 218.45 247.872 218.45 248.408C218.45 249.144 218.194 249.876 217.682 250.604L215.234 254H213.926ZM215.546 250.268C215.882 250.268 216.182 250.188 216.446 250.028C216.718 249.86 216.93 249.64 217.082 249.368C217.242 249.088 217.322 248.78 217.322 248.444C217.322 248.092 217.242 247.78 217.082 247.508C216.93 247.228 216.718 247.008 216.446 246.848C216.182 246.688 215.882 246.608 215.546 246.608C215.21 246.608 214.906 246.688 214.634 246.848C214.37 247.008 214.158 247.228 213.998 247.508C213.838 247.78 213.758 248.092 213.758 248.444C213.758 248.788 213.838 249.096 213.998 249.368C214.158 249.64 214.374 249.86 214.646 250.028C214.918 250.188 215.218 250.268 215.546 250.268ZM221.823 254L225.231 245.672H226.047L229.443 254H228.219L225.423 246.956H225.843L223.023 254H221.823ZM223.443 252.116V251.132H227.823V252.116H223.443ZM233.779 254.12C233.347 254.12 232.955 254.032 232.603 253.856C232.259 253.672 231.983 253.42 231.775 253.1C231.567 252.78 231.451 252.416 231.427 252.008V250.292C231.451 249.876 231.567 249.512 231.775 249.2C231.991 248.88 232.271 248.632 232.615 248.456C232.967 248.272 233.355 248.18 233.779 248.18C234.299 248.18 234.767 248.312 235.183 248.576C235.607 248.84 235.939 249.196 236.179 249.644C236.419 250.092 236.539 250.596 236.539 251.156C236.539 251.716 236.419 252.22 236.179 252.668C235.939 253.116 235.607 253.472 235.183 253.736C234.767 253.992 234.299 254.12 233.779 254.12ZM233.599 253.1C233.959 253.1 234.275 253.016 234.547 252.848C234.819 252.68 235.035 252.452 235.195 252.164C235.355 251.868 235.435 251.528 235.435 251.144C235.435 250.768 235.355 250.432 235.195 250.136C235.035 249.84 234.819 249.612 234.547 249.452C234.275 249.284 233.963 249.2 233.611 249.2C233.251 249.2 232.935 249.284 232.663 249.452C232.391 249.612 232.179 249.84 232.027 250.136C231.875 250.432 231.799 250.772 231.799 251.156C231.799 251.532 231.871 251.868 232.015 252.164C232.167 252.452 232.379 252.68 232.651 252.848C232.931 253.016 233.247 253.1 233.599 253.1ZM230.779 256.388V248.3H231.859V249.8L231.655 251.18L231.859 252.572V256.388H230.779ZM237.943 254V248.3H239.023V254H237.943ZM239.023 250.748L238.615 250.568C238.615 249.84 238.783 249.26 239.119 248.828C239.455 248.396 239.939 248.18 240.571 248.18C240.859 248.18 241.119 248.232 241.351 248.336C241.583 248.432 241.799 248.596 241.999 248.828L241.291 249.56C241.171 249.432 241.039 249.34 240.895 249.284C240.751 249.228 240.583 249.2 240.391 249.2C239.991 249.2 239.663 249.328 239.407 249.584C239.151 249.84 239.023 250.228 239.023 250.748Z" fill="#9EA3AE"/>
<path d="M257.637 254V245.672H258.753V254H257.637ZM255.933 246.68V245.672H258.633V246.68H255.933ZM261.665 254L264.173 250.58L264.581 250.364C264.485 250.524 264.369 250.664 264.233 250.784C264.097 250.904 263.929 250.996 263.729 251.06C263.537 251.124 263.301 251.156 263.021 251.156C262.541 251.156 262.097 251.04 261.689 250.808C261.289 250.576 260.969 250.256 260.729 249.848C260.489 249.432 260.369 248.964 260.369 248.444C260.369 247.908 260.501 247.424 260.765 246.992C261.029 246.552 261.381 246.204 261.821 245.948C262.261 245.684 262.749 245.552 263.285 245.552C263.829 245.552 264.321 245.68 264.761 245.936C265.201 246.192 265.549 246.536 265.805 246.968C266.061 247.392 266.189 247.872 266.189 248.408C266.189 249.144 265.933 249.876 265.421 250.604L262.973 254H261.665ZM263.285 250.268C263.621 250.268 263.921 250.188 264.185 250.028C264.457 249.86 264.669 249.64 264.821 249.368C264.981 249.088 265.061 248.78 265.061 248.444C265.061 248.092 264.981 247.78 264.821 247.508C264.669 247.228 264.457 247.008 264.185 246.848C263.921 246.688 263.621 246.608 263.285 246.608C262.949 246.608 262.645 246.688 262.373 246.848C262.109 247.008 261.897 247.228 261.737 247.508C261.577 247.78 261.497 248.092 261.497 248.444C261.497 248.788 261.577 249.096 261.737 249.368C261.897 249.64 262.113 249.86 262.385 250.028C262.657 250.188 262.957 250.268 263.285 250.268ZM270.515 254V245.672H271.307L274.835 251.468H274.295L277.823 245.672H278.615V254H277.487V247.652L277.751 247.724L274.967 252.296H274.175L271.391 247.724L271.643 247.652V254H270.515ZM282.993 254.12C282.473 254.12 282.001 253.992 281.577 253.736C281.153 253.472 280.817 253.116 280.569 252.668C280.329 252.22 280.209 251.716 280.209 251.156C280.209 250.596 280.329 250.092 280.569 249.644C280.817 249.196 281.149 248.84 281.565 248.576C281.989 248.312 282.465 248.18 282.993 248.18C283.425 248.18 283.809 248.272 284.145 248.456C284.489 248.632 284.765 248.88 284.973 249.2C285.181 249.512 285.297 249.876 285.321 250.292V252.008C285.297 252.416 285.181 252.78 284.973 253.1C284.773 253.42 284.501 253.672 284.157 253.856C283.821 254.032 283.433 254.12 282.993 254.12ZM283.173 253.1C283.709 253.1 284.141 252.92 284.469 252.56C284.797 252.192 284.961 251.724 284.961 251.156C284.961 250.764 284.885 250.424 284.733 250.136C284.589 249.84 284.381 249.612 284.109 249.452C283.837 249.284 283.521 249.2 283.161 249.2C282.801 249.2 282.481 249.284 282.201 249.452C281.929 249.62 281.713 249.852 281.553 250.148C281.401 250.436 281.325 250.768 281.325 251.144C281.325 251.528 281.401 251.868 281.553 252.164C281.713 252.452 281.933 252.68 282.213 252.848C282.493 253.016 282.813 253.1 283.173 253.1ZM284.889 254V252.464L285.093 251.072L284.889 249.692V248.3H285.981V254H284.889ZM289.606 254.048L287.134 248.3H288.334L290.17 252.8H289.786L291.718 248.3H292.918L290.254 254.048H289.606ZM287.974 256.388L289.654 252.944L290.254 254.048L289.174 256.388H287.974Z" fill="#9EA3AE"/>
<path d="M309.396 254V245.672H310.512V254H309.396ZM307.692 246.68V245.672H310.392V246.68H307.692ZM313.424 254L315.932 250.58L316.34 250.364C316.244 250.524 316.128 250.664 315.992 250.784C315.856 250.904 315.688 250.996 315.488 251.06C315.296 251.124 315.06 251.156 314.78 251.156C314.3 251.156 313.856 251.04 313.448 250.808C313.048 250.576 312.728 250.256 312.488 249.848C312.248 249.432 312.128 248.964 312.128 248.444C312.128 247.908 312.26 247.424 312.524 246.992C312.788 246.552 313.14 246.204 313.58 245.948C314.02 245.684 314.508 245.552 315.044 245.552C315.588 245.552 316.08 245.68 316.52 245.936C316.96 246.192 317.308 246.536 317.564 246.968C317.82 247.392 317.948 247.872 317.948 248.408C317.948 249.144 317.692 249.876 317.18 250.604L314.732 254H313.424ZM315.044 250.268C315.38 250.268 315.68 250.188 315.944 250.028C316.216 249.86 316.428 249.64 316.58 249.368C316.74 249.088 316.82 248.78 316.82 248.444C316.82 248.092 316.74 247.78 316.58 247.508C316.428 247.228 316.216 247.008 315.944 246.848C315.68 246.688 315.38 246.608 315.044 246.608C314.708 246.608 314.404 246.688 314.132 246.848C313.868 247.008 313.656 247.228 313.496 247.508C313.336 247.78 313.256 248.092 313.256 248.444C313.256 248.788 313.336 249.096 313.496 249.368C313.656 249.64 313.872 249.86 314.144 250.028C314.416 250.188 314.716 250.268 315.044 250.268ZM323.47 254.12C322.99 254.12 322.566 254.028 322.198 253.844C321.838 253.652 321.542 253.396 321.31 253.076L322.102 252.344C322.254 252.568 322.442 252.74 322.666 252.86C322.898 252.98 323.154 253.04 323.434 253.04C323.714 253.04 323.962 252.98 324.178 252.86C324.394 252.74 324.562 252.564 324.682 252.332C324.81 252.092 324.874 251.8 324.874 251.456V245.672H326.002V251.396C326.002 251.948 325.89 252.428 325.666 252.836C325.45 253.244 325.15 253.56 324.766 253.784C324.39 254.008 323.958 254.12 323.47 254.12ZM330.167 254.12C329.695 254.12 329.271 254.016 328.895 253.808C328.527 253.592 328.239 253.296 328.031 252.92C327.823 252.544 327.719 252.108 327.719 251.612V248.3H328.799V251.564C328.799 251.876 328.851 252.148 328.955 252.38C329.067 252.604 329.227 252.776 329.435 252.896C329.643 253.016 329.887 253.076 330.167 253.076C330.591 253.076 330.923 252.944 331.163 252.68C331.403 252.408 331.523 252.036 331.523 251.564V248.3H332.603V251.612C332.603 252.108 332.499 252.544 332.291 252.92C332.083 253.296 331.795 253.592 331.427 253.808C331.067 254.016 330.647 254.12 330.167 254.12ZM338.263 254V250.676C338.263 250.244 338.127 249.888 337.855 249.608C337.583 249.328 337.231 249.188 336.799 249.188C336.511 249.188 336.255 249.252 336.031 249.38C335.807 249.508 335.631 249.684 335.503 249.908C335.375 250.132 335.311 250.388 335.311 250.676L334.867 250.424C334.867 249.992 334.963 249.608 335.155 249.272C335.347 248.936 335.615 248.672 335.959 248.48C336.303 248.28 336.691 248.18 337.123 248.18C337.555 248.18 337.935 248.288 338.263 248.504C338.599 248.72 338.863 249.004 339.055 249.356C339.247 249.7 339.343 250.068 339.343 250.46V254H338.263ZM334.231 254V248.3H335.311V254H334.231Z" fill="#9EA3AE"/>
<path d="M360.687 254V245.672H361.803V254H360.687ZM358.983 246.68V245.672H361.683V246.68H358.983ZM364.715 254L367.223 250.58L367.631 250.364C367.535 250.524 367.419 250.664 367.283 250.784C367.147 250.904 366.979 250.996 366.779 251.06C366.587 251.124 366.351 251.156 366.071 251.156C365.591 251.156 365.147 251.04 364.739 250.808C364.339 250.576 364.019 250.256 363.779 249.848C363.539 249.432 363.419 248.964 363.419 248.444C363.419 247.908 363.551 247.424 363.815 246.992C364.079 246.552 364.431 246.204 364.871 245.948C365.311 245.684 365.799 245.552 366.335 245.552C366.879 245.552 367.371 245.68 367.811 245.936C368.251 246.192 368.599 246.536 368.855 246.968C369.111 247.392 369.239 247.872 369.239 248.408C369.239 249.144 368.983 249.876 368.471 250.604L366.023 254H364.715ZM366.335 250.268C366.671 250.268 366.971 250.188 367.235 250.028C367.507 249.86 367.719 249.64 367.871 249.368C368.031 249.088 368.111 248.78 368.111 248.444C368.111 248.092 368.031 247.78 367.871 247.508C367.719 247.228 367.507 247.008 367.235 246.848C366.971 246.688 366.671 246.608 366.335 246.608C365.999 246.608 365.695 246.688 365.423 246.848C365.159 247.008 364.947 247.228 364.787 247.508C364.627 247.78 364.547 248.092 364.547 248.444C364.547 248.788 364.627 249.096 364.787 249.368C364.947 249.64 365.163 249.86 365.435 250.028C365.707 250.188 366.007 250.268 366.335 250.268ZM374.76 254.12C374.28 254.12 373.856 254.028 373.488 253.844C373.128 253.652 372.832 253.396 372.6 253.076L373.392 252.344C373.544 252.568 373.732 252.74 373.956 252.86C374.188 252.98 374.444 253.04 374.724 253.04C375.004 253.04 375.252 252.98 375.468 252.86C375.684 252.74 375.852 252.564 375.972 252.332C376.1 252.092 376.164 251.8 376.164 251.456V245.672H377.292V251.396C377.292 251.948 377.18 252.428 376.956 252.836C376.74 253.244 376.44 253.56 376.056 253.784C375.68 254.008 375.248 254.12 374.76 254.12ZM381.458 254.12C380.986 254.12 380.562 254.016 380.186 253.808C379.818 253.592 379.53 253.296 379.322 252.92C379.114 252.544 379.01 252.108 379.01 251.612V248.3H380.09V251.564C380.09 251.876 380.142 252.148 380.246 252.38C380.358 252.604 380.518 252.776 380.726 252.896C380.934 253.016 381.178 253.076 381.458 253.076C381.882 253.076 382.214 252.944 382.454 252.68C382.694 252.408 382.814 252.036 382.814 251.564V248.3H383.894V251.612C383.894 252.108 383.79 252.544 383.582 252.92C383.374 253.296 383.086 253.592 382.718 253.808C382.358 254.016 381.938 254.12 381.458 254.12ZM385.521 254V245.432H386.601V254H385.521Z" fill="#9EA3AE"/>
<path d="M406.774 254V245.672H407.89V254H406.774ZM405.07 246.68V245.672H407.77V246.68H405.07ZM410.802 254L413.31 250.58L413.718 250.364C413.622 250.524 413.506 250.664 413.37 250.784C413.234 250.904 413.066 250.996 412.866 251.06C412.674 251.124 412.438 251.156 412.158 251.156C411.678 251.156 411.234 251.04 410.826 250.808C410.426 250.576 410.106 250.256 409.866 249.848C409.626 249.432 409.506 248.964 409.506 248.444C409.506 247.908 409.638 247.424 409.902 246.992C410.166 246.552 410.518 246.204 410.958 245.948C411.398 245.684 411.886 245.552 412.422 245.552C412.966 245.552 413.458 245.68 413.898 245.936C414.338 246.192 414.686 246.536 414.942 246.968C415.198 247.392 415.326 247.872 415.326 248.408C415.326 249.144 415.07 249.876 414.558 250.604L412.11 254H410.802ZM412.422 250.268C412.758 250.268 413.058 250.188 413.322 250.028C413.594 249.86 413.806 249.64 413.958 249.368C414.118 249.088 414.198 248.78 414.198 248.444C414.198 248.092 414.118 247.78 413.958 247.508C413.806 247.228 413.594 247.008 413.322 246.848C413.058 246.688 412.758 246.608 412.422 246.608C412.086 246.608 411.782 246.688 411.51 246.848C411.246 247.008 411.034 247.228 410.874 247.508C410.714 247.78 410.634 248.092 410.634 248.444C410.634 248.788 410.714 249.096 410.874 249.368C411.034 249.64 411.25 249.86 411.522 250.028C411.794 250.188 412.094 250.268 412.422 250.268ZM418.7 254L422.108 245.672H422.924L426.32 254H425.096L422.3 246.956H422.72L419.9 254H418.7ZM420.32 252.116V251.132H424.7V252.116H420.32ZM429.748 254.12C429.276 254.12 428.852 254.016 428.476 253.808C428.108 253.592 427.82 253.296 427.612 252.92C427.404 252.544 427.3 252.108 427.3 251.612V248.3H428.38V251.564C428.38 251.876 428.432 252.148 428.536 252.38C428.648 252.604 428.808 252.776 429.016 252.896C429.224 253.016 429.468 253.076 429.748 253.076C430.172 253.076 430.504 252.944 430.744 252.68C430.984 252.408 431.104 252.036 431.104 251.564V248.3H432.184V251.612C432.184 252.108 432.08 252.544 431.872 252.92C431.664 253.296 431.376 253.592 431.008 253.808C430.648 254.016 430.228 254.12 429.748 254.12ZM436.176 256.508C435.592 256.508 435.072 256.4 434.616 256.184C434.168 255.968 433.808 255.664 433.536 255.272L434.232 254.564C434.464 254.86 434.74 255.084 435.06 255.236C435.38 255.396 435.76 255.476 436.2 255.476C436.784 255.476 437.244 255.32 437.58 255.008C437.924 254.704 438.096 254.292 438.096 253.772V252.356L438.288 251.072L438.096 249.8V248.3H439.176V253.772C439.176 254.316 439.048 254.792 438.792 255.2C438.544 255.608 438.192 255.928 437.736 256.16C437.288 256.392 436.768 256.508 436.176 256.508ZM436.176 253.904C435.656 253.904 435.188 253.78 434.772 253.532C434.364 253.284 434.04 252.944 433.8 252.512C433.56 252.072 433.44 251.58 433.44 251.036C433.44 250.492 433.56 250.008 433.8 249.584C434.04 249.152 434.364 248.812 434.772 248.564C435.188 248.308 435.656 248.18 436.176 248.18C436.624 248.18 437.02 248.268 437.364 248.444C437.708 248.62 437.98 248.868 438.18 249.188C438.388 249.5 438.5 249.868 438.516 250.292V251.804C438.492 252.22 438.376 252.588 438.168 252.908C437.968 253.22 437.696 253.464 437.352 253.64C437.008 253.816 436.616 253.904 436.176 253.904ZM436.392 252.884C436.744 252.884 437.052 252.808 437.316 252.656C437.588 252.504 437.796 252.292 437.94 252.02C438.084 251.74 438.156 251.416 438.156 251.048C438.156 250.68 438.08 250.36 437.928 250.088C437.784 249.808 437.58 249.592 437.316 249.44C437.052 249.28 436.74 249.2 436.38 249.2C436.02 249.2 435.704 249.28 435.432 249.44C435.16 249.592 434.944 249.808 434.784 250.088C434.632 250.36 434.556 250.676 434.556 251.036C434.556 251.396 434.632 251.716 434.784 251.996C434.944 252.276 435.16 252.496 435.432 252.656C435.712 252.808 436.032 252.884 436.392 252.884Z" fill="#9EA3AE"/>
<path d="M456.582 254V245.672H457.698V254H456.582ZM454.878 246.68V245.672H457.578V246.68H454.878ZM460.61 254L463.118 250.58L463.526 250.364C463.43 250.524 463.314 250.664 463.178 250.784C463.042 250.904 462.874 250.996 462.674 251.06C462.482 251.124 462.246 251.156 461.966 251.156C461.486 251.156 461.042 251.04 460.634 250.808C460.234 250.576 459.914 250.256 459.674 249.848C459.434 249.432 459.314 248.964 459.314 248.444C459.314 247.908 459.446 247.424 459.71 246.992C459.974 246.552 460.326 246.204 460.766 245.948C461.206 245.684 461.694 245.552 462.23 245.552C462.774 245.552 463.266 245.68 463.706 245.936C464.146 246.192 464.494 246.536 464.75 246.968C465.006 247.392 465.134 247.872 465.134 248.408C465.134 249.144 464.878 249.876 464.366 250.604L461.918 254H460.61ZM462.23 250.268C462.566 250.268 462.866 250.188 463.13 250.028C463.402 249.86 463.614 249.64 463.766 249.368C463.926 249.088 464.006 248.78 464.006 248.444C464.006 248.092 463.926 247.78 463.766 247.508C463.614 247.228 463.402 247.008 463.13 246.848C462.866 246.688 462.566 246.608 462.23 246.608C461.894 246.608 461.59 246.688 461.318 246.848C461.054 247.008 460.842 247.228 460.682 247.508C460.522 247.78 460.442 248.092 460.442 248.444C460.442 248.788 460.522 249.096 460.682 249.368C460.842 249.64 461.058 249.86 461.33 250.028C461.602 250.188 461.902 250.268 462.23 250.268ZM471.775 254.12C471.119 254.12 470.559 254 470.095 253.76C469.631 253.52 469.219 253.172 468.859 252.716L469.627 251.948C469.891 252.316 470.195 252.596 470.539 252.788C470.883 252.972 471.307 253.064 471.811 253.064C472.307 253.064 472.703 252.956 472.999 252.74C473.303 252.524 473.455 252.228 473.455 251.852C473.455 251.54 473.383 251.288 473.239 251.096C473.095 250.904 472.899 250.748 472.651 250.628C472.411 250.5 472.147 250.388 471.859 250.292C471.571 250.188 471.283 250.08 470.995 249.968C470.707 249.848 470.443 249.704 470.203 249.536C469.963 249.36 469.767 249.132 469.615 248.852C469.471 248.572 469.399 248.22 469.399 247.796C469.399 247.324 469.511 246.924 469.735 246.596C469.967 246.26 470.279 246.004 470.671 245.828C471.071 245.644 471.519 245.552 472.015 245.552C472.559 245.552 473.047 245.66 473.479 245.876C473.911 246.084 474.263 246.36 474.535 246.704L473.767 247.472C473.519 247.184 473.251 246.968 472.963 246.824C472.683 246.68 472.359 246.608 471.991 246.608C471.543 246.608 471.187 246.708 470.923 246.908C470.659 247.1 470.527 247.372 470.527 247.724C470.527 248.004 470.599 248.232 470.743 248.408C470.895 248.576 471.091 248.72 471.331 248.84C471.571 248.96 471.835 249.072 472.123 249.176C472.419 249.272 472.711 249.38 472.999 249.5C473.287 249.62 473.551 249.772 473.791 249.956C474.031 250.14 474.223 250.38 474.367 250.676C474.519 250.964 474.595 251.328 474.595 251.768C474.595 252.504 474.339 253.08 473.827 253.496C473.323 253.912 472.639 254.12 471.775 254.12ZM478.661 254.12C478.093 254.12 477.581 253.992 477.125 253.736C476.669 253.472 476.309 253.116 476.045 252.668C475.781 252.22 475.649 251.712 475.649 251.144C475.649 250.584 475.777 250.08 476.033 249.632C476.297 249.184 476.649 248.832 477.089 248.576C477.537 248.312 478.037 248.18 478.589 248.18C479.117 248.18 479.581 248.3 479.981 248.54C480.389 248.78 480.705 249.112 480.929 249.536C481.161 249.96 481.277 250.44 481.277 250.976C481.277 251.056 481.273 251.144 481.265 251.24C481.257 251.328 481.241 251.432 481.217 251.552H476.405V250.652H480.641L480.245 251C480.245 250.616 480.177 250.292 480.041 250.028C479.905 249.756 479.713 249.548 479.465 249.404C479.217 249.252 478.917 249.176 478.565 249.176C478.197 249.176 477.873 249.256 477.593 249.416C477.313 249.576 477.097 249.8 476.945 250.088C476.793 250.376 476.717 250.716 476.717 251.108C476.717 251.508 476.797 251.86 476.957 252.164C477.117 252.46 477.345 252.692 477.641 252.86C477.937 253.02 478.277 253.1 478.661 253.1C478.981 253.1 479.273 253.044 479.537 252.932C479.809 252.82 480.041 252.652 480.233 252.428L480.929 253.136C480.657 253.456 480.321 253.7 479.921 253.868C479.529 254.036 479.109 254.12 478.661 254.12ZM485.635 254.12C485.203 254.12 484.811 254.032 484.459 253.856C484.115 253.672 483.839 253.42 483.631 253.1C483.423 252.78 483.307 252.416 483.283 252.008V250.292C483.307 249.876 483.423 249.512 483.631 249.2C483.847 248.88 484.127 248.632 484.471 248.456C484.823 248.272 485.211 248.18 485.635 248.18C486.155 248.18 486.623 248.312 487.039 248.576C487.463 248.84 487.795 249.196 488.035 249.644C488.275 250.092 488.395 250.596 488.395 251.156C488.395 251.716 488.275 252.22 488.035 252.668C487.795 253.116 487.463 253.472 487.039 253.736C486.623 253.992 486.155 254.12 485.635 254.12ZM485.455 253.1C485.815 253.1 486.131 253.016 486.403 252.848C486.675 252.68 486.891 252.452 487.051 252.164C487.211 251.868 487.291 251.528 487.291 251.144C487.291 250.768 487.211 250.432 487.051 250.136C486.891 249.84 486.675 249.612 486.403 249.452C486.131 249.284 485.819 249.2 485.467 249.2C485.107 249.2 484.791 249.284 484.519 249.452C484.247 249.612 484.035 249.84 483.883 250.136C483.731 250.432 483.655 250.772 483.655 251.156C483.655 251.532 483.727 251.868 483.871 252.164C484.023 252.452 484.235 252.68 484.507 252.848C484.787 253.016 485.103 253.1 485.455 253.1ZM482.635 256.388V248.3H483.715V249.8L483.511 251.18L483.715 252.572V256.388H482.635Z" fill="#9EA3AE"/>
<path d="M506.038 254V245.672H507.154V254H506.038ZM504.334 246.68V245.672H507.034V246.68H504.334ZM510.066 254L512.574 250.58L512.982 250.364C512.886 250.524 512.77 250.664 512.634 250.784C512.498 250.904 512.33 250.996 512.13 251.06C511.938 251.124 511.702 251.156 511.422 251.156C510.942 251.156 510.498 251.04 510.09 250.808C509.69 250.576 509.37 250.256 509.13 249.848C508.89 249.432 508.77 248.964 508.77 248.444C508.77 247.908 508.902 247.424 509.166 246.992C509.43 246.552 509.782 246.204 510.222 245.948C510.662 245.684 511.15 245.552 511.686 245.552C512.23 245.552 512.722 245.68 513.162 245.936C513.602 246.192 513.95 246.536 514.206 246.968C514.462 247.392 514.59 247.872 514.59 248.408C514.59 249.144 514.334 249.876 513.822 250.604L511.374 254H510.066ZM511.686 250.268C512.022 250.268 512.322 250.188 512.586 250.028C512.858 249.86 513.07 249.64 513.222 249.368C513.382 249.088 513.462 248.78 513.462 248.444C513.462 248.092 513.382 247.78 513.222 247.508C513.07 247.228 512.858 247.008 512.586 246.848C512.322 246.688 512.022 246.608 511.686 246.608C511.35 246.608 511.046 246.688 510.774 246.848C510.51 247.008 510.298 247.228 510.138 247.508C509.978 247.78 509.898 248.092 509.898 248.444C509.898 248.788 509.978 249.096 510.138 249.368C510.298 249.64 510.514 249.86 510.786 250.028C511.058 250.188 511.358 250.268 511.686 250.268ZM522.708 254.12C522.116 254.12 521.564 254.012 521.052 253.796C520.54 253.572 520.092 253.264 519.708 252.872C519.324 252.472 519.024 252.012 518.808 251.492C518.6 250.972 518.496 250.416 518.496 249.824C518.496 249.224 518.6 248.668 518.808 248.156C519.024 247.636 519.32 247.18 519.696 246.788C520.08 246.396 520.524 246.092 521.028 245.876C521.54 245.66 522.092 245.552 522.684 245.552C523.276 245.552 523.824 245.66 524.328 245.876C524.84 246.092 525.288 246.396 525.672 246.788C526.056 247.18 526.356 247.636 526.572 248.156C526.788 248.676 526.896 249.236 526.896 249.836C526.896 250.428 526.788 250.984 526.572 251.504C526.356 252.024 526.056 252.48 525.672 252.872C525.296 253.264 524.852 253.572 524.34 253.796C523.836 254.012 523.292 254.12 522.708 254.12ZM522.684 253.04C523.284 253.04 523.808 252.904 524.256 252.632C524.712 252.352 525.072 251.972 525.336 251.492C525.6 251.004 525.732 250.448 525.732 249.824C525.732 249.36 525.656 248.936 525.504 248.552C525.352 248.16 525.14 247.82 524.868 247.532C524.596 247.244 524.276 247.024 523.908 246.872C523.54 246.712 523.132 246.632 522.684 246.632C522.092 246.632 521.568 246.768 521.112 247.04C520.664 247.312 520.308 247.688 520.044 248.168C519.788 248.648 519.66 249.2 519.66 249.824C519.66 250.288 519.732 250.72 519.876 251.12C520.028 251.512 520.236 251.852 520.5 252.14C520.772 252.42 521.092 252.64 521.46 252.8C521.836 252.96 522.244 253.04 522.684 253.04ZM531.035 254.12C530.475 254.12 529.967 253.988 529.511 253.724C529.063 253.46 528.707 253.104 528.443 252.656C528.187 252.2 528.059 251.696 528.059 251.144C528.059 250.584 528.187 250.08 528.443 249.632C528.707 249.184 529.063 248.832 529.511 248.576C529.967 248.312 530.475 248.18 531.035 248.18C531.475 248.18 531.883 248.264 532.259 248.432C532.635 248.592 532.959 248.828 533.231 249.14L532.511 249.86C532.335 249.652 532.119 249.496 531.863 249.392C531.615 249.28 531.339 249.224 531.035 249.224C530.675 249.224 530.355 249.308 530.075 249.476C529.795 249.636 529.575 249.86 529.415 250.148C529.255 250.436 529.175 250.768 529.175 251.144C529.175 251.52 529.255 251.852 529.415 252.14C529.575 252.428 529.795 252.656 530.075 252.824C530.355 252.992 530.675 253.076 531.035 253.076C531.339 253.076 531.615 253.024 531.863 252.92C532.119 252.808 532.339 252.648 532.523 252.44L533.231 253.16C532.967 253.464 532.643 253.7 532.259 253.868C531.883 254.036 531.475 254.12 531.035 254.12ZM535.288 254V245.912H536.368V254H535.288ZM533.884 249.284V248.3H537.772V249.284H533.884Z" fill="#9EA3AE"/>
<path d="M110.765 158.129L67.5 125.266V209.53C67.5 212.843 70.1863 215.53 73.5 215.53H522C525.314 215.53 528 212.843 528 209.53V205.48C528 203.538 527.06 201.716 525.478 200.591L489.716 175.155C487.88 173.849 485.466 173.682 483.468 174.723L447.065 193.676C444.647 194.935 441.684 194.405 439.852 192.387L403.736 152.61C403.365 152.202 402.941 151.847 402.474 151.555L365.594 128.506C362.747 126.727 358.993 127.63 357.268 130.511L323.023 187.662C320.756 191.444 315.321 191.572 312.879 187.899L278.154 135.661C277.632 134.877 276.934 134.226 276.114 133.762L241.286 114.034C238.222 112.299 234.331 113.562 232.87 116.765L195.705 198.239C194.587 200.69 191.974 202.095 189.314 201.676L153.822 196.092C152.66 195.909 151.578 195.389 150.709 194.596L110.765 158.129Z" fill="url(#paint0_linear_103_137266)"/>
<path d="M67.5 125.266L110.765 158.129L150.709 194.596C151.578 195.389 152.66 195.909 153.822 196.092L189.314 201.676C191.974 202.095 194.587 200.69 195.705 198.239L232.87 116.765C234.331 113.562 238.222 112.299 241.286 114.034L276.114 133.762C276.934 134.226 277.632 134.877 278.154 135.661L312.879 187.899C315.321 191.572 320.756 191.444 323.023 187.662L357.268 130.511C358.993 127.63 362.747 126.727 365.594 128.506L402.474 151.555C402.941 151.847 403.365 152.202 403.736 152.61L439.852 192.387C441.684 194.405 444.647 194.935 447.065 193.676L483.468 174.723C485.466 173.682 487.88 173.849 489.716 175.155L528 202.385" stroke="#F8B482"/>
<rect x="0.5" y="0.5" width="565" height="281" rx="5.5" stroke="#E1E1E6"/>
<defs>
<linearGradient id="paint0_linear_103_137266" x1="297.75" y1="110.807" x2="297.75" y2="215.53" gradientUnits="userSpaceOnUse">
<stop stop-color="#F8B482" stop-opacity="0.16"/>
<stop offset="1" stop-color="#E9DBD1" stop-opacity="0"/>
</linearGradient>
<clipPath id="clip0_103_137266">
<rect width="82" height="20" fill="white" transform="translate(460 27)"/>
</clipPath>
</defs>
</svg>
