<svg width="40" height="40" viewBox="0 0 40 40" fill="none" xmlns="http://www.w3.org/2000/svg">
<rect width="40" height="40" rx="20" fill="#829CF8"/>
<path d="M24.3332 20.4336V22.9003C24.3332 24.9803 22.3932 26.6669 19.9998 26.6669C17.6065 26.6669 15.6665 24.9803 15.6665 22.9003V20.4336C15.6665 22.5136 17.6065 24.0003 19.9998 24.0003C22.3932 24.0003 24.3332 22.5136 24.3332 20.4336Z" stroke="white" stroke-width="1.5" stroke-linecap="round" stroke-linejoin="round"/>
<path d="M24.3332 17.1007C24.3332 17.7073 24.1665 18.2673 23.8732 18.7473C23.1598 19.9207 21.6932 20.6673 19.9998 20.6673C18.3065 20.6673 16.8398 19.9207 16.1265 18.7473C15.8332 18.2673 15.6665 17.7073 15.6665 17.1007C15.6665 16.0607 16.1532 15.1207 16.9332 14.4407C17.7198 13.754 18.7998 13.334 19.9998 13.334C21.1998 13.334 22.2798 13.754 23.0665 14.434C23.8465 15.1207 24.3332 16.0607 24.3332 17.1007Z" stroke="white" stroke-width="1.5" stroke-linecap="round" stroke-linejoin="round"/>
<path d="M24.3332 17.1007V20.434C24.3332 22.514 22.3932 24.0007 19.9998 24.0007C17.6065 24.0007 15.6665 22.514 15.6665 20.434V17.1007C15.6665 15.0207 17.6065 13.334 19.9998 13.334C21.1998 13.334 22.2798 13.754 23.0665 14.434C23.8465 15.1207 24.3332 16.0607 24.3332 17.1007Z" stroke="white" stroke-width="1.5" stroke-linecap="round" stroke-linejoin="round"/>
</svg>
