<svg width="40" height="40" viewBox="0 0 40 40" fill="none" xmlns="http://www.w3.org/2000/svg">
<rect width="40" height="40" rx="20" fill="#EE82F8"/>
<path d="M25.3332 17.5007V24.0007C25.3332 26.0007 24.1398 26.6673 22.6665 26.6673H17.3332C15.8598 26.6673 14.6665 26.0007 14.6665 24.0007V17.5007C14.6665 15.334 15.8598 14.834 17.3332 14.834C17.3332 15.2473 17.4998 15.6206 17.7732 15.894C18.0465 16.1673 18.4198 16.334 18.8332 16.334H21.1665C21.9932 16.334 22.6665 15.6607 22.6665 14.834C24.1398 14.834 25.3332 15.334 25.3332 17.5007Z" stroke="white" stroke-width="1.2" stroke-linecap="round" stroke-linejoin="round"/>
<path d="M22.6668 14.834C22.6668 15.6607 21.9935 16.334 21.1668 16.334H18.8335C18.4202 16.334 18.0468 16.1673 17.7735 15.894C17.5001 15.6206 17.3335 15.2473 17.3335 14.834C17.3335 14.0073 18.0068 13.334 18.8335 13.334H21.1668C21.5802 13.334 21.9535 13.5007 22.2268 13.774C22.5002 14.0473 22.6668 14.4207 22.6668 14.834Z" stroke="white" stroke-width="1.2" stroke-linecap="round" stroke-linejoin="round"/>
<path d="M17.3335 20.666H20.0002" stroke="white" stroke-width="1.2" stroke-linecap="round" stroke-linejoin="round"/>
<path d="M17.3335 23.334H22.6668" stroke="white" stroke-width="1.2" stroke-linecap="round" stroke-linejoin="round"/>
</svg>
