<svg width="40" height="40" viewBox="0 0 40 40" fill="none" xmlns="http://www.w3.org/2000/svg">
<rect width="40" height="40" rx="20" fill="#829CF8"/>
<path d="M17.7812 21.5526C17.7812 22.4126 18.4413 23.1059 19.2613 23.1059H20.9346C21.6479 23.1059 22.2279 22.4992 22.2279 21.7526C22.2279 20.9392 21.8746 20.6526 21.3479 20.4659L18.6612 19.5326C18.1346 19.3459 17.7812 19.0592 17.7812 18.2459C17.7812 17.4992 18.3612 16.8926 19.0746 16.8926H20.7479C21.5679 16.8926 22.2279 17.5859 22.2279 18.4459" stroke="white" stroke-width="1.5" stroke-linecap="round" stroke-linejoin="round"/>
<path d="M20 16V24" stroke="white" stroke-width="1.5" stroke-linecap="round" stroke-linejoin="round"/>
<path d="M20.0002 26.6673C23.6821 26.6673 26.6668 23.6825 26.6668 20.0007C26.6668 16.3188 23.6821 13.334 20.0002 13.334C16.3183 13.334 13.3335 16.3188 13.3335 20.0007C13.3335 23.6825 16.3183 26.6673 20.0002 26.6673Z" stroke="white" stroke-width="1.5" stroke-linecap="round" stroke-linejoin="round"/>
</svg>
